<svg version="1.1" xmlns="http://www.w3.org/2000/svg" viewBox="0 0 978.5319316124571 571.1558606771629" width="2935.5957948373716" height="1713.4675820314887">
  <!-- svg-source:excalidraw -->
  
  <defs>
    <style class="style-fonts">
      @font-face {
        font-family: "Virgil";
        src: url("https://excalidraw.com/Virgil.woff2");
      }
      @font-face {
        font-family: "Cascadia";
        src: url("https://excalidraw.com/Cascadia.woff2");
      }
      @font-face {
        font-family: "Assistant";
        src: url("https://excalidraw.com/Assistant-Regular.woff2");
      }
    </style>
    
  </defs>
  <rect x="0" y="0" width="978.5319316124571" height="571.1558606771629" fill="#ffffff"></rect><g stroke-opacity="0.9" fill-opacity="0.9" stroke-linecap="round" transform="translate(10 10) rotate(0 479.26596580622856 275.57793033858144)"><path d="M0 0 L958.53 0 L958.53 551.16 L0 551.16" stroke="none" stroke-width="0" fill="#ffffff"></path><path d="M0 0 C253.58 0, 507.16 0, 958.53 0 M0 0 C250.47 0, 500.93 0, 958.53 0 M958.53 0 C958.53 200.1, 958.53 400.2, 958.53 551.16 M958.53 0 C958.53 201.04, 958.53 402.08, 958.53 551.16 M958.53 551.16 C666.67 551.16, 374.81 551.16, 0 551.16 M958.53 551.16 C730.42 551.16, 502.31 551.16, 0 551.16 M0 551.16 C0 384.88, 0 218.6, 0 0 M0 551.16 C0 427.64, 0 304.13, 0 0" stroke="transparent" stroke-width="1" fill="none"></path></g><g stroke-linecap="round" transform="translate(249.71062359196753 272.1331035436363) rotate(0 82.35400516795869 110.338579068813)"><path d="M0 0 L164.71 0 L164.71 220.68 L0 220.68" stroke="none" stroke-width="0" fill="#1971c2"></path><path d="M0 0 C34.64 0, 69.28 0, 164.71 0 M0 0 C54.16 0, 108.31 0, 164.71 0 M164.71 0 C164.71 73.28, 164.71 146.55, 164.71 220.68 M164.71 0 C164.71 79.54, 164.71 159.08, 164.71 220.68 M164.71 220.68 C117.44 220.68, 70.17 220.68, 0 220.68 M164.71 220.68 C101.95 220.68, 39.2 220.68, 0 220.68 M0 220.68 C0 156.37, 0 92.06, 0 0 M0 220.68 C0 145.79, 0 70.9, 0 0" stroke="#1971c2" stroke-width="2" fill="none"></path></g><g transform="translate(273.1271287599261 445.8464373918567) rotate(0 58.9375 20.981912144702846)"><text x="58.9375" y="14.70412403100775" font-family="Virgil, Segoe UI Emoji" font-size="16.785529715762273px" fill="#ffffff" text-anchor="middle" style="white-space: pre;" direction="ltr" dominant-baseline="alphabetic">Développement</text><text x="58.9375" y="35.68603617571059" font-family="Virgil, Segoe UI Emoji" font-size="16.785529715762273px" fill="#ffffff" text-anchor="middle" style="white-space: pre;" direction="ltr" dominant-baseline="alphabetic">Technique</text></g><g stroke-linecap="round" transform="translate(530.1013864625295 272.8092841343066) rotate(0 82.35400516795869 110.33857906881302)"><path d="M0 0 L164.71 0 L164.71 220.68 L0 220.68" stroke="none" stroke-width="0" fill="#1971c2"></path><path d="M0 0 C58.68 0, 117.37 0, 164.71 0 M0 0 C40.68 0, 81.37 0, 164.71 0 M164.71 0 C164.71 57.51, 164.71 115.01, 164.71 220.68 M164.71 0 C164.71 75.88, 164.71 151.75, 164.71 220.68 M164.71 220.68 C118.03 220.68, 71.35 220.68, 0 220.68 M164.71 220.68 C120.15 220.68, 75.6 220.68, 0 220.68 M0 220.68 C0 153.02, 0 85.37, 0 0 M0 220.68 C0 135.3, 0 49.92, 0 0" stroke="#1971c2" stroke-width="2" fill="none"></path></g><g transform="translate(553.5178916304881 446.522617982527) rotate(0 58.9375 20.981912144702846)"><text x="58.9375" y="14.70412403100775" font-family="Virgil, Segoe UI Emoji" font-size="16.785529715762273px" fill="#ffffff" text-anchor="middle" style="white-space: pre;" direction="ltr" dominant-baseline="alphabetic">Développement</text><text x="58.9375" y="35.68603617571059" font-family="Virgil, Segoe UI Emoji" font-size="16.785529715762273px" fill="#ffffff" text-anchor="middle" style="white-space: pre;" direction="ltr" dominant-baseline="alphabetic">Technique</text></g><g stroke-linecap="round" transform="translate(249.55453216477395 201.32666866277876) rotate(0 82.35400516795869 34.71204385980525)"><path d="M0 0 L164.71 0 L164.71 69.42 L0 69.42" stroke="none" stroke-width="0" fill="#228be6"></path><path d="M0 0 C39.51 0, 79.03 0, 164.71 0 M0 0 C56.21 0, 112.43 0, 164.71 0 M164.71 0 C164.71 16.34, 164.71 32.67, 164.71 69.42 M164.71 0 C164.71 27.1, 164.71 54.21, 164.71 69.42 M164.71 69.42 C117.6 69.42, 70.48 69.42, 0 69.42 M164.71 69.42 C128.38 69.42, 92.05 69.42, 0 69.42 M0 69.42 C0 51.02, 0 32.62, 0 0 M0 69.42 C0 42.28, 0 15.13, 0 0" stroke="#1971c2" stroke-width="2" fill="none"></path></g><g transform="translate(282.421038095672 215.05680037788116) rotate(0 49.48749923706055 20.981912144702832)"><text x="49.48749923706055" y="14.70412403100775" font-family="Virgil, Segoe UI Emoji" font-size="16.785529715762273px" fill="#ffffff" text-anchor="middle" style="white-space: pre;" direction="ltr" dominant-baseline="alphabetic">Accessibilité</text><text x="49.48749923706055" y="35.68603617571059" font-family="Virgil, Segoe UI Emoji" font-size="16.785529715762273px" fill="#ffffff" text-anchor="middle" style="white-space: pre;" direction="ltr" dominant-baseline="alphabetic">Technique</text></g><g stroke-linecap="round" transform="translate(530.3341712858182 202.00284925344909) rotate(0 82.35400516795869 34.71204385980525)"><path d="M0 0 L164.71 0 L164.71 69.42 L0 69.42" stroke="none" stroke-width="0" fill="#228be6"></path><path d="M0 0 C34.09 0, 68.18 0, 164.71 0 M0 0 C63.66 0, 127.31 0, 164.71 0 M164.71 0 C164.71 22.29, 164.71 44.59, 164.71 69.42 M164.71 0 C164.71 25.76, 164.71 51.53, 164.71 69.42 M164.71 69.42 C118.07 69.42, 71.42 69.42, 0 69.42 M164.71 69.42 C114.5 69.42, 64.29 69.42, 0 69.42 M0 69.42 C0 54.64, 0 39.86, 0 0 M0 69.42 C0 50.21, 0 31, 0 0" stroke="#1971c2" stroke-width="2" fill="none"></path></g><g transform="translate(563.2006772167163 215.7329809685515) rotate(0 49.48749923706055 20.981912144702846)"><text x="49.48749923706055" y="14.70412403100775" font-family="Virgil, Segoe UI Emoji" font-size="16.785529715762273px" fill="#ffffff" text-anchor="middle" style="white-space: pre;" direction="ltr" dominant-baseline="alphabetic">Accessibilité</text><text x="49.48749923706055" y="35.68603617571059" font-family="Virgil, Segoe UI Emoji" font-size="16.785529715762273px" fill="#ffffff" text-anchor="middle" style="white-space: pre;" direction="ltr" dominant-baseline="alphabetic">Technique</text></g><g stroke-linecap="round" transform="translate(530.4177677095001 272.0896854469073) rotate(0 82.35400516795869 25.622210689115306)"><path d="M0 0 L164.71 0 L164.71 51.24 L0 51.24" stroke="none" stroke-width="0" fill="#4dabf7"></path><path d="M0 0 C64.89 0, 129.78 0, 164.71 0 M0 0 C57.18 0, 114.36 0, 164.71 0 M164.71 0 C164.71 14.43, 164.71 28.86, 164.71 51.24 M164.71 0 C164.71 16.53, 164.71 33.05, 164.71 51.24 M164.71 51.24 C102.3 51.24, 39.89 51.24, 0 51.24 M164.71 51.24 C105.46 51.24, 46.21 51.24, 0 51.24 M0 51.24 C0 39.61, 0 27.97, 0 0 M0 51.24 C0 38.75, 0 26.25, 0 0" stroke="#1971c2" stroke-width="2" fill="none"></path></g><g transform="translate(572.1967721145193 287.2209400636712) rotate(0 40.57500076293945 10.490956072351423)"><text x="40.57500076293945" y="14.70412403100775" font-family="Virgil, Segoe UI Emoji" font-size="16.785529715762273px" fill="#ffffff" text-anchor="middle" style="white-space: pre;" direction="ltr" dominant-baseline="alphabetic">Rédaction</text></g><g stroke-linecap="round" transform="translate(530.4177677095001 325.0896854469073) rotate(0 82.35400516795869 25.62221068911532)"><path d="M0 0 L164.71 0 L164.71 51.24 L0 51.24" stroke="none" stroke-width="0" fill="#4dabf7"></path><path d="M0 0 C42.9 0, 85.81 0, 164.71 0 M0 0 C49.41 0, 98.82 0, 164.71 0 M164.71 0 C164.71 11.94, 164.71 23.89, 164.71 51.24 M164.71 0 C164.71 17.22, 164.71 34.44, 164.71 51.24 M164.71 51.24 C126.22 51.24, 87.72 51.24, 0 51.24 M164.71 51.24 C126.63 51.24, 88.56 51.24, 0 51.24 M0 51.24 C0 31.53, 0 11.81, 0 0 M0 51.24 C0 31.71, 0 12.18, 0 0" stroke="#1971c2" stroke-width="2" fill="none"></path></g><g transform="translate(572.3842721145193 340.2209400636712) rotate(0 40.38750076293945 10.490956072351423)"><text x="40.38750076293945" y="14.70412403100775" font-family="Virgil, Segoe UI Emoji" font-size="16.785529715762273px" fill="#ffffff" text-anchor="middle" style="white-space: pre;" direction="ltr" dominant-baseline="alphabetic">Graphisme</text></g><g stroke-linecap="round" transform="translate(530.0579683658004 378.56486275607597) rotate(0 82.35400516795869 25.62221068911532)"><path d="M0 0 L164.71 0 L164.71 51.24 L0 51.24" stroke="none" stroke-width="0" fill="#4dabf7"></path><path d="M0 0 C51.54 0, 103.08 0, 164.71 0 M0 0 C47.75 0, 95.51 0, 164.71 0 M164.71 0 C164.71 11.98, 164.71 23.96, 164.71 51.24 M164.71 0 C164.71 20.07, 164.71 40.14, 164.71 51.24 M164.71 51.24 C102.66 51.24, 40.61 51.24, 0 51.24 M164.71 51.24 C125.52 51.24, 86.33 51.24, 0 51.24 M0 51.24 C0 36.73, 0 22.21, 0 0 M0 51.24 C0 30.79, 0 10.34, 0 0" stroke="#1971c2" stroke-width="2" fill="none"></path></g><g transform="translate(587.2494731522893 393.69611737283986) rotate(0 25.162500381469727 10.490956072351423)"><text x="25.162500381469727" y="14.70412403100775" font-family="Virgil, Segoe UI Emoji" font-size="16.785529715762273px" fill="#ffffff" text-anchor="middle" style="white-space: pre;" direction="ltr" dominant-baseline="alphabetic">Tests</text></g><g stroke-opacity="0.9" fill-opacity="0.9" transform="translate(332.3493380134976 58.74500224520142) rotate(0 150.6750030517578 17.5)"><text x="0" y="24.528" font-family="Virgil, Segoe UI Emoji" font-size="28px" fill="#1e1e1e" text-anchor="start" style="white-space: pre;" direction="ltr" dominant-baseline="alphabetic">Erreur méthodologique</text></g><g stroke-opacity="0.9" fill-opacity="0.9" transform="translate(301.9461205730688 161.6668150915281) rotate(0 27.087499618530273 12.5)"><text x="0" y="17.52" font-family="Virgil, Segoe UI Emoji" font-size="20px" fill="#1e1e1e" text-anchor="start" style="white-space: pre;" direction="ltr" dominant-baseline="alphabetic">Perçu</text></g><g stroke-opacity="0.9" fill-opacity="0.9" transform="translate(84.15799321913619 213.9285171462443) rotate(0 47.212501525878906 20)"><text x="94.42500305175781" y="14.016" font-family="Virgil, Segoe UI Emoji" font-size="16px" fill="#1e1e1e" text-anchor="end" style="white-space: pre;" direction="ltr" dominant-baseline="alphabetic">Expert</text><text x="94.42500305175781" y="34.016" font-family="Virgil, Segoe UI Emoji" font-size="16px" fill="#1e1e1e" text-anchor="end" style="white-space: pre;" direction="ltr" dominant-baseline="alphabetic">Accessibilité</text></g><g stroke-opacity="0.9" fill-opacity="0.9" transform="translate(770.7265819962388 291.63447143898134) rotate(0 47.212501525878906 20)"><text x="0" y="14.016" font-family="Virgil, Segoe UI Emoji" font-size="16px" fill="#1e1e1e" text-anchor="start" style="white-space: pre;" direction="ltr" dominant-baseline="alphabetic">Expert</text><text x="0" y="34.016" font-family="Virgil, Segoe UI Emoji" font-size="16px" fill="#1e1e1e" text-anchor="start" style="white-space: pre;" direction="ltr" dominant-baseline="alphabetic">Accessibilité</text></g><g stroke-opacity="0.9" fill-opacity="0.9" transform="translate(586.4808031811108 161.3070157478284) rotate(0 21.037500381469727 12.5)"><text x="0" y="17.52" font-family="Virgil, Segoe UI Emoji" font-size="20px" fill="#1e1e1e" text-anchor="start" style="white-space: pre;" direction="ltr" dominant-baseline="alphabetic">Réel</text></g><g stroke-opacity="0.9" fill-opacity="0.9" transform="translate(218.90391335376535 215.17797233506678) rotate(0 11.25 22.5)"><text x="0" y="31.536" font-family="Virgil, Segoe UI Emoji" font-size="36px" fill="#1e1e1e" text-anchor="start" style="white-space: pre;" direction="ltr" dominant-baseline="alphabetic">+</text></g><g stroke-opacity="0.9" fill-opacity="0.9" transform="translate(703.2586962899575 215.85415292573708) rotate(0 11.25 22.5)"><text x="0" y="31.536" font-family="Virgil, Segoe UI Emoji" font-size="36px" fill="#1e1e1e" text-anchor="start" style="white-space: pre;" direction="ltr" dominant-baseline="alphabetic">+</text></g><g stroke-opacity="0.9" fill-opacity="0.9" transform="translate(702.8988969462578 275.5811897754956) rotate(0 11.25 22.5)"><text x="0" y="31.536" font-family="Virgil, Segoe UI Emoji" font-size="36px" fill="#1e1e1e" text-anchor="start" style="white-space: pre;" direction="ltr" dominant-baseline="alphabetic">+</text></g><g stroke-opacity="0.9" fill-opacity="0.9" transform="translate(705.647037405668 329.09234701903426) rotate(0 11.25 22.500000000000014)"><text x="0" y="31.536" font-family="Virgil, Segoe UI Emoji" font-size="36px" fill="#1e1e1e" text-anchor="start" style="white-space: pre;" direction="ltr" dominant-baseline="alphabetic">+</text></g><g stroke-opacity="0.9" fill-opacity="0.9" transform="translate(705.3951778650783 380.495564459463) rotate(0 11.25 22.5)"><text x="0" y="31.536" font-family="Virgil, Segoe UI Emoji" font-size="36px" fill="#1e1e1e" text-anchor="start" style="white-space: pre;" direction="ltr" dominant-baseline="alphabetic">+</text></g><g stroke-linecap="round"><g stroke-opacity="0.9" fill-opacity="0.9" transform="translate(204.49948503591077 203.82273084096366) rotate(0 0 31.597387998284063)"><path d="M0 0 C0 22.02, 0 44.05, 0 63.19 M0 0 C0 20.83, 0 41.66, 0 63.19" stroke="#1e1e1e" stroke-width="1" fill="none"></path></g></g><mask></mask><g stroke-linecap="round"><g stroke-opacity="0.9" fill-opacity="0.9" transform="translate(745.873579434555 202.89249111690333) rotate(0 0 110.32445321123186)"><path d="M0 0 C0 61.45, 0 122.9, 0 220.65 M0 0 C0 74.24, 0 148.49, 0 220.65" stroke="#1e1e1e" stroke-width="1" fill="none"></path></g></g><mask></mask><g stroke-linecap="round"><g stroke-opacity="0.9" fill-opacity="0.9" transform="translate(204.10996687329407 233.86614893769277) rotate(0 -7.575090426466318 0)"><path d="M0 0 C-3.3 0, -6.61 0, -15.15 0 M0 0 C-4.85 0, -9.71 0, -15.15 0" stroke="#1e1e1e" stroke-width="1" fill="none"></path></g></g><mask></mask><g stroke-linecap="round"><g stroke-opacity="0.9" fill-opacity="0.9" transform="translate(745.9584725851694 313.42278628359566) rotate(0 8.293472496834966 0)"><path d="M0 0 C4.07 0, 8.14 0, 16.59 0 M0 0 C4.37 0, 8.75 0, 16.59 0" stroke="#1e1e1e" stroke-width="1" fill="none"></path></g></g><mask></mask><g stroke-linecap="round"><g stroke-opacity="0.9" fill-opacity="0.9" transform="translate(204.49787498308342 203.15605690202597) rotate(0 4.683577425190606 0)"><path d="M0 0 C2.47 0, 4.95 0, 9.37 0 M0 0 C2.3 0, 4.6 0, 9.37 0" stroke="#1e1e1e" stroke-width="1" fill="none"></path></g></g><mask></mask><g stroke-linecap="round"><g stroke-opacity="0.9" fill-opacity="0.9" transform="translate(204.6487843064931 267.642601188902) rotate(0 4.683577425190606 0)"><path d="M0 0 C2.16 0, 4.32 0, 9.37 0 M0 0 C2.11 0, 4.21 0, 9.37 0" stroke="#1e1e1e" stroke-width="1" fill="none"></path></g></g><mask></mask><g stroke-linecap="round"><g stroke-opacity="0.9" fill-opacity="0.9" transform="translate(736.3695003985276 202.14551187631483) rotate(0 4.683577425190606 0)"><path d="M0 0 C1.97 0, 3.93 0, 9.37 0 M0 0 C3.16 0, 6.31 0, 9.37 0" stroke="#1e1e1e" stroke-width="1" fill="none"></path></g></g><mask></mask><g stroke-linecap="round"><g stroke-opacity="0.9" fill-opacity="0.9" transform="translate(736.2436824337099 423.5822346178648) rotate(0 4.683577425190606 0)"><path d="M0 0 C3.36 0, 6.71 0, 9.37 0 M0 0 C1.94 0, 3.88 0, 9.37 0" stroke="#1e1e1e" stroke-width="1" fill="none"></path></g></g><mask></mask></svg>