<svg version="1.1" xmlns="http://www.w3.org/2000/svg" viewBox="0 0 1064.5052193888812 780.2590726052288" width="1064.5052193888812" height="780.2590726052288">
  <!-- svg-source:excalidraw -->
  
  <defs>
    <style class="style-fonts">
      @font-face {
        font-family: "Virgil";
        src: url("https://excalidraw.com/Virgil.woff2");
      }
      @font-face {
        font-family: "Cascadia";
        src: url("https://excalidraw.com/Cascadia.woff2");
      }
      @font-face {
        font-family: "Assistant";
        src: url("https://excalidraw.com/Assistant-Regular.woff2");
      }
    </style>
    
  </defs>
  <rect x="0" y="0" width="1064.5052193888812" height="780.2590726052288" fill="#ffffff"></rect><g stroke-linecap="round"><g transform="translate(113.45433669931936 485.0082530340046) rotate(0 51.072747446460994 0)"><path d="M0 0 C38.96 0, 77.93 0, 102.15 0 M0 0 C29.57 0, 59.14 0, 102.15 0" stroke="#1e1e1e" stroke-width="2" fill="none"></path></g></g><mask></mask><g stroke-linecap="round"><g transform="translate(704.9028055548793 486.9723627774031) rotate(0 51.072747446460994 0)"><path d="M0 0 C31.17 0, 62.33 0, 102.15 0 M0 0 C37.03 0, 74.06 0, 102.15 0" stroke="#1e1e1e" stroke-width="2" fill="none"></path></g></g><mask></mask><g stroke-linecap="round"><g transform="translate(809.3545406374219 568.7445710387931) rotate(0 51.072747446460994 0)"><path d="M0 0 C32.47 0, 64.95 0, 102.15 0 M0 0 C25.33 0, 50.66 0, 102.15 0" stroke="#1e1e1e" stroke-width="2" fill="none"></path></g></g><mask></mask><g stroke-linecap="round"><g stroke-opacity="0.4" fill-opacity="0.4" transform="translate(320.4500625079568 405.2372548005426) rotate(0 89.14180122233847 -0.13275850478316897)"><path d="M0 0 C39.31 -0.06, 78.62 -0.12, 178.28 -0.27 M0 0 C40.53 -0.06, 81.05 -0.12, 178.28 -0.27" stroke="#1e1e1e" stroke-width="2" fill="none"></path></g></g><mask></mask><g stroke-linecap="round"><g transform="translate(216.58676750254085 405.0958018056924) rotate(0 51.072747446460994 0)"><path d="M0 0 C33.14 0, 66.29 0, 102.15 0 M0 0 C26.61 0, 53.22 0, 102.15 0" stroke="#1e1e1e" stroke-width="2" fill="none"></path></g></g><mask></mask><g stroke-linecap="round"><g transform="translate(10 565.7240206751856) rotate(0 51.072747446460994 0)"><path d="M0 0 C29.57 0, 59.14 0, 102.15 0 M0 0 C39.87 0, 79.75 0, 102.15 0" stroke="#1e1e1e" stroke-width="2" fill="none"></path></g></g><mask></mask><g stroke-linecap="round"><g transform="translate(599.7815278926478 405.99739262834896) rotate(0 51.072747446460994 0)"><path d="M0 0 C37.03 0, 74.06 0, 102.15 0 M0 0 C26.89 0, 53.78 0, 102.15 0" stroke="#1e1e1e" stroke-width="2" fill="none"></path></g></g><mask></mask><g stroke-linecap="round"><g transform="translate(319.4863762482182 324.80483048505903) rotate(0 51.072747446460994 0)"><path d="M0 0 C36.47 0, 72.94 0, 102.15 0 M0 0 C32.21 0, 64.42 0, 102.15 0" stroke="#1e1e1e" stroke-width="2" fill="none"></path></g></g><mask></mask><g stroke-linecap="round"><g transform="translate(497.60608246498214 325.1047042063599) rotate(0 51.072747446460994 0)"><path d="M0 0 C21.69 0, 43.37 0, 102.15 0 M0 0 C37.26 0, 74.53 0, 102.15 0" stroke="#1e1e1e" stroke-width="2" fill="none"></path></g></g><mask></mask><g stroke-linecap="round"><g transform="translate(422.0706827906836 244.5138591644254) rotate(0 36.347766572650926 0)"><path d="M0 0 C16.52 0, 33.05 0, 72.7 0 M0 0 C26.66 0, 53.32 0, 72.7 0" stroke="#1e1e1e" stroke-width="2" fill="none"></path></g></g><mask></mask><g stroke-linecap="round"><g transform="translate(216.02824896061315 484.37597364874887) rotate(0 0 -39.62379808828928)"><path d="M0 0 C0 -20.64, 0 -41.29, 0 -79.25 M0 0 C0 -25.23, 0 -50.45, 0 -79.25" stroke="#1e1e1e" stroke-width="2" fill="none"></path></g></g><mask></mask><g stroke-linecap="round"><g transform="translate(703.3498635834462 486.34008339214733) rotate(0 0 -39.62379808828928)"><path d="M0 0 C0 -30.94, 0 -61.87, 0 -79.25 M0 0 C0 -20.14, 0 -40.28, 0 -79.25" stroke="#1e1e1e" stroke-width="2" fill="none"></path></g></g><mask></mask><g stroke-linecap="round"><g transform="translate(807.8015986659891 568.1122916535371) rotate(0 0 -39.62379808828928)"><path d="M0 0 C0 -20.86, 0 -41.72, 0 -79.25 M0 0 C0 -30.62, 0 -61.24, 0 -79.25" stroke="#1e1e1e" stroke-width="2" fill="none"></path></g></g><mask></mask><g stroke-linecap="round"><g transform="translate(319.1606797638344 404.4635224204367) rotate(0 0 -39.62379808828928)"><path d="M0 0 C0 -24.99, 0 -49.98, 0 -79.25 M0 0 C0 -24.29, 0 -48.59, 0 -79.25" stroke="#1e1e1e" stroke-width="2" fill="none"></path></g></g><mask></mask><g stroke-linecap="round"><g transform="translate(112.57391226129357 565.0917412899298) rotate(0 0 -39.62379808828928)"><path d="M0 0 C0 -28.91, 0 -57.82, 0 -79.25 M0 0 C0 -24, 0 -48.01, 0 -79.25" stroke="#1e1e1e" stroke-width="2" fill="none"></path></g></g><mask></mask><g stroke-linecap="round"><g transform="translate(599.2822023718409 404.76339614173753) rotate(0 0 -39.62379808828928)"><path d="M0 0 C0 -29.07, 0 -58.13, 0 -79.25 M0 0 C0 -25.89, 0 -51.79, 0 -79.25" stroke="#1e1e1e" stroke-width="2" fill="none"></path></g></g><mask></mask><g stroke-linecap="round"><g stroke-opacity="0.4" fill-opacity="0.4" transform="translate(576.6030471282447 565.0589490253549) rotate(0 -0.18851253291495595 -42.47886606407428)"><path d="M0 0 C-0.15 -32.83, -0.29 -65.65, -0.38 -84.96 M0 0 C-0.1 -23.11, -0.21 -46.22, -0.38 -84.96" stroke="#1e1e1e" stroke-width="2" fill="none"></path></g></g><mask></mask><g stroke-linecap="round"><g transform="translate(422.0602885095118 324.1725510998033) rotate(0 0 -39.62379808828928)"><path d="M0 0 C0 -26.29, 0 -52.57, 0 -79.25 M0 0 C0 -17.68, 0 -35.36, 0 -79.25" stroke="#1e1e1e" stroke-width="2" fill="none"></path></g></g><mask></mask><g stroke-linecap="round"><g transform="translate(496.27568486337395 324.54288246208876) rotate(0 0 -39.62379808828928)"><path d="M0 0 C0 -24.29, 0 -48.59, 0 -79.25 M0 0 C0 -24.02, 0 -48.04, 0 -79.25" stroke="#1e1e1e" stroke-width="2" fill="none"></path></g></g><mask></mask><g stroke-linecap="round"><g stroke-opacity="0.8" fill-opacity="0.8" transform="translate(45.86141979347508 432.21362425785014) rotate(0 89.50112287697186 -82.72073478023162)"><path d="M0 0 C54.22 -50.11, 108.44 -100.22, 179 -165.44 M0 0 C65.45 -60.49, 130.9 -120.99, 179 -165.44" stroke="#2c79c2" stroke-width="2" fill="none"></path></g><g stroke-opacity="0.8" fill-opacity="0.8" transform="translate(45.86141979347508 432.21362425785014) rotate(0 89.50112287697186 -82.72073478023162)"><path d="M167.55 -143.22 C171.02 -149.95, 174.49 -156.68, 179 -165.44 M167.55 -143.22 C171.74 -151.34, 175.93 -159.47, 179 -165.44" stroke="#2c79c2" stroke-width="2" fill="none"></path></g><g stroke-opacity="0.8" fill-opacity="0.8" transform="translate(45.86141979347508 432.21362425785014) rotate(0 89.50112287697186 -82.72073478023162)"><path d="M155.95 -155.78 C162.93 -158.7, 169.91 -161.63, 179 -165.44 M155.95 -155.78 C164.38 -159.31, 172.81 -162.84, 179 -165.44" stroke="#2c79c2" stroke-width="2" fill="none"></path></g></g><mask></mask><g stroke-linecap="round"><g stroke-opacity="0.8" fill-opacity="0.8" transform="translate(725.5850495266991 291.0582684123822) rotate(0 83.17276065334772 80.91263128776757)"><path d="M0 0 C54.35 52.88, 108.7 105.75, 166.35 161.83 M0 0 C59.28 57.67, 118.55 115.33, 166.35 161.83" stroke="#2c79c2" stroke-width="2" fill="none"></path></g><g stroke-opacity="0.8" fill-opacity="0.8" transform="translate(725.5850495266991 291.0582684123822) rotate(0 83.17276065334772 80.91263128776757)"><path d="M143.54 151.57 C150.99 154.92, 158.44 158.27, 166.35 161.83 M143.54 151.57 C151.67 155.23, 159.79 158.88, 166.35 161.83" stroke="#2c79c2" stroke-width="2" fill="none"></path></g><g stroke-opacity="0.8" fill-opacity="0.8" transform="translate(725.5850495266991 291.0582684123822) rotate(0 83.17276065334772 80.91263128776757)"><path d="M155.47 139.32 C159.02 146.67, 162.58 154.03, 166.35 161.83 M155.47 139.32 C159.34 147.34, 163.22 155.36, 166.35 161.83" stroke="#2c79c2" stroke-width="2" fill="none"></path></g></g><mask></mask><g stroke-opacity="0.8" fill-opacity="0.8" transform="translate(389.5282871857589 161.31670820571958) rotate(0 66.82499694824219 18.997130695210558)"><text x="66.82499694824219" y="26.626378382407097" font-family="Virgil, Segoe UI Emoji" font-size="30.39540911233687px" fill="#1e1e1e" text-anchor="middle" style="white-space: pre;" direction="ltr" dominant-baseline="alphabetic">Maturité</text></g><g stroke-opacity="0.8" fill-opacity="0.8" transform="translate(425.6113001971289 677.59999371399) rotate(0 46.724998474121094 20.442660988699004)"><text x="46.724998474121094" y="28.652433641760453" font-family="Virgil, Segoe UI Emoji" font-size="32.708257581918325px" fill="#1e1e1e" text-anchor="middle" style="white-space: pre;" direction="ltr" dominant-baseline="alphabetic">3 ans</text></g><g stroke-opacity="0.8" fill-opacity="0.8" transform="translate(29.037858917983158 313.78284550145304) rotate(316.43548808304723 71.06666564941406 19.056995315843665)"><text x="71.06666564941406" y="26.710284634686474" font-family="Virgil, Segoe UI Emoji" font-size="30.49119250534985px" fill="#1e1e1e" text-anchor="middle" style="white-space: pre;" direction="ltr" dominant-baseline="alphabetic">Formation</text></g><g stroke-opacity="0.8" fill-opacity="0.8" transform="translate(749.1305092282225 316.3717173068794) rotate(43.27743169329176 77.70833587646484 19.056995315843665)"><text x="77.70833587646484" y="26.710284634686474" font-family="Virgil, Segoe UI Emoji" font-size="30.49119250534985px" fill="#1e1e1e" text-anchor="middle" style="white-space: pre;" direction="ltr" dominant-baseline="alphabetic">Application</text></g><g stroke-linecap="round"><g stroke-opacity="0.8" fill-opacity="0.8" transform="translate(37.49983442454345 723.3776731252863) rotate(0 429.908358889964 -2.1558658918969513)"><path d="M0.56 -0.62 C239.91 -8.66, 479.85 -8.66, 859.71 -5.57 M0.59 0.75 C183.99 -3.75, 367.78 -4.98, 859.28 -3.78" stroke="#1e1e1e" stroke-width="2" fill="none"></path></g><g stroke-opacity="0.8" fill-opacity="0.8" transform="translate(37.49983442454345 723.3776731252863) rotate(0 429.908358889964 -2.1558658918969513)"><path d="M24.64 -10.24 C18.19 -8.18, 12.4 -4.22, 0.43 -2.2 M24.68 -8.52 C19.39 -7.81, 14.55 -6.31, -0.11 0.04" stroke="#1e1e1e" stroke-width="2" fill="none"></path></g><g stroke-opacity="0.8" fill-opacity="0.8" transform="translate(37.49983442454345 723.3776731252863) rotate(0 429.908358889964 -2.1558658918969513)"><path d="M24.85 6.86 C18.26 4.16, 12.41 3.36, 0.43 -2.2 M24.89 8.58 C19.54 5.63, 14.66 3.48, -0.11 0.04" stroke="#1e1e1e" stroke-width="2" fill="none"></path></g><g stroke-opacity="0.8" fill-opacity="0.8" transform="translate(37.49983442454345 723.3776731252863) rotate(0 429.908358889964 -2.1558658918969513)"><path d="M836.48 3.97 C842.99 0.76, 850.25 -0.11, 859.15 -5.35 M836.51 5.68 C841.22 2.51, 846.4 0.3, 858.61 -3.11" stroke="#1e1e1e" stroke-width="2" fill="none"></path></g><g stroke-opacity="0.8" fill-opacity="0.8" transform="translate(37.49983442454345 723.3776731252863) rotate(0 429.908358889964 -2.1558658918969513)"><path d="M836.5 -13.13 C843.09 -11.58, 850.34 -7.69, 859.15 -5.35 M836.53 -11.42 C841.25 -10.94, 846.43 -9.49, 858.61 -3.11" stroke="#1e1e1e" stroke-width="2" fill="none"></path></g></g><mask></mask><g stroke-linecap="round"><g stroke-opacity="0.1" fill-opacity="0.1" transform="translate(459.0130678215171 221.4547651060816) rotate(0 0 274.4021537495736)"><path d="M0 0 C0 91.47, 0 457.34, 0 548.8" stroke="#1e1e1e" stroke-width="2.5" fill="none" stroke-dasharray="8 10"></path></g></g><mask></mask><g stroke-linecap="round" transform="translate(217.05273745786917 406.0269027617726) rotate(0 104.06634680361856 40.81899595904122)"><path d="M0 0 L208.13 0 L208.13 81.64 L0 81.64" stroke="none" stroke-width="0" fill="#7950f2"></path><path d="M0 0 C77.3 0, 154.61 0, 208.13 0 M208.13 0 C208.13 30.46, 208.13 60.93, 208.13 81.64 M208.13 81.64 C131.81 81.64, 55.48 81.64, 0 81.64 M0 81.64 C0 54.06, 0 26.48, 0 0" stroke="transparent" stroke-width="2.5" fill="none" stroke-dasharray="8 10"></path></g><g stroke-linecap="round" transform="translate(114.38610136663738 486.4927631526134) rotate(0 172.34011671690348 40.81899595904122)"><path d="M0 0 L344.68 0 L344.68 81.64 L0 81.64" stroke="none" stroke-width="0" fill="#7950f2"></path><path d="M0 0 C105.23 0, 210.45 0, 344.68 0 M344.68 0 C344.68 32.15, 344.68 64.3, 344.68 81.64 M344.68 81.64 C235.18 81.64, 125.67 81.64, 0 81.64 M0 81.64 C0 62.72, 0 43.8, 0 0" stroke="transparent" stroke-width="2.5" fill="none" stroke-dasharray="8 10"></path></g><g stroke-linecap="round" transform="translate(320.4444963151743 326.07451179886493) rotate(0 138.97057763983423 40.62800550976465)"><path d="M0 0 L277.94 0 L277.94 81.26 L0 81.26" stroke="none" stroke-width="0" fill="#9775fa"></path><path d="M0 0 C81.52 0, 163.05 0, 277.94 0 M277.94 0 C277.94 27.87, 277.94 55.74, 277.94 81.26 M277.94 81.26 C217.02 81.26, 156.11 81.26, 0 81.26 M0 81.26 C0 62.01, 0 42.77, 0 0" stroke="transparent" stroke-width="1.5" fill="none" stroke-dasharray="8 9"></path></g><g stroke-linecap="round" transform="translate(423.20680568826606 245.86170132528719) rotate(0 36.95594127709296 41.35715020949601)"><path d="M0 0 L73.91 0 L73.91 82.71 L0 82.71" stroke="none" stroke-width="0" fill="#9775fa"></path><path d="M0 0 C16.35 0, 32.71 0, 73.91 0 M73.91 0 C73.91 22.1, 73.91 44.21, 73.91 82.71 M73.91 82.71 C46.04 82.71, 18.17 82.71, 0 82.71 M0 82.71 C0 50.18, 0 17.66, 0 0" stroke="transparent" stroke-width="2.5" fill="none" stroke-dasharray="8 10"></path></g><g stroke-linecap="round" transform="translate(424.5454934307247 405.66045766056845) rotate(0 57.88744589948476 41.35715020949601)"><path d="M0 0 L115.77 0 L115.77 82.71 L0 82.71" stroke="none" stroke-width="0" fill="#9775fa"></path><path d="M0 0 C38.75 0, 77.5 0, 115.77 0 M115.77 0 C115.77 27.11, 115.77 54.21, 115.77 82.71 M115.77 82.71 C88.48 82.71, 61.18 82.71, 0 82.71 M0 82.71 C0 65.92, 0 49.13, 0 0" stroke="transparent" stroke-width="2.5" fill="none" stroke-dasharray="8 10"></path></g><g stroke-linecap="round" transform="translate(540.560091196565 407.44736064201766) rotate(0 80.43678658647036 41.35715020949601)"><path d="M0 0 L160.87 0 L160.87 82.71 L0 82.71" stroke="none" stroke-width="0" fill="#d0bfff"></path><path d="M0 0 C34.36 0, 68.72 0, 160.87 0 M160.87 0 C160.87 29.7, 160.87 59.39, 160.87 82.71 M160.87 82.71 C128.05 82.71, 95.23 82.71, 0 82.71 M0 82.71 C0 62.61, 0 42.51, 0 0" stroke="transparent" stroke-width="2.5" fill="none" stroke-dasharray="8 10"></path></g><g stroke-linecap="round" transform="translate(458.4078471957789 488.3906276007274) rotate(0 173.95919845134904 39.85369886983983)"><path d="M0 0 L347.92 0 L347.92 79.71 L0 79.71" stroke="none" stroke-width="0" fill="#d0bfff"></path><path d="M0 0 C73.62 0, 147.23 0, 347.92 0 M347.92 0 C347.92 20.26, 347.92 40.52, 347.92 79.71 M347.92 79.71 C226.16 79.71, 104.39 79.71, 0 79.71 M0 79.71 C0 59.63, 0 39.55, 0 0" stroke="transparent" stroke-width="2.5" fill="none" stroke-dasharray="8 10"></path></g><g stroke-opacity="0.8" fill-opacity="0.8" transform="translate(124.12135411421195 494.56023768895943) rotate(0 92.03333282470703 32.011742789054324)"><text x="92.03333282470703" y="22.433829346569265" font-family="Virgil, Segoe UI Emoji" font-size="25.609394231243453px" fill="#ffffff" text-anchor="middle" style="white-space: pre;" direction="ltr" dominant-baseline="alphabetic">Champ </text><text x="92.03333282470703" y="54.44557213562358" font-family="Virgil, Segoe UI Emoji" font-size="25.609394231243453px" fill="#ffffff" text-anchor="middle" style="white-space: pre;" direction="ltr" dominant-baseline="alphabetic">de Compétence</text></g><g transform="translate(168.183183380341 10) rotate(0 296.0083312988281 53.359586884362216)"><text x="296.0083312988281" y="37.39439848856105" font-family="Virgil, Segoe UI Emoji" font-size="42.68766950748979px" fill="#1e1e1e" text-anchor="middle" style="white-space: pre;" direction="ltr" dominant-baseline="alphabetic">Vision Classique</text><text x="296.0083312988281" y="90.75398537292328" font-family="Virgil, Segoe UI Emoji" font-size="42.68766950748979px" fill="#1e1e1e" text-anchor="middle" style="white-space: pre;" direction="ltr" dominant-baseline="alphabetic">de la montée en compétence</text></g><g stroke-linecap="round" transform="translate(939.4081648251824 538.5685104926349) rotate(0 57.548527281849374 18.564041058661132)"><path d="M0 0 L115.1 0 L115.1 37.13 L0 37.13" stroke="none" stroke-width="0" fill="#1e1e1e"></path><path d="M0 0 C45.32 0, 90.65 0, 115.1 0 M0 0 C36.57 0, 73.13 0, 115.1 0 M115.1 0 C115.1 8.61, 115.1 17.21, 115.1 37.13 M115.1 0 C115.1 14.34, 115.1 28.68, 115.1 37.13 M115.1 37.13 C74.9 37.13, 34.7 37.13, 0 37.13 M115.1 37.13 C79.58 37.13, 44.07 37.13, 0 37.13 M0 37.13 C0 26.21, 0 15.29, 0 0 M0 37.13 C0 26.48, 0 15.83, 0 0" stroke="#1e1e1e" stroke-width="1" fill="none"></path></g><g transform="translate(947.9651871643675 545.9506209937615) rotate(0 50.766666412353516 12.286166856921795)"><text x="50.766666412353516" y="17.22029146666151" font-family="Virgil, Segoe UI Emoji" font-size="19.657866971074785px" fill="#ffffff" text-anchor="middle" style="white-space: pre;" direction="ltr" dominant-baseline="alphabetic">Conformité</text></g><g stroke-linecap="round" transform="translate(335.6969125639034 529.8512756755056) rotate(0 13.054934380861596 13.054934380861596)"><path d="M26.11 13.05 C26.11 13.81, 26.04 14.58, 25.91 15.32 C25.78 16.07, 25.58 16.81, 25.32 17.52 C25.06 18.23, 24.74 18.93, 24.36 19.58 C23.98 20.24, 23.54 20.87, 23.06 21.45 C22.57 22.03, 22.03 22.57, 21.45 23.06 C20.87 23.54, 20.24 23.98, 19.58 24.36 C18.93 24.74, 18.23 25.06, 17.52 25.32 C16.81 25.58, 16.07 25.78, 15.32 25.91 C14.58 26.04, 13.81 26.11, 13.05 26.11 C12.3 26.11, 11.53 26.04, 10.79 25.91 C10.04 25.78, 9.3 25.58, 8.59 25.32 C7.88 25.06, 7.18 24.74, 6.53 24.36 C5.87 23.98, 5.24 23.54, 4.66 23.06 C4.08 22.57, 3.54 22.03, 3.05 21.45 C2.57 20.87, 2.13 20.24, 1.75 19.58 C1.37 18.93, 1.05 18.23, 0.79 17.52 C0.53 16.81, 0.33 16.07, 0.2 15.32 C0.07 14.58, 0 13.81, 0 13.05 C0 12.3, 0.07 11.53, 0.2 10.79 C0.33 10.04, 0.53 9.3, 0.79 8.59 C1.05 7.88, 1.37 7.18, 1.75 6.53 C2.13 5.87, 2.57 5.24, 3.05 4.66 C3.54 4.08, 4.08 3.54, 4.66 3.05 C5.24 2.57, 5.87 2.13, 6.53 1.75 C7.18 1.37, 7.88 1.05, 8.59 0.79 C9.3 0.53, 10.04 0.33, 10.79 0.2 C11.53 0.07, 12.3 0, 13.05 0 C13.81 0, 14.58 0.07, 15.32 0.2 C16.07 0.33, 16.81 0.53, 17.52 0.79 C18.23 1.05, 18.93 1.37, 19.58 1.75 C20.24 2.13, 20.87 2.57, 21.45 3.05 C22.03 3.54, 22.57 4.08, 23.06 4.66 C23.54 5.24, 23.98 5.87, 24.36 6.53 C24.74 7.18, 25.06 7.88, 25.32 8.59 C25.58 9.3, 25.78 10.04, 25.91 10.79 C26.04 11.53, 26.08 12.68, 26.11 13.05 C26.14 13.43, 26.14 12.68, 26.11 13.05" stroke="none" stroke-width="0" fill="#1e1e1e"></path><path d="M26.11 13.05 C26.11 13.81, 26.04 14.58, 25.91 15.32 C25.78 16.07, 25.58 16.81, 25.32 17.52 C25.06 18.23, 24.74 18.93, 24.36 19.58 C23.98 20.24, 23.54 20.87, 23.06 21.45 C22.57 22.03, 22.03 22.57, 21.45 23.06 C20.87 23.54, 20.24 23.98, 19.58 24.36 C18.93 24.74, 18.23 25.06, 17.52 25.32 C16.81 25.58, 16.07 25.78, 15.32 25.91 C14.58 26.04, 13.81 26.11, 13.05 26.11 C12.3 26.11, 11.53 26.04, 10.79 25.91 C10.04 25.78, 9.3 25.58, 8.59 25.32 C7.88 25.06, 7.18 24.74, 6.53 24.36 C5.87 23.98, 5.24 23.54, 4.66 23.06 C4.08 22.57, 3.54 22.03, 3.05 21.45 C2.57 20.87, 2.13 20.24, 1.75 19.58 C1.37 18.93, 1.05 18.23, 0.79 17.52 C0.53 16.81, 0.33 16.07, 0.2 15.32 C0.07 14.58, 0 13.81, 0 13.05 C0 12.3, 0.07 11.53, 0.2 10.79 C0.33 10.04, 0.53 9.3, 0.79 8.59 C1.05 7.88, 1.37 7.18, 1.75 6.53 C2.13 5.87, 2.57 5.24, 3.05 4.66 C3.54 4.08, 4.08 3.54, 4.66 3.05 C5.24 2.57, 5.87 2.13, 6.53 1.75 C7.18 1.37, 7.88 1.05, 8.59 0.79 C9.3 0.53, 10.04 0.33, 10.79 0.2 C11.53 0.07, 12.3 0, 13.05 0 C13.81 0, 14.58 0.07, 15.32 0.2 C16.07 0.33, 16.81 0.53, 17.52 0.79 C18.23 1.05, 18.93 1.37, 19.58 1.75 C20.24 2.13, 20.87 2.57, 21.45 3.05 C22.03 3.54, 22.57 4.08, 23.06 4.66 C23.54 5.24, 23.98 5.87, 24.36 6.53 C24.74 7.18, 25.06 7.88, 25.32 8.59 C25.58 9.3, 25.78 10.04, 25.91 10.79 C26.04 11.53, 26.08 12.68, 26.11 13.05 C26.14 13.43, 26.14 12.68, 26.11 13.05" stroke="#ffffff" stroke-width="1" fill="none"></path></g><g stroke-linecap="round" transform="translate(446.25082556787333 331.4027951229534) rotate(0 13.054934380861596 13.054934380861596)"><path d="M26.11 13.05 C26.11 13.81, 26.04 14.58, 25.91 15.32 C25.78 16.07, 25.58 16.81, 25.32 17.52 C25.06 18.23, 24.74 18.93, 24.36 19.58 C23.98 20.24, 23.54 20.87, 23.06 21.45 C22.57 22.03, 22.03 22.57, 21.45 23.06 C20.87 23.54, 20.24 23.98, 19.58 24.36 C18.93 24.74, 18.23 25.06, 17.52 25.32 C16.81 25.58, 16.07 25.78, 15.32 25.91 C14.58 26.04, 13.81 26.11, 13.05 26.11 C12.3 26.11, 11.53 26.04, 10.79 25.91 C10.04 25.78, 9.3 25.58, 8.59 25.32 C7.88 25.06, 7.18 24.74, 6.53 24.36 C5.87 23.98, 5.24 23.54, 4.66 23.06 C4.08 22.57, 3.54 22.03, 3.05 21.45 C2.57 20.87, 2.13 20.24, 1.75 19.58 C1.37 18.93, 1.05 18.23, 0.79 17.52 C0.53 16.81, 0.33 16.07, 0.2 15.32 C0.07 14.58, 0 13.81, 0 13.05 C0 12.3, 0.07 11.53, 0.2 10.79 C0.33 10.04, 0.53 9.3, 0.79 8.59 C1.05 7.88, 1.37 7.18, 1.75 6.53 C2.13 5.87, 2.57 5.24, 3.05 4.66 C3.54 4.08, 4.08 3.54, 4.66 3.05 C5.24 2.57, 5.87 2.13, 6.53 1.75 C7.18 1.37, 7.88 1.05, 8.59 0.79 C9.3 0.53, 10.04 0.33, 10.79 0.2 C11.53 0.07, 12.3 0, 13.05 0 C13.81 0, 14.58 0.07, 15.32 0.2 C16.07 0.33, 16.81 0.53, 17.52 0.79 C18.23 1.05, 18.93 1.37, 19.58 1.75 C20.24 2.13, 20.87 2.57, 21.45 3.05 C22.03 3.54, 22.57 4.08, 23.06 4.66 C23.54 5.24, 23.98 5.87, 24.36 6.53 C24.74 7.18, 25.06 7.88, 25.32 8.59 C25.58 9.3, 25.78 10.04, 25.91 10.79 C26.04 11.53, 26.08 12.68, 26.11 13.05 C26.14 13.43, 26.14 12.68, 26.11 13.05" stroke="none" stroke-width="0" fill="#1e1e1e"></path><path d="M26.11 13.05 C26.11 13.81, 26.04 14.58, 25.91 15.32 C25.78 16.07, 25.58 16.81, 25.32 17.52 C25.06 18.23, 24.74 18.93, 24.36 19.58 C23.98 20.24, 23.54 20.87, 23.06 21.45 C22.57 22.03, 22.03 22.57, 21.45 23.06 C20.87 23.54, 20.24 23.98, 19.58 24.36 C18.93 24.74, 18.23 25.06, 17.52 25.32 C16.81 25.58, 16.07 25.78, 15.32 25.91 C14.58 26.04, 13.81 26.11, 13.05 26.11 C12.3 26.11, 11.53 26.04, 10.79 25.91 C10.04 25.78, 9.3 25.58, 8.59 25.32 C7.88 25.06, 7.18 24.74, 6.53 24.36 C5.87 23.98, 5.24 23.54, 4.66 23.06 C4.08 22.57, 3.54 22.03, 3.05 21.45 C2.57 20.87, 2.13 20.24, 1.75 19.58 C1.37 18.93, 1.05 18.23, 0.79 17.52 C0.53 16.81, 0.33 16.07, 0.2 15.32 C0.07 14.58, 0 13.81, 0 13.05 C0 12.3, 0.07 11.53, 0.2 10.79 C0.33 10.04, 0.53 9.3, 0.79 8.59 C1.05 7.88, 1.37 7.18, 1.75 6.53 C2.13 5.87, 2.57 5.24, 3.05 4.66 C3.54 4.08, 4.08 3.54, 4.66 3.05 C5.24 2.57, 5.87 2.13, 6.53 1.75 C7.18 1.37, 7.88 1.05, 8.59 0.79 C9.3 0.53, 10.04 0.33, 10.79 0.2 C11.53 0.07, 12.3 0, 13.05 0 C13.81 0, 14.58 0.07, 15.32 0.2 C16.07 0.33, 16.81 0.53, 17.52 0.79 C18.23 1.05, 18.93 1.37, 19.58 1.75 C20.24 2.13, 20.87 2.57, 21.45 3.05 C22.03 3.54, 22.57 4.08, 23.06 4.66 C23.54 5.24, 23.98 5.87, 24.36 6.53 C24.74 7.18, 25.06 7.88, 25.32 8.59 C25.58 9.3, 25.78 10.04, 25.91 10.79 C26.04 11.53, 26.08 12.68, 26.11 13.05 C26.14 13.43, 26.14 12.68, 26.11 13.05" stroke="#ffffff" stroke-width="1" fill="none"></path></g><g stroke-linecap="round" transform="translate(659.9847617173316 511.78005122246464) rotate(0 13.054934380861596 13.054934380861596)"><path d="M26.11 13.05 C26.11 13.81, 26.04 14.58, 25.91 15.32 C25.78 16.07, 25.58 16.81, 25.32 17.52 C25.06 18.23, 24.74 18.93, 24.36 19.58 C23.98 20.24, 23.54 20.87, 23.06 21.45 C22.57 22.03, 22.03 22.57, 21.45 23.06 C20.87 23.54, 20.24 23.98, 19.58 24.36 C18.93 24.74, 18.23 25.06, 17.52 25.32 C16.81 25.58, 16.07 25.78, 15.32 25.91 C14.58 26.04, 13.81 26.11, 13.05 26.11 C12.3 26.11, 11.53 26.04, 10.79 25.91 C10.04 25.78, 9.3 25.58, 8.59 25.32 C7.88 25.06, 7.18 24.74, 6.53 24.36 C5.87 23.98, 5.24 23.54, 4.66 23.06 C4.08 22.57, 3.54 22.03, 3.05 21.45 C2.57 20.87, 2.13 20.24, 1.75 19.58 C1.37 18.93, 1.05 18.23, 0.79 17.52 C0.53 16.81, 0.33 16.07, 0.2 15.32 C0.07 14.58, 0 13.81, 0 13.05 C0 12.3, 0.07 11.53, 0.2 10.79 C0.33 10.04, 0.53 9.3, 0.79 8.59 C1.05 7.88, 1.37 7.18, 1.75 6.53 C2.13 5.87, 2.57 5.24, 3.05 4.66 C3.54 4.08, 4.08 3.54, 4.66 3.05 C5.24 2.57, 5.87 2.13, 6.53 1.75 C7.18 1.37, 7.88 1.05, 8.59 0.79 C9.3 0.53, 10.04 0.33, 10.79 0.2 C11.53 0.07, 12.3 0, 13.05 0 C13.81 0, 14.58 0.07, 15.32 0.2 C16.07 0.33, 16.81 0.53, 17.52 0.79 C18.23 1.05, 18.93 1.37, 19.58 1.75 C20.24 2.13, 20.87 2.57, 21.45 3.05 C22.03 3.54, 22.57 4.08, 23.06 4.66 C23.54 5.24, 23.98 5.87, 24.36 6.53 C24.74 7.18, 25.06 7.88, 25.32 8.59 C25.58 9.3, 25.78 10.04, 25.91 10.79 C26.04 11.53, 26.08 12.68, 26.11 13.05 C26.14 13.43, 26.14 12.68, 26.11 13.05" stroke="none" stroke-width="0" fill="#1e1e1e"></path><path d="M26.11 13.05 C26.11 13.81, 26.04 14.58, 25.91 15.32 C25.78 16.07, 25.58 16.81, 25.32 17.52 C25.06 18.23, 24.74 18.93, 24.36 19.58 C23.98 20.24, 23.54 20.87, 23.06 21.45 C22.57 22.03, 22.03 22.57, 21.45 23.06 C20.87 23.54, 20.24 23.98, 19.58 24.36 C18.93 24.74, 18.23 25.06, 17.52 25.32 C16.81 25.58, 16.07 25.78, 15.32 25.91 C14.58 26.04, 13.81 26.11, 13.05 26.11 C12.3 26.11, 11.53 26.04, 10.79 25.91 C10.04 25.78, 9.3 25.58, 8.59 25.32 C7.88 25.06, 7.18 24.74, 6.53 24.36 C5.87 23.98, 5.24 23.54, 4.66 23.06 C4.08 22.57, 3.54 22.03, 3.05 21.45 C2.57 20.87, 2.13 20.24, 1.75 19.58 C1.37 18.93, 1.05 18.23, 0.79 17.52 C0.53 16.81, 0.33 16.07, 0.2 15.32 C0.07 14.58, 0 13.81, 0 13.05 C0 12.3, 0.07 11.53, 0.2 10.79 C0.33 10.04, 0.53 9.3, 0.79 8.59 C1.05 7.88, 1.37 7.18, 1.75 6.53 C2.13 5.87, 2.57 5.24, 3.05 4.66 C3.54 4.08, 4.08 3.54, 4.66 3.05 C5.24 2.57, 5.87 2.13, 6.53 1.75 C7.18 1.37, 7.88 1.05, 8.59 0.79 C9.3 0.53, 10.04 0.33, 10.79 0.2 C11.53 0.07, 12.3 0, 13.05 0 C13.81 0, 14.58 0.07, 15.32 0.2 C16.07 0.33, 16.81 0.53, 17.52 0.79 C18.23 1.05, 18.93 1.37, 19.58 1.75 C20.24 2.13, 20.87 2.57, 21.45 3.05 C22.03 3.54, 22.57 4.08, 23.06 4.66 C23.54 5.24, 23.98 5.87, 24.36 6.53 C24.74 7.18, 25.06 7.88, 25.32 8.59 C25.58 9.3, 25.78 10.04, 25.91 10.79 C26.04 11.53, 26.08 12.68, 26.11 13.05 C26.14 13.43, 26.14 12.68, 26.11 13.05" stroke="#ffffff" stroke-width="1" fill="none"></path></g><g transform="translate(346.6281240348219 532.1023634833734) rotate(0 2.6666667461395264 12.286166856921795)"><text x="2.6666667461395264" y="17.22029146666151" font-family="Virgil, Segoe UI Emoji" font-size="19.657866971074785px" fill="#ffffff" text-anchor="middle" style="white-space: pre;" direction="ltr" dominant-baseline="alphabetic">1</text></g><g transform="translate(453.1570371818427 333.65388293082174) rotate(0 6.691666603088379 12.286166856921795)"><text x="6.691666603088379" y="17.22029146666151" font-family="Virgil, Segoe UI Emoji" font-size="19.657866971074785px" fill="#ffffff" text-anchor="middle" style="white-space: pre;" direction="ltr" dominant-baseline="alphabetic">3</text></g><g transform="translate(667.312749162028 513.3093630088708) rotate(0 6.991666793823242 12.286166856921795)"><text x="6.991666793823242" y="17.22029146666151" font-family="Virgil, Segoe UI Emoji" font-size="19.657866971074785px" fill="#ffffff" text-anchor="middle" style="white-space: pre;" direction="ltr" dominant-baseline="alphabetic">2</text></g></svg>