<svg version="1.1" xmlns="http://www.w3.org/2000/svg" viewBox="0 0 2145.4278307003215 1569.4190278424617" width="6436.283492100964" height="4708.2570835273855">
  <!-- svg-source:excalidraw -->
  
  <defs>
    <style class="style-fonts">
      @font-face {
        font-family: "Virgil";
        src: url("https://excalidraw.com/Virgil.woff2");
      }
      @font-face {
        font-family: "Cascadia";
        src: url("https://excalidraw.com/Cascadia.woff2");
      }
      @font-face {
        font-family: "Assistant";
        src: url("https://excalidraw.com/Assistant-Regular.woff2");
      }
    </style>
    
  </defs>
  <g stroke-opacity="0.6" fill-opacity="0.6" stroke-linecap="round" transform="translate(251.65446635182252 1184.5379523274614) rotate(0 753.7978090467786 88.84045606622749)"><path d="M32 0 C460.04 -0.73, 888.26 -2.28, 1475.6 0 C1492.05 1.42, 1511.79 15.6, 1507.6 32 C1506.83 68.8, 1504.69 107, 1507.6 145.68 C1506.11 165.77, 1498.36 182.77, 1475.6 177.68 C1008.43 166.13, 543.29 166.33, 32 177.68 C6.53 181.32, -3.1 166.9, 0 145.68 C0.42 118, -0.8 81.18, 0 32 C-1.04 7.06, 14.28 -0.71, 32 0" stroke="none" stroke-width="0" fill="#ffffff"></path><path d="M32 0 C522.91 3.69, 1012.13 4.67, 1475.6 0 M1475.6 0 C1498.36 3.31, 1505.19 10.01, 1507.6 32 M1507.6 32 C1509.63 66.1, 1508.88 96.36, 1507.6 145.68 M1507.6 145.68 C1507.54 170.26, 1497.5 178.9, 1475.6 177.68 M1475.6 177.68 C1092.07 188.4, 709.12 187.31, 32 177.68 M32 177.68 C11.34 181.44, -1.62 169.62, 0 145.68 M0 145.68 C-1.96 103.96, 0.77 64.6, 0 32 M0 32 C-2.07 7.63, 14.1 -3.38, 32 0" stroke="#1e1e1e" stroke-width="4.5" fill="none" stroke-dasharray="1.5 10"></path></g><g stroke-linecap="round" transform="translate(1357.2269518644816 186.58061054422933) rotate(0 44.3116167483131 47.30204764532175)"><path d="M88.62 47.3 C88.62 49.55, 88.47 51.81, 88.17 54.03 C87.87 56.25, 87.42 58.48, 86.83 60.63 C86.24 62.78, 85.49 64.91, 84.62 66.95 C83.75 68.99, 82.73 70.99, 81.59 72.88 C80.45 74.76, 79.18 76.58, 77.8 78.28 C76.42 79.97, 74.92 81.58, 73.33 83.05 C71.74 84.52, 70.04 85.88, 68.27 87.1 C66.5 88.31, 64.63 89.4, 62.72 90.33 C60.81 91.26, 58.81 92.06, 56.8 92.69 C54.78 93.32, 52.7 93.8, 50.62 94.12 C48.54 94.44, 46.41 94.6, 44.31 94.6 C42.21 94.6, 40.09 94.44, 38.01 94.12 C35.92 93.8, 33.84 93.32, 31.83 92.69 C29.81 92.06, 27.82 91.26, 25.9 90.33 C23.99 89.4, 22.12 88.31, 20.35 87.1 C18.59 85.88, 16.88 84.52, 15.29 83.05 C13.71 81.58, 12.2 79.97, 10.82 78.28 C9.45 76.58, 8.17 74.76, 7.03 72.88 C5.9 70.99, 4.88 68.99, 4 66.95 C3.13 64.91, 2.39 62.78, 1.79 60.63 C1.2 58.48, 0.75 56.25, 0.45 54.03 C0.15 51.81, 0 49.55, 0 47.3 C0 45.06, 0.15 42.79, 0.45 40.57 C0.75 38.35, 1.2 36.13, 1.79 33.98 C2.39 31.82, 3.13 29.69, 4 27.65 C4.88 25.61, 5.9 23.62, 7.03 21.73 C8.17 19.84, 9.45 18.02, 10.82 16.33 C12.2 14.63, 13.71 13.02, 15.29 11.55 C16.88 10.08, 18.59 8.72, 20.35 7.51 C22.12 6.3, 23.99 5.21, 25.9 4.27 C27.82 3.34, 29.81 2.55, 31.83 1.92 C33.84 1.28, 35.92 0.8, 38.01 0.48 C40.09 0.16, 42.21 0, 44.31 0 C46.41 0, 48.54 0.16, 50.62 0.48 C52.7 0.8, 54.78 1.28, 56.8 1.92 C58.81 2.55, 60.81 3.34, 62.72 4.27 C64.63 5.21, 66.5 6.3, 68.27 7.51 C70.04 8.72, 71.74 10.08, 73.33 11.55 C74.92 13.02, 76.42 14.63, 77.8 16.33 C79.18 18.02, 80.45 19.84, 81.59 21.73 C82.73 23.62, 83.75 25.61, 84.62 27.65 C85.49 29.69, 86.24 31.82, 86.83 33.98 C87.42 36.13, 87.87 38.35, 88.17 40.57 C88.47 42.79, 88.55 46.18, 88.62 47.3 C88.7 48.42, 88.7 46.18, 88.62 47.3" stroke="none" stroke-width="0" fill="#1971c2"></path><path d="M88.62 47.3 C88.62 49.55, 88.47 51.81, 88.17 54.03 C87.87 56.25, 87.42 58.48, 86.83 60.63 C86.24 62.78, 85.49 64.91, 84.62 66.95 C83.75 68.99, 82.73 70.99, 81.59 72.88 C80.45 74.76, 79.18 76.58, 77.8 78.28 C76.42 79.97, 74.92 81.58, 73.33 83.05 C71.74 84.52, 70.04 85.88, 68.27 87.1 C66.5 88.31, 64.63 89.4, 62.72 90.33 C60.81 91.26, 58.81 92.06, 56.8 92.69 C54.78 93.32, 52.7 93.8, 50.62 94.12 C48.54 94.44, 46.41 94.6, 44.31 94.6 C42.21 94.6, 40.09 94.44, 38.01 94.12 C35.92 93.8, 33.84 93.32, 31.83 92.69 C29.81 92.06, 27.82 91.26, 25.9 90.33 C23.99 89.4, 22.12 88.31, 20.35 87.1 C18.59 85.88, 16.88 84.52, 15.29 83.05 C13.71 81.58, 12.2 79.97, 10.82 78.28 C9.45 76.58, 8.17 74.76, 7.03 72.88 C5.9 70.99, 4.88 68.99, 4 66.95 C3.13 64.91, 2.39 62.78, 1.79 60.63 C1.2 58.48, 0.75 56.25, 0.45 54.03 C0.15 51.81, 0 49.55, 0 47.3 C0 45.06, 0.15 42.79, 0.45 40.57 C0.75 38.35, 1.2 36.13, 1.79 33.98 C2.39 31.82, 3.13 29.69, 4 27.65 C4.88 25.61, 5.9 23.62, 7.03 21.73 C8.17 19.84, 9.45 18.02, 10.82 16.33 C12.2 14.63, 13.71 13.02, 15.29 11.55 C16.88 10.08, 18.59 8.72, 20.35 7.51 C22.12 6.3, 23.99 5.21, 25.9 4.27 C27.82 3.34, 29.81 2.55, 31.83 1.92 C33.84 1.28, 35.92 0.8, 38.01 0.48 C40.09 0.16, 42.21 0, 44.31 0 C46.41 0, 48.54 0.16, 50.62 0.48 C52.7 0.8, 54.78 1.28, 56.8 1.92 C58.81 2.55, 60.81 3.34, 62.72 4.27 C64.63 5.21, 66.5 6.3, 68.27 7.51 C70.04 8.72, 71.74 10.08, 73.33 11.55 C74.92 13.02, 76.42 14.63, 77.8 16.33 C79.18 18.02, 80.45 19.84, 81.59 21.73 C82.73 23.62, 83.75 25.61, 84.62 27.65 C85.49 29.69, 86.24 31.82, 86.83 33.98 C87.42 36.13, 87.87 38.35, 88.17 40.57 C88.47 42.79, 88.55 46.18, 88.62 47.3 C88.7 48.42, 88.7 46.18, 88.62 47.3" stroke="#6741d9" stroke-width="2" fill="none"></path></g><g transform="translate(1376.8180231617835 205.54220239267784) rotate(0 24.887500762939453 28.39285714285711)"><text x="24.887500762939453" y="39.79542857142853" font-family="Virgil, Segoe UI Emoji" font-size="45.428571428571374px" fill="#ffffff" text-anchor="middle" style="white-space: pre;" direction="ltr" dominant-baseline="alphabetic">HI</text></g><g stroke-linecap="round" transform="translate(394.6797044869545 488.6317150004737) rotate(0 121.74913322025895 60.06864631377698)"><path d="M0 0 L243.5 0 L243.5 120.14 L0 120.14" stroke="none" stroke-width="0" fill="#6741d9"></path><path d="M0 0 C72.85 0, 145.7 0, 243.5 0 M0 0 C78.01 0, 156.01 0, 243.5 0 M243.5 0 C243.5 39.2, 243.5 78.4, 243.5 120.14 M243.5 0 C243.5 33.82, 243.5 67.65, 243.5 120.14 M243.5 120.14 C166.52 120.14, 89.54 120.14, 0 120.14 M243.5 120.14 C170.1 120.14, 96.7 120.14, 0 120.14 M0 120.14 C0 84.71, 0 49.28, 0 0 M0 120.14 C0 93.97, 0 67.8, 0 0" stroke="#1e1e1e" stroke-width="2" fill="none"></path></g><g transform="translate(431.50383465545565 526.2003613142507) rotate(0 84.92500305175781 22.5)"><text x="84.92500305175781" y="31.536" font-family="Virgil, Segoe UI Emoji" font-size="36px" fill="#ffffff" text-anchor="middle" style="white-space: pre;" direction="ltr" dominant-baseline="alphabetic">Stratégie</text></g><g stroke-linecap="round" transform="translate(401.9875694546445 1220.5149074640653) rotate(0 121.74913322025895 60.06864631377698)"><path d="M30.03 0 C87.4 0, 144.77 0, 213.46 0 C233.49 0, 243.5 10.01, 243.5 30.03 C243.5 45.51, 243.5 60.99, 243.5 90.1 C243.5 110.13, 233.49 120.14, 213.46 120.14 C173.78 120.14, 134.1 120.14, 30.03 120.14 C10.01 120.14, 0 110.13, 0 90.1 C0 73.53, 0 56.95, 0 30.03 C0 10.01, 10.01 0, 30.03 0" stroke="none" stroke-width="0" fill="#1971c2"></path><path d="M30.03 0 C66.78 0, 103.54 0, 213.46 0 M30.03 0 C68.23 0, 106.43 0, 213.46 0 M213.46 0 C233.49 0, 243.5 10.01, 243.5 30.03 M213.46 0 C233.49 0, 243.5 10.01, 243.5 30.03 M243.5 30.03 C243.5 45.21, 243.5 60.39, 243.5 90.1 M243.5 30.03 C243.5 52.07, 243.5 74.11, 243.5 90.1 M243.5 90.1 C243.5 110.13, 233.49 120.14, 213.46 120.14 M243.5 90.1 C243.5 110.13, 233.49 120.14, 213.46 120.14 M213.46 120.14 C173.63 120.14, 133.8 120.14, 30.03 120.14 M213.46 120.14 C165.79 120.14, 118.11 120.14, 30.03 120.14 M30.03 120.14 C10.01 120.14, 0 110.13, 0 90.1 M30.03 120.14 C10.01 120.14, 0 110.13, 0 90.1 M0 90.1 C0 76.98, 0 63.86, 0 30.03 M0 90.1 C0 67.74, 0 45.38, 0 30.03 M0 30.03 C0 10.01, 10.01 0, 30.03 0 M0 30.03 C0 10.01, 10.01 0, 30.03 0" stroke="#ffffff" stroke-width="2" fill="none"></path></g><g transform="translate(448.94920420078233 1258.0835537778426) rotate(0 74.7874984741211 22.5)"><text x="74.7874984741211" y="31.536" font-family="Virgil, Segoe UI Emoji" font-size="36px" fill="#ffffff" text-anchor="middle" style="white-space: pre;" direction="ltr" dominant-baseline="alphabetic">Analyses</text></g><g stroke-linecap="round" transform="translate(848.1134446888509 1219.7463673348257) rotate(0 121.74913322025895 60.06864631377698)"><path d="M30.03 0 C99.39 0, 168.74 0, 213.46 0 C233.49 0, 243.5 10.01, 243.5 30.03 C243.5 48.32, 243.5 66.61, 243.5 90.1 C243.5 110.13, 233.49 120.14, 213.46 120.14 C156.98 120.14, 100.49 120.14, 30.03 120.14 C10.01 120.14, 0 110.13, 0 90.1 C0 75.09, 0 60.08, 0 30.03 C0 10.01, 10.01 0, 30.03 0" stroke="none" stroke-width="0" fill="#1971c2"></path><path d="M30.03 0 C96.78 0, 163.52 0, 213.46 0 M30.03 0 C72.61 0, 115.18 0, 213.46 0 M213.46 0 C233.49 0, 243.5 10.01, 243.5 30.03 M213.46 0 C233.49 0, 243.5 10.01, 243.5 30.03 M243.5 30.03 C243.5 48.73, 243.5 67.43, 243.5 90.1 M243.5 30.03 C243.5 46.34, 243.5 62.64, 243.5 90.1 M243.5 90.1 C243.5 110.13, 233.49 120.14, 213.46 120.14 M243.5 90.1 C243.5 110.13, 233.49 120.14, 213.46 120.14 M213.46 120.14 C152.8 120.14, 92.13 120.14, 30.03 120.14 M213.46 120.14 C169.4 120.14, 125.33 120.14, 30.03 120.14 M30.03 120.14 C10.01 120.14, 0 110.13, 0 90.1 M30.03 120.14 C10.01 120.14, 0 110.13, 0 90.1 M0 90.1 C0 73.73, 0 57.36, 0 30.03 M0 90.1 C0 77.38, 0 64.67, 0 30.03 M0 30.03 C0 10.01, 10.01 0, 30.03 0 M0 30.03 C0 10.01, 10.01 0, 30.03 0" stroke="#ffffff" stroke-width="2" fill="none"></path></g><g transform="translate(901.9875779091099 1257.3150136486029) rotate(0 67.875 22.5)"><text x="67.875" y="31.536" font-family="Virgil, Segoe UI Emoji" font-size="36px" fill="#ffffff" text-anchor="middle" style="white-space: pre;" direction="ltr" dominant-baseline="alphabetic">Ateliers</text></g><g stroke-linecap="round" transform="translate(1358.8505606984972 1216.285692173276) rotate(0 121.74913322025895 60.06864631377698)"><path d="M30.03 0 C72.37 0, 114.71 0, 213.46 0 C233.49 0, 243.5 10.01, 243.5 30.03 C243.5 51.32, 243.5 72.61, 243.5 90.1 C243.5 110.13, 233.49 120.14, 213.46 120.14 C156.48 120.14, 99.49 120.14, 30.03 120.14 C10.01 120.14, 0 110.13, 0 90.1 C0 68.34, 0 46.58, 0 30.03 C0 10.01, 10.01 0, 30.03 0" stroke="none" stroke-width="0" fill="#1971c2"></path><path d="M30.03 0 C77.1 0, 124.16 0, 213.46 0 M30.03 0 C95.12 0, 160.2 0, 213.46 0 M213.46 0 C233.49 0, 243.5 10.01, 243.5 30.03 M213.46 0 C233.49 0, 243.5 10.01, 243.5 30.03 M243.5 30.03 C243.5 49.21, 243.5 68.38, 243.5 90.1 M243.5 30.03 C243.5 44.1, 243.5 58.16, 243.5 90.1 M243.5 90.1 C243.5 110.13, 233.49 120.14, 213.46 120.14 M243.5 90.1 C243.5 110.13, 233.49 120.14, 213.46 120.14 M213.46 120.14 C171.88 120.14, 130.31 120.14, 30.03 120.14 M213.46 120.14 C143.56 120.14, 73.65 120.14, 30.03 120.14 M30.03 120.14 C10.01 120.14, 0 110.13, 0 90.1 M30.03 120.14 C10.01 120.14, 0 110.13, 0 90.1 M0 90.1 C0 70.89, 0 51.67, 0 30.03 M0 90.1 C0 70.38, 0 50.66, 0 30.03 M0 30.03 C0 10.01, 10.01 0, 30.03 0 M0 30.03 C0 10.01, 10.01 0, 30.03 0" stroke="#ffffff" stroke-width="2" fill="none"></path></g><g transform="translate(1426.5496946816957 1253.8543384870532) rotate(0 54.04999923706055 22.5)"><text x="54.04999923706055" y="31.536" font-family="Virgil, Segoe UI Emoji" font-size="36px" fill="#ffffff" text-anchor="middle" style="white-space: pre;" direction="ltr" dominant-baseline="alphabetic">Tests</text></g><g stroke-linecap="round" transform="translate(852.1750962103779 592.6057472623927) rotate(0 121.74913322025941 60.068646313776924)"><path d="M0 0 L243.5 0 L243.5 120.14 L0 120.14" stroke="none" stroke-width="0" fill="#6741d9"></path><path d="M0 0 C57.04 0, 114.09 0, 243.5 0 M0 0 C65.87 0, 131.74 0, 243.5 0 M243.5 0 C243.5 35.73, 243.5 71.46, 243.5 120.14 M243.5 0 C243.5 34.52, 243.5 69.04, 243.5 120.14 M243.5 120.14 C182.28 120.14, 121.06 120.14, 0 120.14 M243.5 120.14 C173.92 120.14, 104.34 120.14, 0 120.14 M0 120.14 C0 73.11, 0 26.08, 0 0 M0 120.14 C0 77.51, 0 34.88, 0 0" stroke="#1e1e1e" stroke-width="2" fill="none"></path></g><g transform="translate(868.7617309565157 630.1743935761697) rotate(0 105.16249847412155 22.5)"><text x="105.1624984741211" y="31.536" font-family="Virgil, Segoe UI Emoji" font-size="36px" fill="#ffffff" text-anchor="middle" style="white-space: pre;" direction="ltr" dominant-baseline="alphabetic">Cycle projet</text></g><g stroke-linecap="round" transform="translate(1396.9320893198665 732.3794108621854) rotate(0 99.37436363408779 50)"><path d="M0 0 L198.75 0 L198.75 100 L0 100" stroke="none" stroke-width="0" fill="#6741d9"></path><path d="M0 0 C61.89 0, 123.78 0, 198.75 0 M0 0 C51.79 0, 103.59 0, 198.75 0 M198.75 0 C198.75 25.44, 198.75 50.88, 198.75 100 M198.75 0 C198.75 20.92, 198.75 41.84, 198.75 100 M198.75 100 C150.9 100, 103.05 100, 0 100 M198.75 100 C154.45 100, 110.15 100, 0 100 M0 100 C0 68.13, 0 36.27, 0 0 M0 100 C0 61.24, 0 22.48, 0 0" stroke="#1e1e1e" stroke-width="2" fill="none"></path></g><g transform="translate(1429.9564544798332 759.8794108621854) rotate(0 66.3499984741211 22.5)"><text x="66.3499984741211" y="31.536" font-family="Virgil, Segoe UI Emoji" font-size="36px" fill="#ffffff" text-anchor="middle" style="white-space: pre;" direction="ltr" dominant-baseline="alphabetic">Métiers</text></g><g stroke-opacity="0.6" fill-opacity="0.6" stroke-linecap="round" transform="translate(257.09389138412007 346.82025495784535) rotate(0 747.2351412044377 313.25558633100434)"><path d="M-0.22 0.63 C448.92 -5.13, 897.32 -2.97, 1493.45 0.78 M1494.93 0.34 C1497.66 249.35, 1497.99 496.69, 1495.99 625.18 M1492.93 626.03 C1068.12 619.18, 640.42 620.76, 0.17 627.8 M0.06 625.09 C4.51 415.18, 3.55 204.67, -0.04 -0.16" stroke="#1e1e1e" stroke-width="4.5" fill="none" stroke-dasharray="1.5 10"></path></g><g transform="translate(333.2493196667101 407.032558394715) rotate(0 104.02870163119678 25.66233871031983)"><text x="0" y="35.96833393638427" font-family="Virgil, Segoe UI Emoji" font-size="41.05974193651171px" fill="#1e1e1e" text-anchor="start" style="white-space: pre;" direction="ltr" dominant-baseline="alphabetic">Pourquoi ?</text></g><g transform="translate(457.3606445561836 618.4054846702556) rotate(0 59.16240936034774 22.32755131838769)"><text x="0" y="31.294295927852218" font-family="Virgil, Segoe UI Emoji" font-size="35.72408210942034px" fill="#1e1e1e" text-anchor="start" style="white-space: pre;" direction="ltr" dominant-baseline="alphabetic">Mission</text></g><g transform="translate(865.6315431900293 722.3795169321746) rotate(0 113.72499847412064 22.32755131838769)"><text x="0" y="31.294295927852218" font-family="Virgil, Segoe UI Emoji" font-size="35.72408210942034px" fill="#1e1e1e" text-anchor="start" style="white-space: pre;" direction="ltr" dominant-baseline="alphabetic">Plan d'action</text></g><g transform="translate(1412.6260132581383 837.5409339871791) rotate(0 84.7750015258789 22.32755131838769)"><text x="0" y="31.294295927852218" font-family="Virgil, Segoe UI Emoji" font-size="35.72408210942034px" fill="#1e1e1e" text-anchor="start" style="white-space: pre;" direction="ltr" dominant-baseline="alphabetic">Pratiques</text></g><g transform="translate(795.2196653073679 511.0065906566341) rotate(0 102.80000305175827 25.66233871031983)"><text x="0" y="35.96833393638427" font-family="Virgil, Segoe UI Emoji" font-size="41.05974193651171px" fill="#1e1e1e" text-anchor="start" style="white-space: pre;" direction="ltr" dominant-baseline="alphabetic">Comment ?</text></g><g transform="translate(1241.5276722377066 653.0177312150439) rotate(0 178.6374969482422 25.662338710319773)"><text x="0" y="35.96833393638427" font-family="Virgil, Segoe UI Emoji" font-size="41.05974193651171px" fill="#1e1e1e" text-anchor="start" style="white-space: pre;" direction="ltr" dominant-baseline="alphabetic">De quelle façon ?</text></g><g transform="translate(273.88753394958076 251.45926345704822) rotate(0 156.44296959018538 41.32467742063966)"><text x="0" y="57.92066787276854" font-family="Virgil, Segoe UI Emoji" font-size="66.11948387302344px" fill="#1e1e1e" text-anchor="start" style="white-space: pre;" direction="ltr" dominant-baseline="alphabetic">Organisme</text></g><g transform="translate(1480.5569848480818 181.0859421280445) rotate(0 247.3000030517578 92.5316773453439)"><text x="0" y="32.42309974180849" font-family="Virgil, Segoe UI Emoji" font-size="37.012670938137546px" fill="#1e1e1e" text-anchor="start" style="white-space: pre;" direction="ltr" dominant-baseline="alphabetic">Garant</text><text x="0" y="78.68893841448042" font-family="Virgil, Segoe UI Emoji" font-size="37.012670938137546px" fill="#1e1e1e" text-anchor="start" style="white-space: pre;" direction="ltr" dominant-baseline="alphabetic">du cadre</text><text x="0" y="124.95477708715237" font-family="Virgil, Segoe UI Emoji" font-size="37.012670938137546px" fill="#1e1e1e" text-anchor="start" style="white-space: pre;" direction="ltr" dominant-baseline="alphabetic">Social, manière et pratique</text><text x="0" y="171.2206157598243" font-family="Virgil, Segoe UI Emoji" font-size="37.012670938137546px" fill="#1e1e1e" text-anchor="start" style="white-space: pre;" direction="ltr" dominant-baseline="alphabetic"></text></g><g transform="translate(267.73472375572146 1098.7132585054337) rotate(0 88.42500305175781 41.32467742063966)"><text x="0" y="57.92066787276854" font-family="Virgil, Segoe UI Emoji" font-size="66.11948387302344px" fill="#1e1e1e" text-anchor="start" style="white-space: pre;" direction="ltr" dominant-baseline="alphabetic">Offre</text></g><g stroke-linecap="round"><g stroke-opacity="0.6" fill-opacity="0.6" transform="translate(1318.6990496049975 257.85914289172376) rotate(0 -358.2232710330841 83.03290872800773)"><path d="M1.87 -0.82 C-118.09 26.7, -597.67 138.81, -718.32 166.89" stroke="#1971c2" stroke-width="4.5" fill="none" stroke-dasharray="1.5 10"></path></g><g stroke-opacity="0.6" fill-opacity="0.6" transform="translate(1318.6990496049975 257.85914289172376) rotate(0 -358.2232710330841 83.03290872800773)"><path d="M-719.56 168.29 L-707.42 155.93 L-703.11 169.62 L-716.77 165.08" stroke="none" stroke-width="0" fill="#1971c2" fill-rule="evenodd"></path><path d="M-718.76 167.51 C-713.54 162.18, -708.98 158.97, -705.44 158.24 M-705.59 156.58 C-705.75 161.59, -704.19 165.58, -704.1 168.78 M-703.49 169.12 C-706.9 168.03, -710.95 168.64, -719.69 167.96 M-718.32 166.89 C-718.32 166.89, -718.32 166.89, -718.32 166.89" stroke="#1971c2" stroke-width="4.5" fill="none"></path></g></g><mask></mask><g stroke-linecap="round"><g stroke-opacity="0.6" fill-opacity="0.6" transform="translate(1345.5487731084022 275.75895856066074) rotate(0 -148.12682469043375 123.1063728823442)"><path d="M2.37 2.39 C-47.26 43.31, -247.92 203.23, -298.63 243.82" stroke="#1971c2" stroke-width="4.5" fill="none" stroke-dasharray="1.5 10"></path></g><g stroke-opacity="0.6" fill-opacity="0.6" transform="translate(1345.5487731084022 275.75895856066074) rotate(0 -148.12682469043375 123.1063728823442)"><path d="M-300.41 245.09 L-290.63 229.53 L-283.14 238.65 L-296.76 241.83" stroke="none" stroke-width="0" fill="#1971c2" fill-rule="evenodd"></path><path d="M-297.35 244.82 C-298.03 239.38, -295.07 236.35, -292.12 231.55 M-290.79 230.01 C-291.26 232.07, -287.4 235, -284.54 241.36 M-283.47 240 C-289.56 241.62, -291.67 242.05, -297.2 242.89 M-298.63 243.82 C-298.63 243.82, -298.63 243.82, -298.63 243.82" stroke="#1971c2" stroke-width="4.5" fill="none"></path></g></g><mask></mask><g stroke-linecap="round"><g stroke-opacity="0.6" fill-opacity="0.6" transform="translate(1408.1981279496822 311.5585898985347) rotate(0 24.308052005234458 152.2802105896988)"><path d="M2.46 0.25 C9.78 51.22, 39.11 254.09, 46.16 304.31" stroke="#1971c2" stroke-width="4.5" fill="none" stroke-dasharray="1.5 10"></path></g><g stroke-opacity="0.6" fill-opacity="0.6" transform="translate(1408.1981279496822 311.5585898985347) rotate(0 24.308052005234458 152.2802105896988)"><path d="M46.73 302.47 L39.67 290.15 L51.22 290.31 L44.52 302.74" stroke="none" stroke-width="0" fill="#1971c2" fill-rule="evenodd"></path><path d="M46.29 303.87 C44.32 298.39, 39.73 294.39, 37.75 290.88 M36.93 292.89 C42.93 291.76, 46.11 291.26, 49.63 288.78 M49.53 289.03 C48.71 295.64, 48.94 297.15, 47.43 305.15 M46.16 304.31 C46.16 304.31, 46.16 304.31, 46.16 304.31" stroke="#1971c2" stroke-width="4.5" fill="none"></path></g></g><mask></mask><g stroke-linecap="round"><g stroke-opacity="0.6" fill-opacity="0.6" transform="translate(507.40729442126394 728.5748451364312) rotate(0 0.6541655635473944 207.59981085846482)"><path d="M2.61 -2.75 C2.64 67.11, -1.01 347.89, -1.3 417.95" stroke="#1971c2" stroke-width="4.5" fill="none" stroke-dasharray="1.5 10"></path></g><g stroke-opacity="0.6" fill-opacity="0.6" transform="translate(507.40729442126394 728.5748451364312) rotate(0 0.6541655635473944 207.59981085846482)"><path d="M0.44 416.55 L-8.66 403.29 L6.24 402.8 L0.36 419.08" stroke="none" stroke-width="0" fill="#1971c2" fill-rule="evenodd"></path><path d="M-2.78 416.61 C-2.42 414.45, -4.13 411.65, -6.41 405.09 M-7.32 403.62 C-4.29 404.66, -1.38 405.28, 3.93 404.66 M5.33 403.34 C4.24 408.19, 1.11 410.53, -2.75 416.89 M-1.3 417.95 C-1.3 417.95, -1.3 417.95, -1.3 417.95" stroke="#1971c2" stroke-width="4.5" fill="none"></path></g></g><mask></mask><g stroke-linecap="round"><g stroke-opacity="0.6" fill-opacity="0.6" transform="translate(977.7623849462607 792.4175457826296) rotate(0 -2.4565050434757723 176.1688796464813)"><path d="M-1.01 -1.09 C-1.4 58.19, -2.85 294.96, -3.9 353.43" stroke="#1971c2" stroke-width="4.5" fill="none" stroke-dasharray="1.5 10"></path></g><g stroke-opacity="0.6" fill-opacity="0.6" transform="translate(977.7623849462607 792.4175457826296) rotate(0 -2.4565050434757723 176.1688796464813)"><path d="M-5.08 352.94 L-10.91 341.68 L2.3 338.66 L-5.88 352.82" stroke="none" stroke-width="0" fill="#1971c2" fill-rule="evenodd"></path><path d="M-4.49 354.23 C-4.18 349.04, -7.65 347.22, -11.12 340.33 M-9.37 340.92 C-3.9 340.66, 0.52 340.26, 1.96 340.68 M3.09 338.76 C-0.57 343.34, -2.08 349.32, -3.39 352.52 M-3.9 353.43 C-3.9 353.43, -3.9 353.43, -3.9 353.43" stroke="#1971c2" stroke-width="4.5" fill="none"></path></g></g><mask></mask><g stroke-linecap="round"><g stroke-opacity="0.6" fill-opacity="0.6" transform="translate(1488.4995009559052 907.4108120427169) rotate(0 -4.464092448770316 110.51322142031381)"><path d="M-2.16 -2.59 C-2.93 34.72, -6.19 185.73, -6.76 223.62" stroke="#1971c2" stroke-width="4.5" fill="none" stroke-dasharray="1.5 10"></path></g><g stroke-opacity="0.6" fill-opacity="0.6" transform="translate(1488.4995009559052 907.4108120427169) rotate(0 -4.464092448770316 110.51322142031381)"><path d="M-6.53 222.21 L-11.47 210.98 L-0.73 211.97 L-5.75 222.7" stroke="none" stroke-width="0" fill="#1971c2" fill-rule="evenodd"></path><path d="M-8.15 222.88 C-9.45 220.42, -10.19 217.5, -11.44 209.99 M-13.6 210.45 C-8.6 209.34, -4.24 210.23, -0.46 208.97 M1.16 209.34 C-2.62 214.55, -4.62 218.38, -6.52 223.41 M-6.76 223.62 C-6.76 223.62, -6.76 223.62, -6.76 223.62" stroke="#1971c2" stroke-width="4.5" fill="none"></path></g></g><mask></mask><g stroke-linecap="round" transform="translate(10 10) rotate(0 1062.7139153501607 774.7095139212308)"><path d="M32 0 C602.49 0, 1172.97 0, 2093.43 0 M2093.43 0 C2114.76 0, 2125.43 10.67, 2125.43 32 M2125.43 32 C2125.43 448.41, 2125.43 864.81, 2125.43 1517.42 M2125.43 1517.42 C2125.43 1538.75, 2114.76 1549.42, 2093.43 1549.42 M2093.43 1549.42 C1568.2 1549.42, 1042.98 1549.42, 32 1549.42 M32 1549.42 C10.67 1549.42, 0 1538.75, 0 1517.42 M0 1517.42 C0 1103.77, 0 690.13, 0 32 M0 32 C0 10.67, 10.67 0, 32 0" stroke="transparent" stroke-width="4.5" fill="none" stroke-dasharray="1.5 10"></path></g></svg>