<svg version="1.1" xmlns="http://www.w3.org/2000/svg" viewBox="0 0 1529.4457863725283 1207.76061878494" width="4588.337359117585" height="3623.2818563548203">
  <!-- svg-source:excalidraw -->
  
  <defs>
    <style class="style-fonts">
      @font-face {
        font-family: "Virgil";
        src: url("https://excalidraw.com/Virgil.woff2");
      }
      @font-face {
        font-family: "Cascadia";
        src: url("https://excalidraw.com/Cascadia.woff2");
      }
      @font-face {
        font-family: "Assistant";
        src: url("https://excalidraw.com/Assistant-Regular.woff2");
      }
    </style>
    
  </defs>
  <g stroke-linecap="round" transform="translate(915.8576854296252 630.623673586588) rotate(0 73.50347341060251 156.8579277937598)"><path d="M0 0 L147.01 0 L147.01 313.72 L0 313.72" stroke="none" stroke-width="0" fill="#6741d9"></path><path d="M0 0 C54.91 0, 109.83 0, 147.01 0 M147.01 0 C147.01 122.07, 147.01 244.15, 147.01 313.72 M147.01 313.72 C106.6 313.72, 66.19 313.72, 0 313.72 M0 313.72 C0 235.02, 0 156.33, 0 0" stroke="transparent" stroke-width="4.5" fill="none" stroke-dasharray="1.5 10"></path></g><g stroke-linecap="round" transform="translate(494.79031910322374 633.0345629690707) rotate(0 73.50347341060251 156.8579277937598)"><path d="M0 0 L147.01 0 L147.01 313.72 L0 313.72" stroke="none" stroke-width="0" fill="#6741d9"></path><path d="M0 0 C42.64 0, 85.29 0, 147.01 0 M147.01 0 C147.01 73.57, 147.01 147.14, 147.01 313.72 M147.01 313.72 C88.53 313.72, 30.05 313.72, 0 313.72 M0 313.72 C0 220.2, 0 126.68, 0 0" stroke="transparent" stroke-width="4.5" fill="none" stroke-dasharray="1.5 10"></path></g><g stroke-linecap="round" transform="translate(916.2656331864 324.15896145673537) rotate(0 73.50347341060251 156.8579277937598)"><path d="M0 0 L147.01 0 L147.01 313.72 L0 313.72" stroke="none" stroke-width="0" fill="#9775fa"></path><path d="M0 0 C55.09 0, 110.19 0, 147.01 0 M147.01 0 C147.01 123.16, 147.01 246.32, 147.01 313.72 M147.01 313.72 C110.26 313.72, 73.52 313.72, 0 313.72 M0 313.72 C0 231.73, 0 149.74, 0 0" stroke="transparent" stroke-width="4.5" fill="none" stroke-dasharray="1.5 10"></path></g><g stroke-linecap="round" transform="translate(494.1982668599985 319.3566180323653) rotate(0 73.50347341060251 156.8579277937598)"><path d="M0 0 L147.01 0 L147.01 313.72 L0 313.72" stroke="none" stroke-width="0" fill="#9775fa"></path><path d="M0 0 C54.28 0, 108.57 0, 147.01 0 M147.01 0 C147.01 118.01, 147.01 236.02, 147.01 313.72 M147.01 313.72 C97.83 313.72, 48.64 313.72, 0 313.72 M0 313.72 C0 216.85, 0 119.99, 0 0" stroke="transparent" stroke-width="4.5" fill="none" stroke-dasharray="1.5 10"></path></g><g stroke-linecap="round" transform="translate(494.79147163735706 566.3740651569074) rotate(0 73.50347341060251 32.794107814507356)"><path d="M0 0 L147.01 0 L147.01 65.59 L0 65.59" stroke="none" stroke-width="0" fill="#d0bfff"></path><path d="M0 0 C47.98 0, 95.95 0, 147.01 0 M147.01 0 C147.01 14.92, 147.01 29.84, 147.01 65.59 M147.01 65.59 C94.04 65.59, 41.07 65.59, 0 65.59 M0 65.59 C0 47.3, 0 29.01, 0 0" stroke="transparent" stroke-width="4.5" fill="none" stroke-dasharray="1.5 10"></path></g><g stroke-opacity="0.3" fill-opacity="0.3" stroke-linecap="round" transform="translate(494.3846764147147 880.6458740625853) rotate(0 73.50347341060251 32.79410781450724)"><path d="M0 0 L147.01 0 L147.01 65.59 L0 65.59" stroke="none" stroke-width="0" fill="#1971c2"></path><path d="M0 0 C49.34 0, 98.68 0, 147.01 0 M147.01 0 C147.01 20.42, 147.01 40.84, 147.01 65.59 M147.01 65.59 C114.44 65.59, 81.88 65.59, 0 65.59 M0 65.59 C0 51.76, 0 37.94, 0 0" stroke="transparent" stroke-width="4.5" fill="none" stroke-dasharray="1.5 10"></path></g><g stroke-linecap="round" transform="translate(915.8686064939848 506.00951054180905) rotate(0 73.50347341060251 66.12468631639604)"><path d="M0 0 L147.01 0 L147.01 132.25 L0 132.25" stroke="none" stroke-width="0" fill="#d0bfff"></path><path d="M0 0 C58.67 0, 117.35 0, 147.01 0 M147.01 0 C147.01 49.28, 147.01 98.57, 147.01 132.25 M147.01 132.25 C108.02 132.25, 69.02 132.25, 0 132.25 M0 132.25 C0 83.81, 0 35.36, 0 0" stroke="transparent" stroke-width="4.5" fill="none" stroke-dasharray="1.5 10"></path></g><g stroke-opacity="0.3" fill-opacity="0.3" stroke-linecap="round" transform="translate(916.4618112713424 820.281319447487) rotate(0 73.50347341060251 61.40139929825068)"><path d="M0 0 L147.01 0 L147.01 122.8 L0 122.8" stroke="none" stroke-width="0" fill="#1971c2"></path><path d="M0 0 C53.23 0, 106.46 0, 147.01 0 M147.01 0 C147.01 30.92, 147.01 61.85, 147.01 122.8 M147.01 122.8 C103.05 122.8, 59.1 122.8, 0 122.8 M0 122.8 C0 91.36, 0 59.92, 0 0" stroke="transparent" stroke-width="4.5" fill="none" stroke-dasharray="1.5 10"></path></g><g transform="translate(437.8116714303442 198.9238338134037) rotate(0 134.9250030517578 22.5)"><text x="0" y="31.536" font-family="Virgil, Segoe UI Emoji" font-size="36px" fill="#1e1e1e" text-anchor="start" style="white-space: pre;" direction="ltr" dominant-baseline="alphabetic">Alphabétisation</text></g><g transform="translate(115.18637544582634 477.60055312812483) rotate(0 87.42500305175781 22.5)"><text x="0" y="31.536" font-family="Virgil, Segoe UI Emoji" font-size="36px" fill="#1e1e1e" text-anchor="start" style="white-space: pre;" direction="ltr" dominant-baseline="alphabetic">Littéraire</text></g><g transform="translate(120.612841059532 765.1302036702568) rotate(0 75.6500015258789 22.5)"><text x="0" y="31.536" font-family="Virgil, Segoe UI Emoji" font-size="36px" fill="#1e1e1e" text-anchor="start" style="white-space: pre;" direction="ltr" dominant-baseline="alphabetic">Pratique</text></g><g transform="translate(860.2532160161309 176.4238338134037) rotate(0 134.9250030517578 45)"><text x="134.9250030517578" y="31.536" font-family="Virgil, Segoe UI Emoji" font-size="36px" fill="#1e1e1e" text-anchor="middle" style="white-space: pre;" direction="ltr" dominant-baseline="alphabetic">Alphabétisation</text><text x="134.9250030517578" y="76.536" font-family="Virgil, Segoe UI Emoji" font-size="36px" fill="#1e1e1e" text-anchor="middle" style="white-space: pre;" direction="ltr" dominant-baseline="alphabetic">Numérique</text></g><g stroke-linecap="round"><g stroke-opacity="0.5" fill-opacity="0.5" transform="translate(367.1424916016631 331.99098997296096) rotate(0 0 150.48542842994937)"><path d="M0 0 C0 92.47, 0 184.93, 0 300.97" stroke="#1e1e1e" stroke-width="4.5" fill="none" stroke-dasharray="1.5 10"></path></g></g><mask></mask><g stroke-linecap="round"><g stroke-opacity="0.5" fill-opacity="0.5" transform="translate(367.6508758812088 647.0821107860797) rotate(0 0 150.48542842994948)"><path d="M0 0 C0 89.95, 0 179.9, 0 300.97" stroke="#1e1e1e" stroke-width="4.5" fill="none" stroke-dasharray="1.5 10"></path></g></g><mask></mask><g stroke-linecap="round"><g stroke-opacity="0.5" fill-opacity="0.5" transform="translate(367.81661096125936 325.67069885225465) rotate(0 20.253568259978692 0)"><path d="M0 0 C9.05 0, 18.11 0, 40.51 0" stroke="#1e1e1e" stroke-width="4.5" fill="none" stroke-dasharray="1.5 10"></path></g></g><mask></mask><g stroke-linecap="round"><g stroke-opacity="0.5" fill-opacity="0.5" transform="translate(367.32499524080504 638.7618196653734) rotate(0 20.253568259978692 0)"><path d="M0 0 C11.21 0, 22.42 0, 40.51 0" stroke="#1e1e1e" stroke-width="4.5" fill="none" stroke-dasharray="1.5 10"></path></g></g><mask></mask><g stroke-linecap="round"><g stroke-opacity="0.5" fill-opacity="0.5" transform="translate(366.66764444030105 946.8585299981892) rotate(0 20.253568259978692 0)"><path d="M0 0 C12.44 0, 24.88 0, 40.51 0" stroke="#1e1e1e" stroke-width="4.5" fill="none" stroke-dasharray="1.5 10"></path></g></g><mask></mask><g stroke-linecap="round"><g stroke-opacity="0.5" fill-opacity="0.5" transform="translate(677.771683883595 565.2796173808647) rotate(0 97.21418729717561 -23.146235070756006)"><path d="M0 0 C59.03 -14.06, 118.06 -28.11, 194.43 -46.29" stroke="#1e1e1e" stroke-width="4.5" fill="none" stroke-dasharray="1.5 10"></path></g></g><mask></mask><g stroke-linecap="round"><g stroke-opacity="0.5" fill-opacity="0.5" transform="translate(677.3648886609526 879.5514262865427) rotate(0 97.21418729717561 -23.146235070755893)"><path d="M0 0 C46.03 -10.96, 92.06 -21.92, 194.43 -46.29" stroke="#1e1e1e" stroke-width="4.5" fill="none" stroke-dasharray="1.5 10"></path></g></g><mask></mask><g stroke-linecap="round"><g stroke-opacity="0.5" fill-opacity="0.5" transform="translate(681.4750814949157 630.0890755789819) rotate(0 97.21418729717561 0)"><path d="M0 0 C73.71 0, 147.41 0, 194.43 0" stroke="#1e1e1e" stroke-width="4.5" fill="none" stroke-dasharray="1.5 10"></path></g></g><mask></mask><g stroke-linecap="round"><g stroke-opacity="0.5" fill-opacity="0.5" transform="translate(681.0682862722733 944.3608844846599) rotate(0 97.21418729717561 0)"><path d="M0 0 C59.25 0, 118.5 0, 194.43 0" stroke="#1e1e1e" stroke-width="4.5" fill="none" stroke-dasharray="1.5 10"></path></g></g><mask></mask><g stroke-opacity="0.3" fill-opacity="0.3" stroke-linecap="round" transform="translate(10 10) rotate(0 754.7228931862642 593.88030939247)"><path d="M0 0 C302.13 0, 604.25 0, 1509.45 0 M1509.45 0 C1509.45 412.99, 1509.45 825.98, 1509.45 1187.76 M1509.45 1187.76 C1013.58 1187.76, 517.72 1187.76, 0 1187.76 M0 1187.76 C0 884.79, 0 581.81, 0 0" stroke="transparent" stroke-width="4.5" fill="none" stroke-dasharray="1.5 10"></path></g></svg>