<svg version="1.1" xmlns="http://www.w3.org/2000/svg" viewBox="0 0 1301.7334306794955 1056.4361706701434" width="1301.7334306794955" height="1056.4361706701434">
  <!-- svg-source:excalidraw -->
  
  
  <rect x="0" y="0" width="1301.7334306794955" height="1056.4361706701434" fill="transparent"></rect><g stroke-linecap="round" transform="translate(10 10) rotate(0 640.8667153397478 518.2180853350717)"><path d="M0 0 L1281.73 0 L1281.73 1036.44 L0 1036.44" stroke="none" stroke-width="0" fill="transparent"></path><path d="M0 0 C387.19 0, 774.39 0, 1281.73 0 M0 0 C444.42 0, 888.85 0, 1281.73 0 M1281.73 0 C1281.73 410.48, 1281.73 820.96, 1281.73 1036.44 M1281.73 0 C1281.73 370.3, 1281.73 740.6, 1281.73 1036.44 M1281.73 1036.44 C891.22 1036.44, 500.7 1036.44, 0 1036.44 M1281.73 1036.44 C866.35 1036.44, 450.96 1036.44, 0 1036.44 M0 1036.44 C0 724.74, 0 413.04, 0 0 M0 1036.44 C0 700.56, 0 364.69, 0 0" stroke="#ffffff" stroke-width="1" fill="none"></path></g><g stroke-linecap="round"><g transform="translate(239.12592227025334 623.690375614568) rotate(0 51.07274744646111 0)"><path d="M0 0 C22.42 0, 44.85 0, 102.15 0 M0 0 C35.24 0, 70.47 0, 102.15 0" stroke="#1e1e1e" stroke-width="2" fill="none"></path></g></g><mask></mask><g stroke-linecap="round"><g transform="translate(830.5743911258132 625.6544853579665) rotate(0 51.07274744646088 0)"><path d="M0 0 C36.61 0, 73.22 0, 102.15 0 M0 0 C25.87 0, 51.74 0, 102.15 0" stroke="#1e1e1e" stroke-width="2" fill="none"></path></g></g><mask></mask><g stroke-linecap="round"><g transform="translate(935.0261262083559 707.4266936193565) rotate(0 51.07274744646088 0)"><path d="M0 0 C31.99 0, 63.99 0, 102.15 0 M0 0 C36.09 0, 72.18 0, 102.15 0" stroke="#1e1e1e" stroke-width="2" fill="none"></path></g></g><mask></mask><g stroke-linecap="round"><g transform="translate(342.25835307347506 543.7779243862558) rotate(0 51.07274744646111 0)"><path d="M0 0 C30.68 0, 61.36 0, 102.15 0 M0 0 C22.15 0, 44.3 0, 102.15 0" stroke="#1e1e1e" stroke-width="2" fill="none"></path></g></g><mask></mask><g stroke-linecap="round"><g transform="translate(135.67158557093398 704.4061432557489) rotate(0 51.07274744646111 0)"><path d="M0 0 C33.66 0, 67.33 0, 102.15 0 M0 0 C32.81 0, 65.63 0, 102.15 0" stroke="#1e1e1e" stroke-width="2" fill="none"></path></g></g><mask></mask><g stroke-linecap="round"><g transform="translate(725.4531134635818 544.6795152089123) rotate(0 51.07274744646088 0)"><path d="M0 0 C29.79 0, 59.58 0, 102.15 0 M0 0 C36.05 0, 72.11 0, 102.15 0" stroke="#1e1e1e" stroke-width="2" fill="none"></path></g></g><mask></mask><g stroke-linecap="round"><g transform="translate(445.1579618191522 463.4869530656224) rotate(0 51.07274744646111 0)"><path d="M0 0 C35.42 0, 70.84 0, 102.15 0 M0 0 C40.45 0, 80.91 0, 102.15 0" stroke="#1e1e1e" stroke-width="2" fill="none"></path></g></g><mask></mask><g stroke-linecap="round"><g transform="translate(623.2776680359161 463.78682678692326) rotate(0 51.07274744646111 0)"><path d="M0 0 C35.24 0, 70.47 0, 102.15 0 M0 0 C40.21 0, 80.42 0, 102.15 0" stroke="#1e1e1e" stroke-width="2" fill="none"></path></g></g><mask></mask><g stroke-linecap="round"><g transform="translate(547.7422683616173 383.1959817449888) rotate(0 36.347766572650926 0)"><path d="M0 0 C18.41 0, 36.83 0, 72.7 0 M0 0 C21.74 0, 43.48 0, 72.7 0" stroke="#1e1e1e" stroke-width="2" fill="none"></path></g></g><mask></mask><g stroke-linecap="round"><g transform="translate(341.69983453154737 623.0580962293122) rotate(0 0 -39.62379808828928)"><path d="M0 0 C0 -28, 0 -56, 0 -79.25 M0 0 C0 -28.25, 0 -56.5, 0 -79.25" stroke="#1e1e1e" stroke-width="2" fill="none"></path></g></g><mask></mask><g stroke-linecap="round"><g transform="translate(829.0214491543802 625.0222059727107) rotate(0 0 -39.62379808828928)"><path d="M0 0 C0 -17.19, 0 -34.37, 0 -79.25 M0 0 C0 -28.28, 0 -56.55, 0 -79.25" stroke="#1e1e1e" stroke-width="2" fill="none"></path></g></g><mask></mask><g stroke-linecap="round"><g transform="translate(933.4731842369233 706.7944142341005) rotate(0 0 -39.62379808828928)"><path d="M0 0 C0 -25.46, 0 -50.92, 0 -79.25 M0 0 C0 -16.87, 0 -33.74, 0 -79.25" stroke="#1e1e1e" stroke-width="2" fill="none"></path></g></g><mask></mask><g stroke-linecap="round"><g transform="translate(444.8322653347682 543.145645001) rotate(0 0 -39.62379808828928)"><path d="M0 0 C0 -27.97, 0 -55.94, 0 -79.25 M0 0 C0 -26.35, 0 -52.69, 0 -79.25" stroke="#1e1e1e" stroke-width="2" fill="none"></path></g></g><mask></mask><g stroke-linecap="round"><g transform="translate(238.24549783222756 703.7738638704932) rotate(0 0 -39.62379808828928)"><path d="M0 0 C0 -31.39, 0 -62.77, 0 -79.25 M0 0 C0 -28.31, 0 -56.63, 0 -79.25" stroke="#1e1e1e" stroke-width="2" fill="none"></path></g></g><mask></mask><g stroke-linecap="round"><g transform="translate(724.9537879427749 543.4455187223009) rotate(0 0 -39.62379808828928)"><path d="M0 0 C0 -31.2, 0 -62.4, 0 -79.25 M0 0 C0 -20.36, 0 -40.72, 0 -79.25" stroke="#1e1e1e" stroke-width="2" fill="none"></path></g></g><mask></mask><g stroke-linecap="round"><g transform="translate(547.7318740804458 462.85467368036666) rotate(0 0 -39.62379808828928)"><path d="M0 0 C0 -23.7, 0 -47.4, 0 -79.25 M0 0 C0 -21.85, 0 -43.7, 0 -79.25" stroke="#1e1e1e" stroke-width="2" fill="none"></path></g></g><mask></mask><g stroke-linecap="round"><g transform="translate(621.9472704343079 463.2250050426521) rotate(0 0 -39.62379808828928)"><path d="M0 0 C0 -28.25, 0 -56.5, 0 -79.25 M0 0 C0 -20.61, 0 -41.21, 0 -79.25" stroke="#1e1e1e" stroke-width="2" fill="none"></path></g></g><mask></mask><g stroke-linecap="round"><g stroke-opacity="0.8" fill-opacity="0.8" transform="translate(607.9912689596727 795.4730036297549) rotate(0 127.96255113726852 2.159658621801782)"><path d="M0 0 C91.31 1.54, 182.63 3.08, 255.93 4.32 M0 0 C54.91 0.93, 109.83 1.85, 255.93 4.32" stroke="#2c79c2" stroke-width="2" fill="none"></path></g><g stroke-opacity="0.8" fill-opacity="0.8" transform="translate(607.9912689596727 795.4730036297549) rotate(0 127.96255113726852 2.159658621801782)"><path d="M232.29 12.47 C240.72 9.56, 249.16 6.65, 255.93 4.32 M232.29 12.47 C237.36 10.72, 242.43 8.97, 255.93 4.32" stroke="#2c79c2" stroke-width="2" fill="none"></path></g><g stroke-opacity="0.8" fill-opacity="0.8" transform="translate(607.9912689596727 795.4730036297549) rotate(0 127.96255113726852 2.159658621801782)"><path d="M232.58 -4.63 C240.91 -1.43, 249.24 1.76, 255.93 4.32 M232.58 -4.63 C237.59 -2.71, 242.6 -0.79, 255.93 4.32" stroke="#2c79c2" stroke-width="2" fill="none"></path></g></g><mask></mask><g stroke-linecap="round"><g stroke-opacity="0.8" fill-opacity="0.8" transform="translate(851.2566350976331 429.74039099294555) rotate(0 83.17276065334772 80.91263128776757)"><path d="M0 0 C35.41 34.45, 70.82 68.89, 166.35 161.83 M0 0 C33.61 32.7, 67.22 65.4, 166.35 161.83" stroke="#2c79c2" stroke-width="2" fill="none"></path></g><g stroke-opacity="0.8" fill-opacity="0.8" transform="translate(851.2566350976331 429.74039099294555) rotate(0 83.17276065334772 80.91263128776757)"><path d="M143.54 151.57 C148.4 153.76, 153.25 155.94, 166.35 161.83 M143.54 151.57 C148.15 153.64, 152.76 155.72, 166.35 161.83" stroke="#2c79c2" stroke-width="2" fill="none"></path></g><g stroke-opacity="0.8" fill-opacity="0.8" transform="translate(851.2566350976331 429.74039099294555) rotate(0 83.17276065334772 80.91263128776757)"><path d="M155.47 139.32 C157.78 144.11, 160.1 148.9, 166.35 161.83 M155.47 139.32 C157.67 143.86, 159.86 148.41, 166.35 161.83" stroke="#2c79c2" stroke-width="2" fill="none"></path></g></g><mask></mask><g stroke-opacity="0.8" fill-opacity="0.8" transform="translate(531.7165353543492 299.99883078628295) rotate(0 50.30833435058594 18.997130695210558)"><text x="50.30833435058594" y="26.626378382407097" font-family="Virgil, Segoe UI Emoji" font-size="30.39540911233687px" fill="#1e1e1e" text-anchor="middle" style="white-space: pre;" direction="ltr" dominant-baseline="alphabetic">Mission</text></g><g stroke-opacity="0.8" fill-opacity="0.8" transform="translate(761.7176451621453 821.7619357285453) rotate(0 29.360501174087403 12.845517208365322)"><text x="29.360501174087403" y="18.00427691924486" font-family="Virgil, Segoe UI Emoji" font-size="20.55282753338454px" fill="#1e1e1e" text-anchor="middle" style="white-space: pre;" direction="ltr" dominant-baseline="alphabetic">3 ans</text></g><g stroke-opacity="0.8" fill-opacity="0.8" transform="translate(652.175490841893 736.6037602212268) rotate(0.3467138520169967 71.06666564941406 19.056995315843665)"><text x="71.06666564941406" y="26.710284634686474" font-family="Virgil, Segoe UI Emoji" font-size="30.49119250534985px" fill="#1e1e1e" text-anchor="middle" style="white-space: pre;" direction="ltr" dominant-baseline="alphabetic">Formation</text></g><g stroke-opacity="0.8" fill-opacity="0.8" transform="translate(874.8020947991567 455.0538398874428) rotate(43.27743169329176 77.70833587646484 19.056995315843665)"><text x="77.70833587646484" y="26.710284634686474" font-family="Virgil, Segoe UI Emoji" font-size="30.49119250534985px" fill="#1e1e1e" text-anchor="middle" style="white-space: pre;" direction="ltr" dominant-baseline="alphabetic">Application</text></g><g stroke-linecap="round"><g stroke-opacity="0.8" fill-opacity="0.8" transform="translate(566.353288655137 854.1022588244089) rotate(0 228.43480501541376 2.5520663612378485)"><path d="M-0.96 0.09 C119.71 6.73, 236.81 5.62, 457.83 3.12 M-0.65 -0.12 C148.34 6.29, 296 6.5, 457.25 2.81" stroke="#1e1e1e" stroke-width="2" fill="none"></path></g><g stroke-opacity="0.8" fill-opacity="0.8" transform="translate(566.353288655137 854.1022588244089) rotate(0 228.43480501541376 2.5520663612378485)"><path d="M21.66 -7.98 C17.52 -4.53, 9.63 -4.59, 0.31 -0.47 M21.98 -8.2 C15.42 -4.78, 7.41 -3.16, -0.31 -0.8" stroke="#1e1e1e" stroke-width="2" fill="none"></path></g><g stroke-opacity="0.8" fill-opacity="0.8" transform="translate(566.353288655137 854.1022588244089) rotate(0 228.43480501541376 2.5520663612378485)"><path d="M21.37 9.12 C17.46 8.12, 9.64 3.62, 0.31 -0.47 M21.7 8.9 C15.13 6.78, 7.21 2.86, -0.31 -0.8" stroke="#1e1e1e" stroke-width="2" fill="none"></path></g><g stroke-opacity="0.8" fill-opacity="0.8" transform="translate(566.353288655137 854.1022588244089) rotate(0 228.43480501541376 2.5520663612378485)"><path d="M432.88 11.82 C441.1 11.28, 445.43 6.79, 458.51 2.25 M433.2 11.6 C441.77 9.94, 448.99 6.03, 457.9 1.92" stroke="#1e1e1e" stroke-width="2" fill="none"></path></g><g stroke-opacity="0.8" fill-opacity="0.8" transform="translate(566.353288655137 854.1022588244089) rotate(0 228.43480501541376 2.5520663612378485)"><path d="M432.61 -5.28 C440.76 -1.37, 445.16 -1.42, 458.51 2.25 M432.93 -5.5 C441.69 -1.61, 448.99 0.02, 457.9 1.92" stroke="#1e1e1e" stroke-width="2" fill="none"></path></g></g><mask></mask><g stroke-linecap="round"><g stroke-opacity="0.1" fill-opacity="0.1" transform="translate(584.6846533924513 360.13688768664497) rotate(0 0 274.4021537495736)"><path d="M0 0 C0 91.47, 0 457.34, 0 548.8" stroke="#1e1e1e" stroke-width="2.5" fill="none" stroke-dasharray="8 10"></path></g></g><mask></mask><g stroke-linecap="round" transform="translate(548.6964337795798 384.038601381053) rotate(0 36.4647179677404 162.62310548297967)"><path d="M0 0 L72.93 0 L72.93 325.25 L0 325.25" stroke="none" stroke-width="0" fill="#7950f2"></path><path d="M0 0 C16.59 0, 33.18 0, 72.93 0 M72.93 0 C72.93 93.2, 72.93 186.41, 72.93 325.25 M72.93 325.25 C55.68 325.25, 38.43 325.25, 0 325.25 M0 325.25 C0 247.59, 0 169.94, 0 0" stroke="transparent" stroke-width="2.5" fill="none" stroke-dasharray="8 10"></path></g><g stroke-linecap="round" transform="translate(621.2081544908601 465.43652912521543) rotate(0 51.494531601376366 121.87763679858483)"><path d="M0 0 L102.99 0 L102.99 243.76 L0 243.76" stroke="none" stroke-width="0" fill="#9775fa"></path><path d="M0 0 C23.09 0, 46.18 0, 102.99 0 M102.99 0 C102.99 93.91, 102.99 187.82, 102.99 243.76 M102.99 243.76 C70.67 243.76, 38.36 243.76, 0 243.76 M0 243.76 C0 190.19, 0 136.62, 0 0" stroke="transparent" stroke-width="1.5" fill="none" stroke-dasharray="8 9"></path></g><g stroke-linecap="round" transform="translate(724.2792105546964 545.0569197767168) rotate(0 51.86598122713531 82.06930727072893)"><path d="M0 0 L103.73 0 L103.73 164.14 L0 164.14" stroke="none" stroke-width="0" fill="#d0bfff"></path><path d="M0 0 C21.68 0, 43.36 0, 103.73 0 M103.73 0 C103.73 41.15, 103.73 82.31, 103.73 164.14 M103.73 164.14 C73.56 164.14, 43.4 164.14, 0 164.14 M0 164.14 C0 107.37, 0 50.6, 0 0" stroke="transparent" stroke-width="2.5" fill="none" stroke-dasharray="8 10"></path></g><g stroke-linecap="round" transform="translate(828.1866658804556 626.0086826570835) rotate(0 51.86598122713531 41.45834699718239)"><path d="M0 0 L103.73 0 L103.73 82.92 L0 82.92" stroke="none" stroke-width="0" fill="#f3f0ff"></path><path d="M0 0 C36.54 0, 73.08 0, 103.73 0 M103.73 0 C103.73 31.49, 103.73 62.99, 103.73 82.92 M103.73 82.92 C67.11 82.92, 30.48 82.92, 0 82.92 M0 82.92 C0 50.97, 0 19.03, 0 0" stroke="transparent" stroke-width="2.5" fill="none" stroke-dasharray="8 10"></path></g><g stroke-linecap="round"><g transform="translate(480.34557309059664 1019.3879746522057) rotate(0 0 0)"><path d="" stroke="transparent" stroke-width="1.5" fill="none" stroke-dasharray="8 9"></path></g></g><mask></mask><g stroke-opacity="0.8" fill-opacity="1" transform="translate(249.79293968514594 633.2423602695228) rotate(0 92.03333282470703 32.011742789054324)"><text x="92.03333282470703" y="22.433829346569265" font-family="Virgil, Segoe UI Emoji" font-size="25.609394231243453px" fill="#ffffff" text-anchor="middle" style="white-space: pre;" direction="ltr" dominant-baseline="alphabetic">Champ </text><text x="92.03333282470703" y="54.44557213562358" font-family="Virgil, Segoe UI Emoji" font-size="25.609394231243453px" fill="#ffffff" text-anchor="middle" style="white-space: pre;" direction="ltr" dominant-baseline="alphabetic">de Compétence</text></g><g transform="translate(293.85476895127476 148.68212258056337) rotate(0 296.0083312988281 53.359586884362216)"><text x="296.0083312988281" y="37.39439848856105" font-family="Virgil, Segoe UI Emoji" font-size="42.68766950748979px" fill="#1e1e1e" text-anchor="middle" style="white-space: pre;" direction="ltr" dominant-baseline="alphabetic">Vision réaliste</text><text x="296.0083312988281" y="90.75398537292328" font-family="Virgil, Segoe UI Emoji" font-size="42.68766950748979px" fill="#1e1e1e" text-anchor="middle" style="white-space: pre;" direction="ltr" dominant-baseline="alphabetic">de la montée en compétence</text></g><g stroke-linecap="round" transform="translate(1065.0797503961162 677.2506330731983) rotate(0 57.548527281849374 18.564041058661132)"><path d="M0 0 L115.1 0 L115.1 37.13 L0 37.13" stroke="none" stroke-width="0" fill="#1e1e1e"></path><path d="M0 0 C30.61 0, 61.22 0, 115.1 0 M0 0 C26.55 0, 53.1 0, 115.1 0 M115.1 0 C115.1 7.84, 115.1 15.69, 115.1 37.13 M115.1 0 C115.1 12.79, 115.1 25.58, 115.1 37.13 M115.1 37.13 C79.45 37.13, 43.8 37.13, 0 37.13 M115.1 37.13 C78.59 37.13, 42.08 37.13, 0 37.13 M0 37.13 C0 25.7, 0 14.27, 0 0 M0 37.13 C0 25.25, 0 13.38, 0 0" stroke="#1e1e1e" stroke-width="1" fill="none"></path></g><g transform="translate(1073.6367727353017 684.6327435743249) rotate(0 50.766666412353516 12.286166856921795)"><text x="50.766666412353516" y="17.22029146666151" font-family="Virgil, Segoe UI Emoji" font-size="19.657866971074785px" fill="#ffffff" text-anchor="middle" style="white-space: pre;" direction="ltr" dominant-baseline="alphabetic">Conformité</text></g><g stroke-linecap="round" transform="translate(574.5003840896152 667.0003365593243) rotate(0 13.054934380861596 13.054934380861596)"><path d="M26.11 13.05 C26.11 13.81, 26.04 14.58, 25.91 15.32 C25.78 16.07, 25.58 16.81, 25.32 17.52 C25.06 18.23, 24.74 18.93, 24.36 19.58 C23.98 20.24, 23.54 20.87, 23.06 21.45 C22.57 22.03, 22.03 22.57, 21.45 23.06 C20.87 23.54, 20.24 23.98, 19.58 24.36 C18.93 24.74, 18.23 25.06, 17.52 25.32 C16.81 25.58, 16.07 25.78, 15.32 25.91 C14.58 26.04, 13.81 26.11, 13.05 26.11 C12.3 26.11, 11.53 26.04, 10.79 25.91 C10.04 25.78, 9.3 25.58, 8.59 25.32 C7.88 25.06, 7.18 24.74, 6.53 24.36 C5.87 23.98, 5.24 23.54, 4.66 23.06 C4.08 22.57, 3.54 22.03, 3.05 21.45 C2.57 20.87, 2.13 20.24, 1.75 19.58 C1.37 18.93, 1.05 18.23, 0.79 17.52 C0.53 16.81, 0.33 16.07, 0.2 15.32 C0.07 14.58, 0 13.81, 0 13.05 C0 12.3, 0.07 11.53, 0.2 10.79 C0.33 10.04, 0.53 9.3, 0.79 8.59 C1.05 7.88, 1.37 7.18, 1.75 6.53 C2.13 5.87, 2.57 5.24, 3.05 4.66 C3.54 4.08, 4.08 3.54, 4.66 3.05 C5.24 2.57, 5.87 2.13, 6.53 1.75 C7.18 1.37, 7.88 1.05, 8.59 0.79 C9.3 0.53, 10.04 0.33, 10.79 0.2 C11.53 0.07, 12.3 0, 13.05 0 C13.81 0, 14.58 0.07, 15.32 0.2 C16.07 0.33, 16.81 0.53, 17.52 0.79 C18.23 1.05, 18.93 1.37, 19.58 1.75 C20.24 2.13, 20.87 2.57, 21.45 3.05 C22.03 3.54, 22.57 4.08, 23.06 4.66 C23.54 5.24, 23.98 5.87, 24.36 6.53 C24.74 7.18, 25.06 7.88, 25.32 8.59 C25.58 9.3, 25.78 10.04, 25.91 10.79 C26.04 11.53, 26.08 12.68, 26.11 13.05 C26.14 13.43, 26.14 12.68, 26.11 13.05" stroke="none" stroke-width="0" fill="#1e1e1e"></path><path d="M26.11 13.05 C26.11 13.81, 26.04 14.58, 25.91 15.32 C25.78 16.07, 25.58 16.81, 25.32 17.52 C25.06 18.23, 24.74 18.93, 24.36 19.58 C23.98 20.24, 23.54 20.87, 23.06 21.45 C22.57 22.03, 22.03 22.57, 21.45 23.06 C20.87 23.54, 20.24 23.98, 19.58 24.36 C18.93 24.74, 18.23 25.06, 17.52 25.32 C16.81 25.58, 16.07 25.78, 15.32 25.91 C14.58 26.04, 13.81 26.11, 13.05 26.11 C12.3 26.11, 11.53 26.04, 10.79 25.91 C10.04 25.78, 9.3 25.58, 8.59 25.32 C7.88 25.06, 7.18 24.74, 6.53 24.36 C5.87 23.98, 5.24 23.54, 4.66 23.06 C4.08 22.57, 3.54 22.03, 3.05 21.45 C2.57 20.87, 2.13 20.24, 1.75 19.58 C1.37 18.93, 1.05 18.23, 0.79 17.52 C0.53 16.81, 0.33 16.07, 0.2 15.32 C0.07 14.58, 0 13.81, 0 13.05 C0 12.3, 0.07 11.53, 0.2 10.79 C0.33 10.04, 0.53 9.3, 0.79 8.59 C1.05 7.88, 1.37 7.18, 1.75 6.53 C2.13 5.87, 2.57 5.24, 3.05 4.66 C3.54 4.08, 4.08 3.54, 4.66 3.05 C5.24 2.57, 5.87 2.13, 6.53 1.75 C7.18 1.37, 7.88 1.05, 8.59 0.79 C9.3 0.53, 10.04 0.33, 10.79 0.2 C11.53 0.07, 12.3 0, 13.05 0 C13.81 0, 14.58 0.07, 15.32 0.2 C16.07 0.33, 16.81 0.53, 17.52 0.79 C18.23 1.05, 18.93 1.37, 19.58 1.75 C20.24 2.13, 20.87 2.57, 21.45 3.05 C22.03 3.54, 22.57 4.08, 23.06 4.66 C23.54 5.24, 23.98 5.87, 24.36 6.53 C24.74 7.18, 25.06 7.88, 25.32 8.59 C25.58 9.3, 25.78 10.04, 25.91 10.79 C26.04 11.53, 26.08 12.68, 26.11 13.05 C26.14 13.43, 26.14 12.68, 26.11 13.05" stroke="#ffffff" stroke-width="1" fill="none"></path></g><g stroke-linecap="round" transform="translate(657.9136554072643 668.8444571143039) rotate(0 13.054934380861596 13.054934380861596)"><path d="M26.11 13.05 C26.11 13.81, 26.04 14.58, 25.91 15.32 C25.78 16.07, 25.58 16.81, 25.32 17.52 C25.06 18.23, 24.74 18.93, 24.36 19.58 C23.98 20.24, 23.54 20.87, 23.06 21.45 C22.57 22.03, 22.03 22.57, 21.45 23.06 C20.87 23.54, 20.24 23.98, 19.58 24.36 C18.93 24.74, 18.23 25.06, 17.52 25.32 C16.81 25.58, 16.07 25.78, 15.32 25.91 C14.58 26.04, 13.81 26.11, 13.05 26.11 C12.3 26.11, 11.53 26.04, 10.79 25.91 C10.04 25.78, 9.3 25.58, 8.59 25.32 C7.88 25.06, 7.18 24.74, 6.53 24.36 C5.87 23.98, 5.24 23.54, 4.66 23.06 C4.08 22.57, 3.54 22.03, 3.05 21.45 C2.57 20.87, 2.13 20.24, 1.75 19.58 C1.37 18.93, 1.05 18.23, 0.79 17.52 C0.53 16.81, 0.33 16.07, 0.2 15.32 C0.07 14.58, 0 13.81, 0 13.05 C0 12.3, 0.07 11.53, 0.2 10.79 C0.33 10.04, 0.53 9.3, 0.79 8.59 C1.05 7.88, 1.37 7.18, 1.75 6.53 C2.13 5.87, 2.57 5.24, 3.05 4.66 C3.54 4.08, 4.08 3.54, 4.66 3.05 C5.24 2.57, 5.87 2.13, 6.53 1.75 C7.18 1.37, 7.88 1.05, 8.59 0.79 C9.3 0.53, 10.04 0.33, 10.79 0.2 C11.53 0.07, 12.3 0, 13.05 0 C13.81 0, 14.58 0.07, 15.32 0.2 C16.07 0.33, 16.81 0.53, 17.52 0.79 C18.23 1.05, 18.93 1.37, 19.58 1.75 C20.24 2.13, 20.87 2.57, 21.45 3.05 C22.03 3.54, 22.57 4.08, 23.06 4.66 C23.54 5.24, 23.98 5.87, 24.36 6.53 C24.74 7.18, 25.06 7.88, 25.32 8.59 C25.58 9.3, 25.78 10.04, 25.91 10.79 C26.04 11.53, 26.08 12.68, 26.11 13.05 C26.14 13.43, 26.14 12.68, 26.11 13.05" stroke="none" stroke-width="0" fill="#1e1e1e"></path><path d="M26.11 13.05 C26.11 13.81, 26.04 14.58, 25.91 15.32 C25.78 16.07, 25.58 16.81, 25.32 17.52 C25.06 18.23, 24.74 18.93, 24.36 19.58 C23.98 20.24, 23.54 20.87, 23.06 21.45 C22.57 22.03, 22.03 22.57, 21.45 23.06 C20.87 23.54, 20.24 23.98, 19.58 24.36 C18.93 24.74, 18.23 25.06, 17.52 25.32 C16.81 25.58, 16.07 25.78, 15.32 25.91 C14.58 26.04, 13.81 26.11, 13.05 26.11 C12.3 26.11, 11.53 26.04, 10.79 25.91 C10.04 25.78, 9.3 25.58, 8.59 25.32 C7.88 25.06, 7.18 24.74, 6.53 24.36 C5.87 23.98, 5.24 23.54, 4.66 23.06 C4.08 22.57, 3.54 22.03, 3.05 21.45 C2.57 20.87, 2.13 20.24, 1.75 19.58 C1.37 18.93, 1.05 18.23, 0.79 17.52 C0.53 16.81, 0.33 16.07, 0.2 15.32 C0.07 14.58, 0 13.81, 0 13.05 C0 12.3, 0.07 11.53, 0.2 10.79 C0.33 10.04, 0.53 9.3, 0.79 8.59 C1.05 7.88, 1.37 7.18, 1.75 6.53 C2.13 5.87, 2.57 5.24, 3.05 4.66 C3.54 4.08, 4.08 3.54, 4.66 3.05 C5.24 2.57, 5.87 2.13, 6.53 1.75 C7.18 1.37, 7.88 1.05, 8.59 0.79 C9.3 0.53, 10.04 0.33, 10.79 0.2 C11.53 0.07, 12.3 0, 13.05 0 C13.81 0, 14.58 0.07, 15.32 0.2 C16.07 0.33, 16.81 0.53, 17.52 0.79 C18.23 1.05, 18.93 1.37, 19.58 1.75 C20.24 2.13, 20.87 2.57, 21.45 3.05 C22.03 3.54, 22.57 4.08, 23.06 4.66 C23.54 5.24, 23.98 5.87, 24.36 6.53 C24.74 7.18, 25.06 7.88, 25.32 8.59 C25.58 9.3, 25.78 10.04, 25.91 10.79 C26.04 11.53, 26.08 12.68, 26.11 13.05 C26.14 13.43, 26.14 12.68, 26.11 13.05" stroke="#ffffff" stroke-width="1" fill="none"></path></g><g stroke-linecap="round" transform="translate(761.1200519680842 673.033584165951) rotate(0 13.054934380861596 13.054934380861596)"><path d="M26.11 13.05 C26.11 13.81, 26.04 14.58, 25.91 15.32 C25.78 16.07, 25.58 16.81, 25.32 17.52 C25.06 18.23, 24.74 18.93, 24.36 19.58 C23.98 20.24, 23.54 20.87, 23.06 21.45 C22.57 22.03, 22.03 22.57, 21.45 23.06 C20.87 23.54, 20.24 23.98, 19.58 24.36 C18.93 24.74, 18.23 25.06, 17.52 25.32 C16.81 25.58, 16.07 25.78, 15.32 25.91 C14.58 26.04, 13.81 26.11, 13.05 26.11 C12.3 26.11, 11.53 26.04, 10.79 25.91 C10.04 25.78, 9.3 25.58, 8.59 25.32 C7.88 25.06, 7.18 24.74, 6.53 24.36 C5.87 23.98, 5.24 23.54, 4.66 23.06 C4.08 22.57, 3.54 22.03, 3.05 21.45 C2.57 20.87, 2.13 20.24, 1.75 19.58 C1.37 18.93, 1.05 18.23, 0.79 17.52 C0.53 16.81, 0.33 16.07, 0.2 15.32 C0.07 14.58, 0 13.81, 0 13.05 C0 12.3, 0.07 11.53, 0.2 10.79 C0.33 10.04, 0.53 9.3, 0.79 8.59 C1.05 7.88, 1.37 7.18, 1.75 6.53 C2.13 5.87, 2.57 5.24, 3.05 4.66 C3.54 4.08, 4.08 3.54, 4.66 3.05 C5.24 2.57, 5.87 2.13, 6.53 1.75 C7.18 1.37, 7.88 1.05, 8.59 0.79 C9.3 0.53, 10.04 0.33, 10.79 0.2 C11.53 0.07, 12.3 0, 13.05 0 C13.81 0, 14.58 0.07, 15.32 0.2 C16.07 0.33, 16.81 0.53, 17.52 0.79 C18.23 1.05, 18.93 1.37, 19.58 1.75 C20.24 2.13, 20.87 2.57, 21.45 3.05 C22.03 3.54, 22.57 4.08, 23.06 4.66 C23.54 5.24, 23.98 5.87, 24.36 6.53 C24.74 7.18, 25.06 7.88, 25.32 8.59 C25.58 9.3, 25.78 10.04, 25.91 10.79 C26.04 11.53, 26.08 12.68, 26.11 13.05 C26.14 13.43, 26.14 12.68, 26.11 13.05" stroke="none" stroke-width="0" fill="#1e1e1e"></path><path d="M26.11 13.05 C26.11 13.81, 26.04 14.58, 25.91 15.32 C25.78 16.07, 25.58 16.81, 25.32 17.52 C25.06 18.23, 24.74 18.93, 24.36 19.58 C23.98 20.24, 23.54 20.87, 23.06 21.45 C22.57 22.03, 22.03 22.57, 21.45 23.06 C20.87 23.54, 20.24 23.98, 19.58 24.36 C18.93 24.74, 18.23 25.06, 17.52 25.32 C16.81 25.58, 16.07 25.78, 15.32 25.91 C14.58 26.04, 13.81 26.11, 13.05 26.11 C12.3 26.11, 11.53 26.04, 10.79 25.91 C10.04 25.78, 9.3 25.58, 8.59 25.32 C7.88 25.06, 7.18 24.74, 6.53 24.36 C5.87 23.98, 5.24 23.54, 4.66 23.06 C4.08 22.57, 3.54 22.03, 3.05 21.45 C2.57 20.87, 2.13 20.24, 1.75 19.58 C1.37 18.93, 1.05 18.23, 0.79 17.52 C0.53 16.81, 0.33 16.07, 0.2 15.32 C0.07 14.58, 0 13.81, 0 13.05 C0 12.3, 0.07 11.53, 0.2 10.79 C0.33 10.04, 0.53 9.3, 0.79 8.59 C1.05 7.88, 1.37 7.18, 1.75 6.53 C2.13 5.87, 2.57 5.24, 3.05 4.66 C3.54 4.08, 4.08 3.54, 4.66 3.05 C5.24 2.57, 5.87 2.13, 6.53 1.75 C7.18 1.37, 7.88 1.05, 8.59 0.79 C9.3 0.53, 10.04 0.33, 10.79 0.2 C11.53 0.07, 12.3 0, 13.05 0 C13.81 0, 14.58 0.07, 15.32 0.2 C16.07 0.33, 16.81 0.53, 17.52 0.79 C18.23 1.05, 18.93 1.37, 19.58 1.75 C20.24 2.13, 20.87 2.57, 21.45 3.05 C22.03 3.54, 22.57 4.08, 23.06 4.66 C23.54 5.24, 23.98 5.87, 24.36 6.53 C24.74 7.18, 25.06 7.88, 25.32 8.59 C25.58 9.3, 25.78 10.04, 25.91 10.79 C26.04 11.53, 26.08 12.68, 26.11 13.05 C26.14 13.43, 26.14 12.68, 26.11 13.05" stroke="#ffffff" stroke-width="1" fill="none"></path></g><g stroke-linecap="round" transform="translate(871.3460372519585 667.0885410526073) rotate(0 13.054934380861596 13.054934380861596)"><path d="M26.11 13.05 C26.11 13.81, 26.04 14.58, 25.91 15.32 C25.78 16.07, 25.58 16.81, 25.32 17.52 C25.06 18.23, 24.74 18.93, 24.36 19.58 C23.98 20.24, 23.54 20.87, 23.06 21.45 C22.57 22.03, 22.03 22.57, 21.45 23.06 C20.87 23.54, 20.24 23.98, 19.58 24.36 C18.93 24.74, 18.23 25.06, 17.52 25.32 C16.81 25.58, 16.07 25.78, 15.32 25.91 C14.58 26.04, 13.81 26.11, 13.05 26.11 C12.3 26.11, 11.53 26.04, 10.79 25.91 C10.04 25.78, 9.3 25.58, 8.59 25.32 C7.88 25.06, 7.18 24.74, 6.53 24.36 C5.87 23.98, 5.24 23.54, 4.66 23.06 C4.08 22.57, 3.54 22.03, 3.05 21.45 C2.57 20.87, 2.13 20.24, 1.75 19.58 C1.37 18.93, 1.05 18.23, 0.79 17.52 C0.53 16.81, 0.33 16.07, 0.2 15.32 C0.07 14.58, 0 13.81, 0 13.05 C0 12.3, 0.07 11.53, 0.2 10.79 C0.33 10.04, 0.53 9.3, 0.79 8.59 C1.05 7.88, 1.37 7.18, 1.75 6.53 C2.13 5.87, 2.57 5.24, 3.05 4.66 C3.54 4.08, 4.08 3.54, 4.66 3.05 C5.24 2.57, 5.87 2.13, 6.53 1.75 C7.18 1.37, 7.88 1.05, 8.59 0.79 C9.3 0.53, 10.04 0.33, 10.79 0.2 C11.53 0.07, 12.3 0, 13.05 0 C13.81 0, 14.58 0.07, 15.32 0.2 C16.07 0.33, 16.81 0.53, 17.52 0.79 C18.23 1.05, 18.93 1.37, 19.58 1.75 C20.24 2.13, 20.87 2.57, 21.45 3.05 C22.03 3.54, 22.57 4.08, 23.06 4.66 C23.54 5.24, 23.98 5.87, 24.36 6.53 C24.74 7.18, 25.06 7.88, 25.32 8.59 C25.58 9.3, 25.78 10.04, 25.91 10.79 C26.04 11.53, 26.08 12.68, 26.11 13.05 C26.14 13.43, 26.14 12.68, 26.11 13.05" stroke="none" stroke-width="0" fill="#1e1e1e"></path><path d="M26.11 13.05 C26.11 13.81, 26.04 14.58, 25.91 15.32 C25.78 16.07, 25.58 16.81, 25.32 17.52 C25.06 18.23, 24.74 18.93, 24.36 19.58 C23.98 20.24, 23.54 20.87, 23.06 21.45 C22.57 22.03, 22.03 22.57, 21.45 23.06 C20.87 23.54, 20.24 23.98, 19.58 24.36 C18.93 24.74, 18.23 25.06, 17.52 25.32 C16.81 25.58, 16.07 25.78, 15.32 25.91 C14.58 26.04, 13.81 26.11, 13.05 26.11 C12.3 26.11, 11.53 26.04, 10.79 25.91 C10.04 25.78, 9.3 25.58, 8.59 25.32 C7.88 25.06, 7.18 24.74, 6.53 24.36 C5.87 23.98, 5.24 23.54, 4.66 23.06 C4.08 22.57, 3.54 22.03, 3.05 21.45 C2.57 20.87, 2.13 20.24, 1.75 19.58 C1.37 18.93, 1.05 18.23, 0.79 17.52 C0.53 16.81, 0.33 16.07, 0.2 15.32 C0.07 14.58, 0 13.81, 0 13.05 C0 12.3, 0.07 11.53, 0.2 10.79 C0.33 10.04, 0.53 9.3, 0.79 8.59 C1.05 7.88, 1.37 7.18, 1.75 6.53 C2.13 5.87, 2.57 5.24, 3.05 4.66 C3.54 4.08, 4.08 3.54, 4.66 3.05 C5.24 2.57, 5.87 2.13, 6.53 1.75 C7.18 1.37, 7.88 1.05, 8.59 0.79 C9.3 0.53, 10.04 0.33, 10.79 0.2 C11.53 0.07, 12.3 0, 13.05 0 C13.81 0, 14.58 0.07, 15.32 0.2 C16.07 0.33, 16.81 0.53, 17.52 0.79 C18.23 1.05, 18.93 1.37, 19.58 1.75 C20.24 2.13, 20.87 2.57, 21.45 3.05 C22.03 3.54, 22.57 4.08, 23.06 4.66 C23.54 5.24, 23.98 5.87, 24.36 6.53 C24.74 7.18, 25.06 7.88, 25.32 8.59 C25.58 9.3, 25.78 10.04, 25.91 10.79 C26.04 11.53, 26.08 12.68, 26.11 13.05 C26.14 13.43, 26.14 12.68, 26.11 13.05" stroke="#ffffff" stroke-width="1" fill="none"></path></g><g transform="translate(472.29970960575565 670.7844860639368) rotate(0 2.6666667461395264 12.286166856921795)"><text x="2.6666667461395264" y="17.22029146666151" font-family="Virgil, Segoe UI Emoji" font-size="19.657866971074785px" fill="#ffffff" text-anchor="middle" style="white-space: pre;" direction="ltr" dominant-baseline="alphabetic">1</text></g><g transform="translate(528.7260770811786 573.3846485160354) rotate(0 6.991666793823242 12.286166856921795)"><text x="6.991666793823242" y="17.22029146666151" font-family="Virgil, Segoe UI Emoji" font-size="19.657866971074785px" fill="#ffffff" text-anchor="middle" style="white-space: pre;" direction="ltr" dominant-baseline="alphabetic">2</text></g><g transform="translate(586.1533715819951 668.5296483457305) rotate(0 2.6666667461395264 12.286166856921795)"><text x="2.6666667461395264" y="17.22029146666151" font-family="Virgil, Segoe UI Emoji" font-size="19.657866971074785px" fill="#ffffff" text-anchor="middle" style="white-space: pre;" direction="ltr" dominant-baseline="alphabetic">1</text></g><g transform="translate(665.2416428519605 670.37376890071) rotate(0 6.991666793823242 12.286166856921795)"><text x="6.991666793823242" y="17.22029146666151" font-family="Virgil, Segoe UI Emoji" font-size="19.657866971074785px" fill="#ffffff" text-anchor="middle" style="white-space: pre;" direction="ltr" dominant-baseline="alphabetic">2</text></g><g transform="translate(768.7480396035153 674.5628959523572) rotate(0 6.691666603088379 12.286166856921795)"><text x="6.691666603088379" y="17.22029146666151" font-family="Virgil, Segoe UI Emoji" font-size="19.657866971074785px" fill="#ffffff" text-anchor="middle" style="white-space: pre;" direction="ltr" dominant-baseline="alphabetic">3</text></g><g transform="translate(881.0906916812128 668.6178528390135) rotate(0 4.574999809265137 12.286166856921795)"><text x="4.574999809265137" y="17.22029146666151" font-family="Virgil, Segoe UI Emoji" font-size="19.657866971074785px" fill="#ffffff" text-anchor="middle" style="white-space: pre;" direction="ltr" dominant-baseline="alphabetic">?</text></g></svg>