<svg version="1.1" xmlns="http://www.w3.org/2000/svg" viewBox="0 0 1301.7334306794955 1056.4361706701434" width="1301.7334306794955" height="1056.4361706701434">
  <!-- svg-source:excalidraw -->
  
  <defs>
    <style class="style-fonts">
      @font-face {
        font-family: "Virgil";
        src: url("https://excalidraw.com/Virgil.woff2");
      }
      @font-face {
        font-family: "Cascadia";
        src: url("https://excalidraw.com/Cascadia.woff2");
      }
      @font-face {
        font-family: "Assistant";
        src: url("https://excalidraw.com/Assistant-Regular.woff2");
      }
    </style>
    
  </defs>
  <rect x="0" y="0" width="1301.7334306794955" height="1056.4361706701434" fill="transparent"></rect><g stroke-linecap="round" transform="translate(10 10) rotate(0 640.8667153397478 518.2180853350717)"><path d="M0 0 L1281.73 0 L1281.73 1036.44 L0 1036.44" stroke="none" stroke-width="0" fill="transparent"></path><path d="M0 0 C380.83 0, 761.67 0, 1281.73 0 M0 0 C456.95 0, 913.9 0, 1281.73 0 M1281.73 0 C1281.73 360.47, 1281.73 720.93, 1281.73 1036.44 M1281.73 0 C1281.73 239.47, 1281.73 478.95, 1281.73 1036.44 M1281.73 1036.44 C922.52 1036.44, 563.3 1036.44, 0 1036.44 M1281.73 1036.44 C1021.01 1036.44, 760.29 1036.44, 0 1036.44 M0 1036.44 C0 740.18, 0 443.92, 0 0 M0 1036.44 C0 637.32, 0 238.2, 0 0" stroke="#ffffff" stroke-width="1" fill="none"></path></g><g stroke-linecap="round"><g transform="translate(241.27783004452203 623.5248442473165) rotate(0 51.072747446460994 0)"><path d="M0 0 C22.5 0, 45.01 0, 102.15 0 M0 0 C31.06 0, 62.12 0, 102.15 0" stroke="#1e1e1e" stroke-width="2" fill="none"></path></g></g><mask></mask><g stroke-linecap="round"><g transform="translate(832.7262989000819 625.4889539907151) rotate(0 51.072747446460994 0)"><path d="M0 0 C29.07 0, 58.14 0, 102.15 0 M0 0 C21.8 0, 43.6 0, 102.15 0" stroke="#1e1e1e" stroke-width="2" fill="none"></path></g></g><mask></mask><g stroke-linecap="round"><g transform="translate(937.1780339826246 707.2611622521049) rotate(0 51.07274744646111 0)"><path d="M0 0 C32.72 0, 65.45 0, 102.15 0 M0 0 C23.31 0, 46.62 0, 102.15 0" stroke="#1e1e1e" stroke-width="2" fill="none"></path></g></g><mask></mask><g stroke-linecap="round"><g transform="translate(344.41026084774353 543.6123930190045) rotate(0 51.072747446460994 0)"><path d="M0 0 C22.36 0, 44.71 0, 102.15 0 M0 0 C30.3 0, 60.61 0, 102.15 0" stroke="#1e1e1e" stroke-width="2" fill="none"></path></g></g><mask></mask><g stroke-linecap="round"><g transform="translate(137.82349334520268 704.2406118884976) rotate(0 51.072747446460994 0)"><path d="M0 0 C20.83 0, 41.66 0, 102.15 0 M0 0 C22.05 0, 44.1 0, 102.15 0" stroke="#1e1e1e" stroke-width="2" fill="none"></path></g></g><mask></mask><g stroke-linecap="round"><g transform="translate(727.6050212378505 544.5139838416609) rotate(0 51.072747446460994 0)"><path d="M0 0 C21.23 0, 42.46 0, 102.15 0 M0 0 C25.8 0, 51.59 0, 102.15 0" stroke="#1e1e1e" stroke-width="2" fill="none"></path></g></g><mask></mask><g stroke-linecap="round"><g transform="translate(447.3098695934209 463.32142169837095) rotate(0 51.072747446460994 0)"><path d="M0 0 C38.46 0, 76.93 0, 102.15 0 M0 0 C24.9 0, 49.8 0, 102.15 0" stroke="#1e1e1e" stroke-width="2" fill="none"></path></g></g><mask></mask><g stroke-linecap="round"><g transform="translate(625.4295758101848 463.6212954196719) rotate(0 51.072747446460994 0)"><path d="M0 0 C29.12 0, 58.25 0, 102.15 0 M0 0 C39.11 0, 78.22 0, 102.15 0" stroke="#1e1e1e" stroke-width="2" fill="none"></path></g></g><mask></mask><g stroke-linecap="round"><g transform="translate(549.8941761358863 383.03045037773745) rotate(0 36.34776657265081 0)"><path d="M0 0 C22.43 0, 44.86 0, 72.7 0 M0 0 C18.33 0, 36.67 0, 72.7 0" stroke="#1e1e1e" stroke-width="2" fill="none"></path></g></g><mask></mask><g stroke-linecap="round"><g transform="translate(343.85174230581583 622.8925648620608) rotate(0 0 -39.623798088289234)"><path d="M0 0 C0 -19.06, 0 -38.13, 0 -79.25 M0 0 C0 -18.58, 0 -37.16, 0 -79.25" stroke="#1e1e1e" stroke-width="2" fill="none"></path></g></g><mask></mask><g stroke-linecap="round"><g transform="translate(831.1733569286489 624.8566746054594) rotate(0 0 -39.623798088289234)"><path d="M0 0 C0 -30.21, 0 -60.41, 0 -79.25 M0 0 C0 -16.32, 0 -32.64, 0 -79.25" stroke="#1e1e1e" stroke-width="2" fill="none"></path></g></g><mask></mask><g stroke-linecap="round"><g transform="translate(935.6250920111918 706.6288828668492) rotate(0 0 -39.623798088289234)"><path d="M0 0 C0 -18.99, 0 -37.98, 0 -79.25 M0 0 C0 -25.45, 0 -50.9, 0 -79.25" stroke="#1e1e1e" stroke-width="2" fill="none"></path></g></g><mask></mask><g stroke-linecap="round"><g transform="translate(446.9841731090371 542.9801136337487) rotate(0 0 -39.623798088289234)"><path d="M0 0 C0 -21.79, 0 -43.57, 0 -79.25 M0 0 C0 -28.62, 0 -57.24, 0 -79.25" stroke="#1e1e1e" stroke-width="2" fill="none"></path></g></g><mask></mask><g stroke-linecap="round"><g transform="translate(240.39740560649625 703.6083325032419) rotate(0 0 -39.623798088289234)"><path d="M0 0 C0 -22.64, 0 -45.28, 0 -79.25 M0 0 C0 -22.45, 0 -44.9, 0 -79.25" stroke="#1e1e1e" stroke-width="2" fill="none"></path></g></g><mask></mask><g stroke-linecap="round"><g transform="translate(727.1056957170435 543.2799873550496) rotate(0 0 -39.623798088289234)"><path d="M0 0 C0 -21.24, 0 -42.47, 0 -79.25 M0 0 C0 -28.87, 0 -57.74, 0 -79.25" stroke="#1e1e1e" stroke-width="2" fill="none"></path></g></g><mask></mask><g stroke-linecap="round"><g transform="translate(549.8837818547145 462.68914231311527) rotate(0 0 -39.623798088289234)"><path d="M0 0 C0 -18.88, 0 -37.76, 0 -79.25 M0 0 C0 -25.88, 0 -51.76, 0 -79.25" stroke="#1e1e1e" stroke-width="2" fill="none"></path></g></g><mask></mask><g stroke-linecap="round"><g transform="translate(624.0991782085766 463.0594736754006) rotate(0 0 -39.623798088289234)"><path d="M0 0 C0 -29.16, 0 -58.33, 0 -79.25 M0 0 C0 -18.78, 0 -37.56, 0 -79.25" stroke="#1e1e1e" stroke-width="2" fill="none"></path></g></g><mask></mask><g stroke-linecap="round"><g stroke-opacity="0.8" fill-opacity="0.8" transform="translate(173.68491313867776 570.7302154711622) rotate(0 89.50112287697186 -82.72073478023164)"><path d="M0 0 C51.51 -47.6, 103.01 -95.21, 179 -165.44 M0 0 C58.79 -54.34, 117.58 -108.68, 179 -165.44" stroke="#2c79c2" stroke-width="2" fill="none"></path></g><g stroke-opacity="0.8" fill-opacity="0.8" transform="translate(173.68491313867776 570.7302154711622) rotate(0 89.50112287697186 -82.72073478023164)"><path d="M167.55 -143.22 C170.85 -149.61, 174.14 -156.01, 179 -165.44 M167.55 -143.22 C171.31 -150.52, 175.07 -157.82, 179 -165.44" stroke="#2c79c2" stroke-width="2" fill="none"></path></g><g stroke-opacity="0.8" fill-opacity="0.8" transform="translate(173.68491313867776 570.7302154711622) rotate(0 89.50112287697186 -82.72073478023164)"><path d="M155.95 -155.78 C162.58 -158.56, 169.21 -161.34, 179 -165.44 M155.95 -155.78 C163.52 -158.95, 171.09 -162.12, 179 -165.44" stroke="#2c79c2" stroke-width="2" fill="none"></path></g></g><mask></mask><g stroke-linecap="round"><g stroke-opacity="0.8" fill-opacity="0.8" transform="translate(853.4085428719018 429.5748596256943) rotate(0 83.17276065334772 80.91263128776754)"><path d="M0 0 C37.71 36.68, 75.41 73.36, 166.35 161.83 M0 0 C61.81 60.13, 123.62 120.26, 166.35 161.83" stroke="#2c79c2" stroke-width="2" fill="none"></path></g><g stroke-opacity="0.8" fill-opacity="0.8" transform="translate(853.4085428719018 429.5748596256943) rotate(0 83.17276065334772 80.91263128776754)"><path d="M143.54 151.57 C148.71 153.9, 153.88 156.22, 166.35 161.83 M143.54 151.57 C152.02 155.38, 160.49 159.19, 166.35 161.83" stroke="#2c79c2" stroke-width="2" fill="none"></path></g><g stroke-opacity="0.8" fill-opacity="0.8" transform="translate(853.4085428719018 429.5748596256943) rotate(0 83.17276065334772 80.91263128776754)"><path d="M155.47 139.32 C157.93 144.42, 160.4 149.52, 166.35 161.83 M155.47 139.32 C159.51 147.68, 163.55 156.04, 166.35 161.83" stroke="#2c79c2" stroke-width="2" fill="none"></path></g></g><mask></mask><g stroke-opacity="0.8" fill-opacity="0.8" transform="translate(517.3517805309616 299.83329941903156) rotate(0 66.82499694824219 18.997130695210544)"><text x="66.82499694824219" y="26.626378382407097" font-family="Virgil, Segoe UI Emoji" font-size="30.39540911233687px" fill="#1e1e1e" text-anchor="middle" style="white-space: pre;" direction="ltr" dominant-baseline="alphabetic">Maturité</text></g><g stroke-opacity="0.8" fill-opacity="0.8" transform="translate(354.4793794732677 743.6417574954054) rotate(0 26.350000381469727 11.51768564128514)"><text x="26.350000381469727" y="16.143188194825253" font-family="Virgil, Segoe UI Emoji" font-size="18.428297026056224px" fill="#1e1e1e" text-anchor="middle" style="white-space: pre;" direction="ltr" dominant-baseline="alphabetic">3 ans</text></g><g stroke-opacity="0.8" fill-opacity="0.8" transform="translate(554.7931271299781 816.116584927302) rotate(0 45.36666488647461 20.442660988698947)"><text x="45.36666488647461" y="28.652433641760453" font-family="Virgil, Segoe UI Emoji" font-size="32.708257581918325px" fill="#1e1e1e" text-anchor="middle" style="white-space: pre;" direction="ltr" dominant-baseline="alphabetic">X ans</text></g><g stroke-opacity="0.8" fill-opacity="0.8" transform="translate(655.8869316327452 744.7167821479916) rotate(0 17.566667556762695 11.51768564128514)"><text x="17.566667556762695" y="16.143188194825253" font-family="Virgil, Segoe UI Emoji" font-size="18.428297026056224px" fill="#1e1e1e" text-anchor="middle" style="white-space: pre;" direction="ltr" dominant-baseline="alphabetic">1 an</text></g><g stroke-opacity="0.8" fill-opacity="0.8" transform="translate(556.8267645635754 745.4605300936093) rotate(0 26.633333206176758 11.51768564128514)"><text x="26.633333206176758" y="16.143188194825253" font-family="Virgil, Segoe UI Emoji" font-size="18.428297026056224px" fill="#1e1e1e" text-anchor="middle" style="white-space: pre;" direction="ltr" dominant-baseline="alphabetic">2 ans</text></g><g stroke-opacity="0.8" fill-opacity="0.8" transform="translate(156.86135226318584 452.299436714765) rotate(316.43548808304723 71.06666564941406 19.056995315843658)"><text x="71.06666564941406" y="26.710284634686474" font-family="Virgil, Segoe UI Emoji" font-size="30.49119250534985px" fill="#1e1e1e" text-anchor="middle" style="white-space: pre;" direction="ltr" dominant-baseline="alphabetic">Formation</text></g><g stroke-opacity="0.8" fill-opacity="0.8" transform="translate(876.9540025734252 454.88830852019134) rotate(43.27743169329176 77.70833587646473 19.056995315843658)"><text x="77.70833587646484" y="26.710284634686474" font-family="Virgil, Segoe UI Emoji" font-size="30.49119250534985px" fill="#1e1e1e" text-anchor="middle" style="white-space: pre;" direction="ltr" dominant-baseline="alphabetic">Application</text></g><g stroke-linecap="round"><g stroke-opacity="0.8" fill-opacity="0.8" transform="translate(165.32332776974613 861.8942643385983) rotate(0 429.96301523238094 -0.5902328207864116)"><path d="M1.54 -1.05 C324.52 3.67, 650.09 3.92, 860.32 -4.72 M-0.39 0.24 C215.74 5.66, 429.52 4.54, 859.96 -4.09" stroke="#1e1e1e" stroke-width="2" fill="none"></path></g><g stroke-opacity="0.8" fill-opacity="0.8" transform="translate(165.32332776974613 861.8942643385983) rotate(0 429.96301523238094 -0.5902328207864116)"><path d="M26.98 -10.85 C15.33 -7.01, 7.02 -1.45, 2.16 -1.57 M24.57 -9.23 C20.03 -6.99, 12.57 -4.92, 1.73 -0.78" stroke="#1e1e1e" stroke-width="2" fill="none"></path></g><g stroke-opacity="0.8" fill-opacity="0.8" transform="translate(165.32332776974613 861.8942643385983) rotate(0 429.96301523238094 -0.5902328207864116)"><path d="M26.93 6.25 C15.46 3.63, 7.18 2.72, 2.16 -1.57 M24.52 7.87 C20.03 5.84, 12.59 3.62, 1.73 -0.78" stroke="#1e1e1e" stroke-width="2" fill="none"></path></g><g stroke-opacity="0.8" fill-opacity="0.8" transform="translate(165.32332776974613 861.8942643385983) rotate(0 429.96301523238094 -0.5902328207864116)"><path d="M838.55 3.55 C844.78 1.18, 854.2 0.14, 860.59 -4.61 M836.14 5.17 C843.35 3.47, 847.62 1.17, 860.15 -3.82" stroke="#1e1e1e" stroke-width="2" fill="none"></path></g><g stroke-opacity="0.8" fill-opacity="0.8" transform="translate(165.32332776974613 861.8942643385983) rotate(0 429.96301523238094 -0.5902328207864116)"><path d="M838.25 -13.55 C844.43 -9.45, 853.96 -4.02, 860.59 -4.61 M835.84 -11.93 C843.09 -9.35, 847.43 -7.37, 860.15 -3.82" stroke="#1e1e1e" stroke-width="2" fill="none"></path></g></g><mask></mask><g stroke-linecap="round"><g stroke-opacity="0.8" fill-opacity="0.8" transform="translate(247.19861564746247 786.4675703487777) rotate(0 148.02887314308373 0.607090259743785)"><path d="M-2.91 -2.59 C81.7 4.08, 159.92 7.23, 298.96 -1.67 M-0.76 -0.22 C116.1 -2.06, 230.4 -1.56, 297.07 2.64" stroke="#1e1e1e" stroke-width="2" fill="none"></path></g><g stroke-opacity="0.8" fill-opacity="0.8" transform="translate(247.19861564746247 786.4675703487777) rotate(0 148.02887314308373 0.607090259743785)"><path d="M18.87 -12.17 C15.77 -8.61, 8.28 -4.6, -1.59 -4.58 M20.32 -10.56 C12.36 -6.94, 2.69 -3.91, -2.87 -1.67" stroke="#1e1e1e" stroke-width="2" fill="none"></path></g><g stroke-opacity="0.8" fill-opacity="0.8" transform="translate(247.19861564746247 786.4675703487777) rotate(0 148.02887314308373 0.607090259743785)"><path d="M18.34 4.92 C15.24 3.89, 7.89 3.3, -1.59 -4.58 M19.79 6.53 C12.09 3.53, 2.63 -0.05, -2.87 -1.67" stroke="#1e1e1e" stroke-width="2" fill="none"></path></g><g stroke-opacity="0.8" fill-opacity="0.8" transform="translate(247.19861564746247 786.4675703487777) rotate(0 148.02887314308373 0.607090259743785)"><path d="M271.29 8.5 C280.84 8.33, 286.14 8.19, 298.39 0.65 M272.74 10.11 C283.24 7.43, 291.99 4.48, 297.1 3.56" stroke="#1e1e1e" stroke-width="2" fill="none"></path></g><g stroke-opacity="0.8" fill-opacity="0.8" transform="translate(247.19861564746247 786.4675703487777) rotate(0 148.02887314308373 0.607090259743785)"><path d="M271.96 -8.59 C281.47 -4.17, 286.59 0.28, 298.39 0.65 M273.41 -6.98 C283.6 -3.04, 292.08 0.63, 297.1 3.56" stroke="#1e1e1e" stroke-width="2" fill="none"></path></g></g><mask></mask><g stroke-linecap="round"><g stroke-opacity="0.8" fill-opacity="0.8" transform="translate(549.4915582752649 785.3113511645105) rotate(0 38.930667338422154 -0.3476895809991447)"><path d="M-3.28 1.38 C22.79 -1.17, 41.98 -2.69, 81.14 -1.83 M0.29 1.32 C15.5 -1.7, 32.82 -1.34, 77.97 -1.65" stroke="#1e1e1e" stroke-width="2" fill="none"></path></g><g stroke-opacity="0.8" fill-opacity="0.8" transform="translate(549.4915582752649 785.3113511645105) rotate(0 38.930667338422154 -0.3476895809991447)"><path d="M17.99 -7.94 C14.19 -6.27, 6.98 -4.3, -1.78 0.53 M19.78 -7.97 C14.36 -6.41, 9.97 -4.11, -3.36 0.62" stroke="#1e1e1e" stroke-width="2" fill="none"></path></g><g stroke-opacity="0.8" fill-opacity="0.8" transform="translate(549.4915582752649 785.3113511645105) rotate(0 38.930667338422154 -0.3476895809991447)"><path d="M19.06 9.13 C15.04 6.17, 7.54 3.52, -1.78 0.53 M20.85 9.1 C15.14 7.07, 10.52 5.77, -3.36 0.62" stroke="#1e1e1e" stroke-width="2" fill="none"></path></g><g stroke-opacity="0.8" fill-opacity="0.8" transform="translate(549.4915582752649 785.3113511645105) rotate(0 38.930667338422154 -0.3476895809991447)"><path d="M52.9 7.73 C61.73 4.23, 67.09 1.13, 79.48 -2.5 M54.68 7.7 C58.96 4.88, 64.33 3.25, 77.89 -2.41" stroke="#1e1e1e" stroke-width="2" fill="none"></path></g><g stroke-opacity="0.8" fill-opacity="0.8" transform="translate(549.4915582752649 785.3113511645105) rotate(0 38.930667338422154 -0.3476895809991447)"><path d="M52.79 -9.37 C61.58 -8.23, 66.97 -6.7, 79.48 -2.5 M54.57 -9.4 C58.94 -8.61, 64.33 -6.65, 77.89 -2.41" stroke="#1e1e1e" stroke-width="2" fill="none"></path></g></g><mask></mask><g stroke-linecap="round"><g stroke-opacity="0.8" fill-opacity="0.8" transform="translate(633.8663528370466 784.898879925861) rotate(0 38.80631182854495 -1.3046909876252926)"><path d="M-2.08 -1.87 C26.75 1.52, 62.14 0.59, 79.69 -4.12 M-0.02 0.53 C25.85 -2.6, 51.4 -2.01, 79.63 1.51" stroke="#1e1e1e" stroke-width="2" fill="none"></path></g><g stroke-opacity="0.8" fill-opacity="0.8" transform="translate(633.8663528370466 784.898879925861) rotate(0 38.80631182854495 -1.3046909876252926)"><path d="M20.5 -10.99 C10.42 -5.07, 3.66 -2.31, -1.3 -3.86 M21.53 -9.79 C14.36 -8.22, 7.09 -5.29, -1.33 -1.04" stroke="#1e1e1e" stroke-width="2" fill="none"></path></g><g stroke-opacity="0.8" fill-opacity="0.8" transform="translate(633.8663528370466 784.898879925861) rotate(0 38.80631182854495 -1.3046909876252926)"><path d="M20.24 6.11 C10.33 5.35, 3.67 1.44, -1.3 -3.86 M21.27 7.31 C14.31 3.41, 7.13 0.88, -1.33 -1.04" stroke="#1e1e1e" stroke-width="2" fill="none"></path></g><g stroke-opacity="0.8" fill-opacity="0.8" transform="translate(633.8663528370466 784.898879925861) rotate(0 38.80631182854495 -1.3046909876252926)"><path d="M54.39 6.86 C63.03 6.66, 74.92 3.77, 80.41 -0.48 M55.42 8.06 C63.65 4.77, 71.67 3.08, 80.37 2.33" stroke="#1e1e1e" stroke-width="2" fill="none"></path></g><g stroke-opacity="0.8" fill-opacity="0.8" transform="translate(633.8663528370466 784.898879925861) rotate(0 38.80631182854495 -1.3046909876252926)"><path d="M56.01 -10.16 C63.95 -3.7, 75.21 0.05, 80.41 -0.48 M57.04 -8.96 C64.62 -6.8, 72.12 -3.05, 80.37 2.33" stroke="#1e1e1e" stroke-width="2" fill="none"></path></g></g><mask></mask><g stroke-linecap="round"><g stroke-opacity="0.1" fill-opacity="0.1" transform="translate(586.8365611667198 359.97135631939364) rotate(0 0 274.40215374957353)"><path d="M0 0 C0 91.47, 0 457.34, 0 548.8" stroke="#1e1e1e" stroke-width="2.5" fill="none" stroke-dasharray="8 10"></path></g></g><mask></mask><g stroke-linecap="round" transform="translate(344.69914679586304 544.9166349607586) rotate(0 51.48926045963276 40.81899595904119)"><path d="M0 0 L102.98 0 L102.98 81.64 L0 81.64" stroke="none" stroke-width="0" fill="#7950f2"></path><path d="M0 0 C27.28 0, 54.55 0, 102.98 0 M102.98 0 C102.98 19.68, 102.98 39.35, 102.98 81.64 M102.98 81.64 C69.48 81.64, 35.99 81.64, 0 81.64 M0 81.64 C0 50.63, 0 19.62, 0 0" stroke="transparent" stroke-width="2.5" fill="none" stroke-dasharray="8 10"></path></g><g stroke-linecap="round" transform="translate(241.36994911030206 624.1697087643875) rotate(0 153.63287494893507 41.23881875981016)"><path d="M0 0 L307.27 0 L307.27 82.48 L0 82.48" stroke="none" stroke-width="0" fill="#7950f2"></path><path d="M0 0 C98.81 0, 197.61 0, 307.27 0 M307.27 0 C307.27 28.61, 307.27 57.21, 307.27 82.48 M307.27 82.48 C240.74 82.48, 174.22 82.48, 0 82.48 M0 82.48 C0 63.93, 0 45.38, 0 0" stroke="transparent" stroke-width="2.5" fill="none" stroke-dasharray="8 10"></path></g><g stroke-linecap="round" transform="translate(447.0565073066832 544.6696549525121) rotate(0 89.31727381406574 40.43509644795506)"><path d="M0 0 L178.63 0 L178.63 80.87 L0 80.87" stroke="none" stroke-width="0" fill="#9775fa"></path><path d="M0 0 C43.1 0, 86.2 0, 178.63 0 M178.63 0 C178.63 22.04, 178.63 44.07, 178.63 80.87 M178.63 80.87 C107.19 80.87, 35.75 80.87, 0 80.87 M0 80.87 C0 48.61, 0 16.35, 0 0" stroke="transparent" stroke-width="2.5" fill="none" stroke-dasharray="8 10"></path></g><g stroke-linecap="round" transform="translate(548.1134306272352 620.7691111026242) rotate(0 38.760989583676064 42.88449877660477)"><path d="M0 0 L77.52 0 L77.52 85.77 L0 85.77" stroke="none" stroke-width="0" fill="#9775fa"></path><path d="M0 0 C19.68 0, 39.37 0, 77.52 0 M77.52 0 C77.52 19.78, 77.52 39.56, 77.52 85.77 M77.52 85.77 C57.48 85.77, 37.45 85.77, 0 85.77 M0 85.77 C0 54.66, 0 23.56, 0 0" stroke="transparent" stroke-width="2.5" fill="none" stroke-dasharray="8 10"></path></g><g stroke-linecap="round" transform="translate(625.6640598815122 620.832598204053) rotate(0 37.60198312783177 42.8844987766048)"><path d="M0 0 L75.2 0 L75.2 85.77 L0 85.77" stroke="none" stroke-width="0" fill="#d0bfff"></path><path d="M0 0 C23.47 0, 46.93 0, 75.2 0 M75.2 0 C75.2 30.58, 75.2 61.16, 75.2 85.77 M75.2 85.77 C58.57 85.77, 41.94 85.77, 0 85.77 M0 85.77 C0 67.07, 0 48.36, 0 0" stroke="transparent" stroke-width="2.5" fill="none" stroke-dasharray="8 10"></path></g><g stroke-linecap="round"><g transform="translate(482.4974808648651 1019.2224432849544) rotate(0 0 0)"><path d="" stroke="transparent" stroke-width="1.5" fill="none" stroke-dasharray="8 9"></path></g></g><mask></mask><g transform="translate(251.94484745941463 633.0768289022712) rotate(0 92.03333282470703 32.011742789054324)"><text x="92.03333282470703" y="22.433829346569265" font-family="Virgil, Segoe UI Emoji" font-size="25.609394231243453px" fill="#ffffff" text-anchor="middle" style="white-space: pre;" direction="ltr" dominant-baseline="alphabetic">Champ </text><text x="92.03333282470703" y="54.44557213562358" font-family="Virgil, Segoe UI Emoji" font-size="25.609394231243453px" fill="#ffffff" text-anchor="middle" style="white-space: pre;" direction="ltr" dominant-baseline="alphabetic">de Compétence</text></g><g transform="translate(296.0066767255437 148.51659121331198) rotate(0 296.0083312988281 53.35958688436223)"><text x="296.0083312988281" y="37.39439848856105" font-family="Virgil, Segoe UI Emoji" font-size="42.68766950748979px" fill="#1e1e1e" text-anchor="middle" style="white-space: pre;" direction="ltr" dominant-baseline="alphabetic">Vision Classique</text><text x="296.0083312988281" y="90.75398537292328" font-family="Virgil, Segoe UI Emoji" font-size="42.68766950748979px" fill="#1e1e1e" text-anchor="middle" style="white-space: pre;" direction="ltr" dominant-baseline="alphabetic">de la montée en compétence</text></g><g stroke-linecap="round" transform="translate(1067.231658170385 677.0851017059467) rotate(0 57.548527281849374 18.564041058661132)"><path d="M0 0 L115.1 0 L115.1 37.13 L0 37.13" stroke="none" stroke-width="0" fill="#1e1e1e"></path><path d="M0 0 C35.99 0, 71.98 0, 115.1 0 M0 0 C34.54 0, 69.08 0, 115.1 0 M115.1 0 C115.1 14.26, 115.1 28.53, 115.1 37.13 M115.1 0 C115.1 12.47, 115.1 24.93, 115.1 37.13 M115.1 37.13 C91.03 37.13, 66.95 37.13, 0 37.13 M115.1 37.13 C89.65 37.13, 64.21 37.13, 0 37.13 M0 37.13 C0 28.58, 0 20.03, 0 0 M0 37.13 C0 28.06, 0 18.99, 0 0" stroke="#1e1e1e" stroke-width="1" fill="none"></path></g><g transform="translate(1075.7886805095704 684.4672122070735) rotate(0 50.766666412353516 12.286166856921739)"><text x="50.766666412353516" y="17.22029146666151" font-family="Virgil, Segoe UI Emoji" font-size="19.657866971074785px" fill="#ffffff" text-anchor="middle" style="white-space: pre;" direction="ltr" dominant-baseline="alphabetic">Conformité</text></g><g stroke-linecap="round" transform="translate(463.5204059091061 668.3678668888174) rotate(0 13.054934380861596 13.054934380861539)"><path d="M26.11 13.05 C26.11 13.81, 26.04 14.58, 25.91 15.32 C25.78 16.07, 25.58 16.81, 25.32 17.52 C25.06 18.23, 24.74 18.93, 24.36 19.58 C23.98 20.24, 23.54 20.87, 23.06 21.45 C22.57 22.03, 22.03 22.57, 21.45 23.06 C20.87 23.54, 20.24 23.98, 19.58 24.36 C18.93 24.74, 18.23 25.06, 17.52 25.32 C16.81 25.58, 16.07 25.78, 15.32 25.91 C14.58 26.04, 13.81 26.11, 13.05 26.11 C12.3 26.11, 11.53 26.04, 10.79 25.91 C10.04 25.78, 9.3 25.58, 8.59 25.32 C7.88 25.06, 7.18 24.74, 6.53 24.36 C5.87 23.98, 5.24 23.54, 4.66 23.06 C4.08 22.57, 3.54 22.03, 3.05 21.45 C2.57 20.87, 2.13 20.24, 1.75 19.58 C1.37 18.93, 1.05 18.23, 0.79 17.52 C0.53 16.81, 0.33 16.07, 0.2 15.32 C0.07 14.58, 0 13.81, 0 13.05 C0 12.3, 0.07 11.53, 0.2 10.79 C0.33 10.04, 0.53 9.3, 0.79 8.59 C1.05 7.88, 1.37 7.18, 1.75 6.53 C2.13 5.87, 2.57 5.24, 3.05 4.66 C3.54 4.08, 4.08 3.54, 4.66 3.05 C5.24 2.57, 5.87 2.13, 6.53 1.75 C7.18 1.37, 7.88 1.05, 8.59 0.79 C9.3 0.53, 10.04 0.33, 10.79 0.2 C11.53 0.07, 12.3 0, 13.05 0 C13.81 0, 14.58 0.07, 15.32 0.2 C16.07 0.33, 16.81 0.53, 17.52 0.79 C18.23 1.05, 18.93 1.37, 19.58 1.75 C20.24 2.13, 20.87 2.57, 21.45 3.05 C22.03 3.54, 22.57 4.08, 23.06 4.66 C23.54 5.24, 23.98 5.87, 24.36 6.53 C24.74 7.18, 25.06 7.88, 25.32 8.59 C25.58 9.3, 25.78 10.04, 25.91 10.79 C26.04 11.53, 26.08 12.68, 26.11 13.05 C26.14 13.43, 26.14 12.68, 26.11 13.05" stroke="none" stroke-width="0" fill="#1e1e1e"></path><path d="M26.11 13.05 C26.11 13.81, 26.04 14.58, 25.91 15.32 C25.78 16.07, 25.58 16.81, 25.32 17.52 C25.06 18.23, 24.74 18.93, 24.36 19.58 C23.98 20.24, 23.54 20.87, 23.06 21.45 C22.57 22.03, 22.03 22.57, 21.45 23.06 C20.87 23.54, 20.24 23.98, 19.58 24.36 C18.93 24.74, 18.23 25.06, 17.52 25.32 C16.81 25.58, 16.07 25.78, 15.32 25.91 C14.58 26.04, 13.81 26.11, 13.05 26.11 C12.3 26.11, 11.53 26.04, 10.79 25.91 C10.04 25.78, 9.3 25.58, 8.59 25.32 C7.88 25.06, 7.18 24.74, 6.53 24.36 C5.87 23.98, 5.24 23.54, 4.66 23.06 C4.08 22.57, 3.54 22.03, 3.05 21.45 C2.57 20.87, 2.13 20.24, 1.75 19.58 C1.37 18.93, 1.05 18.23, 0.79 17.52 C0.53 16.81, 0.33 16.07, 0.2 15.32 C0.07 14.58, 0 13.81, 0 13.05 C0 12.3, 0.07 11.53, 0.2 10.79 C0.33 10.04, 0.53 9.3, 0.79 8.59 C1.05 7.88, 1.37 7.18, 1.75 6.53 C2.13 5.87, 2.57 5.24, 3.05 4.66 C3.54 4.08, 4.08 3.54, 4.66 3.05 C5.24 2.57, 5.87 2.13, 6.53 1.75 C7.18 1.37, 7.88 1.05, 8.59 0.79 C9.3 0.53, 10.04 0.33, 10.79 0.2 C11.53 0.07, 12.3 0, 13.05 0 C13.81 0, 14.58 0.07, 15.32 0.2 C16.07 0.33, 16.81 0.53, 17.52 0.79 C18.23 1.05, 18.93 1.37, 19.58 1.75 C20.24 2.13, 20.87 2.57, 21.45 3.05 C22.03 3.54, 22.57 4.08, 23.06 4.66 C23.54 5.24, 23.98 5.87, 24.36 6.53 C24.74 7.18, 25.06 7.88, 25.32 8.59 C25.58 9.3, 25.78 10.04, 25.91 10.79 C26.04 11.53, 26.08 12.68, 26.11 13.05 C26.14 13.43, 26.14 12.68, 26.11 13.05" stroke="#ffffff" stroke-width="1" fill="none"></path></g><g stroke-linecap="round" transform="translate(524.2717734322127 570.9680293409158) rotate(0 13.054934380861596 13.054934380861553)"><path d="M26.11 13.05 C26.11 13.81, 26.04 14.58, 25.91 15.32 C25.78 16.07, 25.58 16.81, 25.32 17.52 C25.06 18.23, 24.74 18.93, 24.36 19.58 C23.98 20.24, 23.54 20.87, 23.06 21.45 C22.57 22.03, 22.03 22.57, 21.45 23.06 C20.87 23.54, 20.24 23.98, 19.58 24.36 C18.93 24.74, 18.23 25.06, 17.52 25.32 C16.81 25.58, 16.07 25.78, 15.32 25.91 C14.58 26.04, 13.81 26.11, 13.05 26.11 C12.3 26.11, 11.53 26.04, 10.79 25.91 C10.04 25.78, 9.3 25.58, 8.59 25.32 C7.88 25.06, 7.18 24.74, 6.53 24.36 C5.87 23.98, 5.24 23.54, 4.66 23.06 C4.08 22.57, 3.54 22.03, 3.05 21.45 C2.57 20.87, 2.13 20.24, 1.75 19.58 C1.37 18.93, 1.05 18.23, 0.79 17.52 C0.53 16.81, 0.33 16.07, 0.2 15.32 C0.07 14.58, 0 13.81, 0 13.05 C0 12.3, 0.07 11.53, 0.2 10.79 C0.33 10.04, 0.53 9.3, 0.79 8.59 C1.05 7.88, 1.37 7.18, 1.75 6.53 C2.13 5.87, 2.57 5.24, 3.05 4.66 C3.54 4.08, 4.08 3.54, 4.66 3.05 C5.24 2.57, 5.87 2.13, 6.53 1.75 C7.18 1.37, 7.88 1.05, 8.59 0.79 C9.3 0.53, 10.04 0.33, 10.79 0.2 C11.53 0.07, 12.3 0, 13.05 0 C13.81 0, 14.58 0.07, 15.32 0.2 C16.07 0.33, 16.81 0.53, 17.52 0.79 C18.23 1.05, 18.93 1.37, 19.58 1.75 C20.24 2.13, 20.87 2.57, 21.45 3.05 C22.03 3.54, 22.57 4.08, 23.06 4.66 C23.54 5.24, 23.98 5.87, 24.36 6.53 C24.74 7.18, 25.06 7.88, 25.32 8.59 C25.58 9.3, 25.78 10.04, 25.91 10.79 C26.04 11.53, 26.08 12.68, 26.11 13.05 C26.14 13.43, 26.14 12.68, 26.11 13.05" stroke="none" stroke-width="0" fill="#1e1e1e"></path><path d="M26.11 13.05 C26.11 13.81, 26.04 14.58, 25.91 15.32 C25.78 16.07, 25.58 16.81, 25.32 17.52 C25.06 18.23, 24.74 18.93, 24.36 19.58 C23.98 20.24, 23.54 20.87, 23.06 21.45 C22.57 22.03, 22.03 22.57, 21.45 23.06 C20.87 23.54, 20.24 23.98, 19.58 24.36 C18.93 24.74, 18.23 25.06, 17.52 25.32 C16.81 25.58, 16.07 25.78, 15.32 25.91 C14.58 26.04, 13.81 26.11, 13.05 26.11 C12.3 26.11, 11.53 26.04, 10.79 25.91 C10.04 25.78, 9.3 25.58, 8.59 25.32 C7.88 25.06, 7.18 24.74, 6.53 24.36 C5.87 23.98, 5.24 23.54, 4.66 23.06 C4.08 22.57, 3.54 22.03, 3.05 21.45 C2.57 20.87, 2.13 20.24, 1.75 19.58 C1.37 18.93, 1.05 18.23, 0.79 17.52 C0.53 16.81, 0.33 16.07, 0.2 15.32 C0.07 14.58, 0 13.81, 0 13.05 C0 12.3, 0.07 11.53, 0.2 10.79 C0.33 10.04, 0.53 9.3, 0.79 8.59 C1.05 7.88, 1.37 7.18, 1.75 6.53 C2.13 5.87, 2.57 5.24, 3.05 4.66 C3.54 4.08, 4.08 3.54, 4.66 3.05 C5.24 2.57, 5.87 2.13, 6.53 1.75 C7.18 1.37, 7.88 1.05, 8.59 0.79 C9.3 0.53, 10.04 0.33, 10.79 0.2 C11.53 0.07, 12.3 0, 13.05 0 C13.81 0, 14.58 0.07, 15.32 0.2 C16.07 0.33, 16.81 0.53, 17.52 0.79 C18.23 1.05, 18.93 1.37, 19.58 1.75 C20.24 2.13, 20.87 2.57, 21.45 3.05 C22.03 3.54, 22.57 4.08, 23.06 4.66 C23.54 5.24, 23.98 5.87, 24.36 6.53 C24.74 7.18, 25.06 7.88, 25.32 8.59 C25.58 9.3, 25.78 10.04, 25.91 10.79 C26.04 11.53, 26.08 12.68, 26.11 13.05 C26.14 13.43, 26.14 12.68, 26.11 13.05" stroke="#ffffff" stroke-width="1" fill="none"></path></g><g stroke-linecap="round" transform="translate(650.6708109847943 648.131314371391) rotate(0 13.054934380861596 13.054934380861539)"><path d="M26.11 13.05 C26.11 13.81, 26.04 14.58, 25.91 15.32 C25.78 16.07, 25.58 16.81, 25.32 17.52 C25.06 18.23, 24.74 18.93, 24.36 19.58 C23.98 20.24, 23.54 20.87, 23.06 21.45 C22.57 22.03, 22.03 22.57, 21.45 23.06 C20.87 23.54, 20.24 23.98, 19.58 24.36 C18.93 24.74, 18.23 25.06, 17.52 25.32 C16.81 25.58, 16.07 25.78, 15.32 25.91 C14.58 26.04, 13.81 26.11, 13.05 26.11 C12.3 26.11, 11.53 26.04, 10.79 25.91 C10.04 25.78, 9.3 25.58, 8.59 25.32 C7.88 25.06, 7.18 24.74, 6.53 24.36 C5.87 23.98, 5.24 23.54, 4.66 23.06 C4.08 22.57, 3.54 22.03, 3.05 21.45 C2.57 20.87, 2.13 20.24, 1.75 19.58 C1.37 18.93, 1.05 18.23, 0.79 17.52 C0.53 16.81, 0.33 16.07, 0.2 15.32 C0.07 14.58, 0 13.81, 0 13.05 C0 12.3, 0.07 11.53, 0.2 10.79 C0.33 10.04, 0.53 9.3, 0.79 8.59 C1.05 7.88, 1.37 7.18, 1.75 6.53 C2.13 5.87, 2.57 5.24, 3.05 4.66 C3.54 4.08, 4.08 3.54, 4.66 3.05 C5.24 2.57, 5.87 2.13, 6.53 1.75 C7.18 1.37, 7.88 1.05, 8.59 0.79 C9.3 0.53, 10.04 0.33, 10.79 0.2 C11.53 0.07, 12.3 0, 13.05 0 C13.81 0, 14.58 0.07, 15.32 0.2 C16.07 0.33, 16.81 0.53, 17.52 0.79 C18.23 1.05, 18.93 1.37, 19.58 1.75 C20.24 2.13, 20.87 2.57, 21.45 3.05 C22.03 3.54, 22.57 4.08, 23.06 4.66 C23.54 5.24, 23.98 5.87, 24.36 6.53 C24.74 7.18, 25.06 7.88, 25.32 8.59 C25.58 9.3, 25.78 10.04, 25.91 10.79 C26.04 11.53, 26.08 12.68, 26.11 13.05 C26.14 13.43, 26.14 12.68, 26.11 13.05" stroke="none" stroke-width="0" fill="#1e1e1e"></path><path d="M26.11 13.05 C26.11 13.81, 26.04 14.58, 25.91 15.32 C25.78 16.07, 25.58 16.81, 25.32 17.52 C25.06 18.23, 24.74 18.93, 24.36 19.58 C23.98 20.24, 23.54 20.87, 23.06 21.45 C22.57 22.03, 22.03 22.57, 21.45 23.06 C20.87 23.54, 20.24 23.98, 19.58 24.36 C18.93 24.74, 18.23 25.06, 17.52 25.32 C16.81 25.58, 16.07 25.78, 15.32 25.91 C14.58 26.04, 13.81 26.11, 13.05 26.11 C12.3 26.11, 11.53 26.04, 10.79 25.91 C10.04 25.78, 9.3 25.58, 8.59 25.32 C7.88 25.06, 7.18 24.74, 6.53 24.36 C5.87 23.98, 5.24 23.54, 4.66 23.06 C4.08 22.57, 3.54 22.03, 3.05 21.45 C2.57 20.87, 2.13 20.24, 1.75 19.58 C1.37 18.93, 1.05 18.23, 0.79 17.52 C0.53 16.81, 0.33 16.07, 0.2 15.32 C0.07 14.58, 0 13.81, 0 13.05 C0 12.3, 0.07 11.53, 0.2 10.79 C0.33 10.04, 0.53 9.3, 0.79 8.59 C1.05 7.88, 1.37 7.18, 1.75 6.53 C2.13 5.87, 2.57 5.24, 3.05 4.66 C3.54 4.08, 4.08 3.54, 4.66 3.05 C5.24 2.57, 5.87 2.13, 6.53 1.75 C7.18 1.37, 7.88 1.05, 8.59 0.79 C9.3 0.53, 10.04 0.33, 10.79 0.2 C11.53 0.07, 12.3 0, 13.05 0 C13.81 0, 14.58 0.07, 15.32 0.2 C16.07 0.33, 16.81 0.53, 17.52 0.79 C18.23 1.05, 18.93 1.37, 19.58 1.75 C20.24 2.13, 20.87 2.57, 21.45 3.05 C22.03 3.54, 22.57 4.08, 23.06 4.66 C23.54 5.24, 23.98 5.87, 24.36 6.53 C24.74 7.18, 25.06 7.88, 25.32 8.59 C25.58 9.3, 25.78 10.04, 25.91 10.79 C26.04 11.53, 26.08 12.68, 26.11 13.05 C26.14 13.43, 26.14 12.68, 26.11 13.05" stroke="#ffffff" stroke-width="1" fill="none"></path></g><g transform="translate(474.4516173800246 670.6189546966855) rotate(0 2.6666667461395264 12.286166856921739)"><text x="2.6666667461395264" y="17.22029146666151" font-family="Virgil, Segoe UI Emoji" font-size="19.657866971074785px" fill="#ffffff" text-anchor="middle" style="white-space: pre;" direction="ltr" dominant-baseline="alphabetic">1</text></g><g transform="translate(530.8779848554473 573.219117148784) rotate(0 6.991666793823242 12.286166856921739)"><text x="6.991666793823242" y="17.22029146666151" font-family="Virgil, Segoe UI Emoji" font-size="19.657866971074785px" fill="#ffffff" text-anchor="middle" style="white-space: pre;" direction="ltr" dominant-baseline="alphabetic">2</text></g><g transform="translate(657.577022598764 650.3824021792592) rotate(0 6.691666603088379 12.286166856921739)"><text x="6.691666603088379" y="17.22029146666151" font-family="Virgil, Segoe UI Emoji" font-size="19.657866971074785px" fill="#ffffff" text-anchor="middle" style="white-space: pre;" direction="ltr" dominant-baseline="alphabetic">3</text></g></svg>