<svg version="1.1" xmlns="http://www.w3.org/2000/svg" viewBox="0 0 1301.7334306794955 1056.4361706701434" width="1301.7334306794955" height="1056.4361706701434">
  <!-- svg-source:excalidraw -->
  
  
  <rect x="0" y="0" width="1301.7334306794955" height="1056.4361706701434" fill="transparent"></rect><g stroke-linecap="round" transform="translate(10 10) rotate(0 640.8667153397478 518.2180853350717)"><path d="M0 0 L1281.73 0 L1281.73 1036.44 L0 1036.44" stroke="none" stroke-width="0" fill="transparent"></path><path d="M0 0 C299.01 0, 598.02 0, 1281.73 0 M0 0 C446.67 0, 893.33 0, 1281.73 0 M1281.73 0 C1281.73 388.35, 1281.73 776.71, 1281.73 1036.44 M1281.73 0 C1281.73 360.55, 1281.73 721.1, 1281.73 1036.44 M1281.73 1036.44 C897.97 1036.44, 514.21 1036.44, 0 1036.44 M1281.73 1036.44 C970.16 1036.44, 658.59 1036.44, 0 1036.44 M0 1036.44 C0 795.44, 0 554.45, 0 0 M0 1036.44 C0 703.51, 0 370.59, 0 0" stroke="#ffffff" stroke-width="1" fill="none"></path></g><g stroke-linecap="round"><g transform="translate(241.27783004452203 623.5248442473165) rotate(0 51.07274744646111 0)"><path d="M0 0 C33.7 0, 67.41 0, 102.15 0 M0 0 C28.43 0, 56.85 0, 102.15 0" stroke="#1e1e1e" stroke-width="2" fill="none"></path></g></g><mask></mask><g stroke-linecap="round"><g transform="translate(832.7262989000819 625.4889539907151) rotate(0 51.07274744646088 0)"><path d="M0 0 C27.38 0, 54.76 0, 102.15 0 M0 0 C33.03 0, 66.05 0, 102.15 0" stroke="#1e1e1e" stroke-width="2" fill="none"></path></g></g><mask></mask><g stroke-linecap="round"><g transform="translate(937.1780339826246 707.2611622521049) rotate(0 51.07274744646088 0)"><path d="M0 0 C28.81 0, 57.62 0, 102.15 0 M0 0 C29.09 0, 58.18 0, 102.15 0" stroke="#1e1e1e" stroke-width="2" fill="none"></path></g></g><mask></mask><g stroke-linecap="round"><g transform="translate(344.41026084774376 543.6123930190045) rotate(0 51.07274744646111 0)"><path d="M0 0 C40.55 0, 81.1 0, 102.15 0 M0 0 C22.04 0, 44.08 0, 102.15 0" stroke="#1e1e1e" stroke-width="2" fill="none"></path></g></g><mask></mask><g stroke-linecap="round"><g transform="translate(137.82349334520268 704.2406118884976) rotate(0 51.07274744646111 0)"><path d="M0 0 C28.43 0, 56.85 0, 102.15 0 M0 0 C28.21 0, 56.42 0, 102.15 0" stroke="#1e1e1e" stroke-width="2" fill="none"></path></g></g><mask></mask><g stroke-linecap="round"><g transform="translate(727.6050212378505 544.5139838416609) rotate(0 51.07274744646088 0)"><path d="M0 0 C33.03 0, 66.05 0, 102.15 0 M0 0 C31.36 0, 62.72 0, 102.15 0" stroke="#1e1e1e" stroke-width="2" fill="none"></path></g></g><mask></mask><g stroke-linecap="round"><g transform="translate(447.3098695934209 463.32142169837095) rotate(0 51.07274744646111 0)"><path d="M0 0 C30.1 0, 60.2 0, 102.15 0 M0 0 C35.33 0, 70.66 0, 102.15 0" stroke="#1e1e1e" stroke-width="2" fill="none"></path></g></g><mask></mask><g stroke-linecap="round"><g transform="translate(625.4295758101848 463.6212954196719) rotate(0 51.07274744646111 0)"><path d="M0 0 C20.89 0, 41.79 0, 102.15 0 M0 0 C23.17 0, 46.35 0, 102.15 0" stroke="#1e1e1e" stroke-width="2" fill="none"></path></g></g><mask></mask><g stroke-linecap="round"><g transform="translate(549.894176135886 383.03045037773745) rotate(0 36.347766572650926 0)"><path d="M0 0 C27.24 0, 54.48 0, 72.7 0 M0 0 C25.29 0, 50.58 0, 72.7 0" stroke="#1e1e1e" stroke-width="2" fill="none"></path></g></g><mask></mask><g stroke-linecap="round"><g transform="translate(343.85174230581606 622.8925648620608) rotate(0 0 -39.623798088289234)"><path d="M0 0 C0 -17.1, 0 -34.2, 0 -79.25 M0 0 C0 -18.06, 0 -36.13, 0 -79.25" stroke="#1e1e1e" stroke-width="2" fill="none"></path></g></g><mask></mask><g stroke-linecap="round"><g transform="translate(831.1733569286489 624.8566746054594) rotate(0 0 -39.623798088289234)"><path d="M0 0 C0 -21.89, 0 -43.77, 0 -79.25 M0 0 C0 -27.35, 0 -54.7, 0 -79.25" stroke="#1e1e1e" stroke-width="2" fill="none"></path></g></g><mask></mask><g stroke-linecap="round"><g transform="translate(935.625092011192 706.6288828668492) rotate(0 0 -39.623798088289234)"><path d="M0 0 C0 -24.33, 0 -48.66, 0 -79.25 M0 0 C0 -17.16, 0 -34.33, 0 -79.25" stroke="#1e1e1e" stroke-width="2" fill="none"></path></g></g><mask></mask><g stroke-linecap="round"><g transform="translate(446.9841731090369 542.9801136337487) rotate(0 0 -39.623798088289234)"><path d="M0 0 C0 -27.41, 0 -54.82, 0 -79.25 M0 0 C0 -17.38, 0 -34.77, 0 -79.25" stroke="#1e1e1e" stroke-width="2" fill="none"></path></g></g><mask></mask><g stroke-linecap="round"><g transform="translate(240.39740560649625 703.6083325032419) rotate(0 0 -39.623798088289234)"><path d="M0 0 C0 -17.98, 0 -35.96, 0 -79.25 M0 0 C0 -27.68, 0 -55.36, 0 -79.25" stroke="#1e1e1e" stroke-width="2" fill="none"></path></g></g><mask></mask><g stroke-linecap="round"><g transform="translate(727.1056957170435 543.2799873550496) rotate(0 0 -39.623798088289234)"><path d="M0 0 C0 -27.57, 0 -55.14, 0 -79.25 M0 0 C0 -23.73, 0 -47.45, 0 -79.25" stroke="#1e1e1e" stroke-width="2" fill="none"></path></g></g><mask></mask><g stroke-linecap="round"><g transform="translate(549.8837818547145 462.68914231311527) rotate(0 0 -39.623798088289234)"><path d="M0 0 C0 -20.21, 0 -40.43, 0 -79.25 M0 0 C0 -24.88, 0 -49.75, 0 -79.25" stroke="#1e1e1e" stroke-width="2" fill="none"></path></g></g><mask></mask><g stroke-linecap="round"><g transform="translate(624.0991782085766 463.0594736754006) rotate(0 0 -39.623798088289234)"><path d="M0 0 C0 -17.38, 0 -34.77, 0 -79.25 M0 0 C0 -16.49, 0 -32.99, 0 -79.25" stroke="#1e1e1e" stroke-width="2" fill="none"></path></g></g><mask></mask><g stroke-linecap="round"><g stroke-opacity="0.8" fill-opacity="0.8" transform="translate(173.68491313867753 570.7302154711622) rotate(0 89.50112287697198 -82.72073478023164)"><path d="M0 0 C62.52 -57.78, 125.04 -115.57, 179 -165.44 M0 0 C42.68 -39.45, 85.36 -78.9, 179 -165.44" stroke="#2c79c2" stroke-width="2" fill="none"></path></g><g stroke-opacity="0.8" fill-opacity="0.8" transform="translate(173.68491313867753 570.7302154711622) rotate(0 89.50112287697198 -82.72073478023164)"><path d="M167.55 -143.22 C171.55 -150.98, 175.55 -158.74, 179 -165.44 M167.55 -143.22 C170.28 -148.52, 173.01 -153.82, 179 -165.44" stroke="#2c79c2" stroke-width="2" fill="none"></path></g><g stroke-opacity="0.8" fill-opacity="0.8" transform="translate(173.68491313867753 570.7302154711622) rotate(0 89.50112287697198 -82.72073478023164)"><path d="M155.95 -155.78 C164 -159.15, 172.05 -162.53, 179 -165.44 M155.95 -155.78 C161.44 -158.08, 166.94 -160.39, 179 -165.44" stroke="#2c79c2" stroke-width="2" fill="none"></path></g></g><mask></mask><g stroke-linecap="round"><g stroke-opacity="0.8" fill-opacity="0.8" transform="translate(853.4085428719018 429.5748596256943) rotate(0 83.17276065334772 80.91263128776754)"><path d="M0 0 C49.81 48.45, 99.61 96.9, 166.35 161.83 M0 0 C40.44 39.34, 80.87 78.68, 166.35 161.83" stroke="#2c79c2" stroke-width="2" fill="none"></path></g><g stroke-opacity="0.8" fill-opacity="0.8" transform="translate(853.4085428719018 429.5748596256943) rotate(0 83.17276065334772 80.91263128776754)"><path d="M143.54 151.57 C150.37 154.64, 157.2 157.71, 166.35 161.83 M143.54 151.57 C149.09 154.07, 154.63 156.56, 166.35 161.83" stroke="#2c79c2" stroke-width="2" fill="none"></path></g><g stroke-opacity="0.8" fill-opacity="0.8" transform="translate(853.4085428719018 429.5748596256943) rotate(0 83.17276065334772 80.91263128776754)"><path d="M155.47 139.32 C158.73 146.05, 161.98 152.79, 166.35 161.83 M155.47 139.32 C158.11 144.79, 160.76 150.26, 166.35 161.83" stroke="#2c79c2" stroke-width="2" fill="none"></path></g></g><mask></mask><g stroke-opacity="0.8" fill-opacity="0.8" transform="translate(517.3517805309616 299.83329941903156) rotate(0 66.82499694824219 18.997130695210544)"><text x="66.82499694824219" y="26.626378382407097" font-family="Virgil, Segoe UI Emoji" font-size="30.39540911233687px" fill="#1e1e1e" text-anchor="middle" style="white-space: pre;" direction="ltr" dominant-baseline="alphabetic">Maturité</text></g><g stroke-opacity="0.8" fill-opacity="0.8" transform="translate(553.4347935423316 816.116584927302) rotate(0 46.724998474121094 20.442660988698947)"><text x="46.724998474121094" y="28.652433641760453" font-family="Virgil, Segoe UI Emoji" font-size="32.708257581918325px" fill="#1e1e1e" text-anchor="middle" style="white-space: pre;" direction="ltr" dominant-baseline="alphabetic">3 ans</text></g><g stroke-opacity="0.8" fill-opacity="0.8" transform="translate(156.86135226318584 452.299436714765) rotate(316.43548808304723 71.06666564941406 19.056995315843658)"><text x="71.06666564941406" y="26.710284634686474" font-family="Virgil, Segoe UI Emoji" font-size="30.49119250534985px" fill="#1e1e1e" text-anchor="middle" style="white-space: pre;" direction="ltr" dominant-baseline="alphabetic">Formation</text></g><g stroke-opacity="0.8" fill-opacity="0.8" transform="translate(876.9540025734254 454.88830852019134) rotate(43.27743169329176 77.70833587646484 19.056995315843658)"><text x="77.70833587646484" y="26.710284634686474" font-family="Virgil, Segoe UI Emoji" font-size="30.49119250534985px" fill="#1e1e1e" text-anchor="middle" style="white-space: pre;" direction="ltr" dominant-baseline="alphabetic">Application</text></g><g stroke-linecap="round"><g stroke-opacity="0.8" fill-opacity="0.8" transform="translate(165.3233277697459 861.8942643385983) rotate(0 430.2652146802809 -2.935323286240049)"><path d="M0.52 -1.38 C243.31 -6.56, 485.38 -6.73, 859.11 -5.77 M0.28 0.35 C331.33 -2.44, 664.3 -4.84, 860.25 -4.29" stroke="#1e1e1e" stroke-width="2" fill="none"></path></g><g stroke-opacity="0.8" fill-opacity="0.8" transform="translate(165.3233277697459 861.8942643385983) rotate(0 430.2652146802809 -2.935323286240049)"><path d="M24.58 -11.86 C17.37 -8.86, 9.22 -5.07, -0.37 -3.2 M24.28 -9.69 C14.06 -5.84, 6.23 -3.38, 1.06 -1.35" stroke="#1e1e1e" stroke-width="2" fill="none"></path></g><g stroke-opacity="0.8" fill-opacity="0.8" transform="translate(165.3233277697459 861.8942643385983) rotate(0 430.2652146802809 -2.935323286240049)"><path d="M24.73 5.24 C17.42 3.4, 9.22 2.35, -0.37 -3.2 M24.43 7.41 C14.13 4.65, 6.25 0.51, 1.06 -1.35" stroke="#1e1e1e" stroke-width="2" fill="none"></path></g><g stroke-opacity="0.8" fill-opacity="0.8" transform="translate(165.3233277697459 861.8942643385983) rotate(0 430.2652146802809 -2.935323286240049)"><path d="M837.41 2.56 C843.41 0.36, 848.53 -0.75, 859.36 -6.11 M837.12 4.73 C844.99 1.78, 855.27 -2.45, 860.8 -4.27" stroke="#1e1e1e" stroke-width="2" fill="none"></path></g><g stroke-opacity="0.8" fill-opacity="0.8" transform="translate(165.3233277697459 861.8942643385983) rotate(0 430.2652146802809 -2.935323286240049)"><path d="M837.4 -14.54 C843.47 -11.9, 848.59 -8.17, 859.36 -6.11 M837.1 -12.38 C844.99 -8.72, 855.28 -6.34, 860.8 -4.27" stroke="#1e1e1e" stroke-width="2" fill="none"></path></g></g><mask></mask><g stroke-linecap="round"><g stroke-opacity="0.1" fill-opacity="0.1" transform="translate(586.83656116672 359.97135631939364) rotate(0 0 274.40215374957353)"><path d="M0 0 C0 91.47, 0 457.34, 0 548.8" stroke="#1e1e1e" stroke-width="2.5" fill="none" stroke-dasharray="8 10"></path></g></g><mask></mask><g stroke-linecap="round"><g transform="translate(482.49748086486534 1019.2224432849544) rotate(0 0 0)"><path d="" stroke="transparent" stroke-width="1.5" fill="none" stroke-dasharray="8 9"></path></g></g><mask></mask><g stroke-opacity="0.8" fill-opacity="1" transform="translate(251.94484745941463 633.0768289022712) rotate(0 92.03333282470703 32.011742789054324)"><text x="92.03333282470703" y="22.433829346569265" font-family="Virgil, Segoe UI Emoji" font-size="25.609394231243453px" fill="#ffffff" text-anchor="middle" style="white-space: pre;" direction="ltr" dominant-baseline="alphabetic">Champ </text><text x="92.03333282470703" y="54.44557213562358" font-family="Virgil, Segoe UI Emoji" font-size="25.609394231243453px" fill="#ffffff" text-anchor="middle" style="white-space: pre;" direction="ltr" dominant-baseline="alphabetic">de Compétence</text></g><g transform="translate(296.00667672554346 148.51659121331198) rotate(0 296.0083312988281 53.35958688436223)"><text x="296.0083312988281" y="37.39439848856105" font-family="Virgil, Segoe UI Emoji" font-size="42.68766950748979px" fill="#1e1e1e" text-anchor="middle" style="white-space: pre;" direction="ltr" dominant-baseline="alphabetic">Vision Classique</text><text x="296.0083312988281" y="90.75398537292328" font-family="Virgil, Segoe UI Emoji" font-size="42.68766950748979px" fill="#1e1e1e" text-anchor="middle" style="white-space: pre;" direction="ltr" dominant-baseline="alphabetic">de la montée en compétence</text></g><g stroke-linecap="round" transform="translate(1067.231658170385 677.0851017059467) rotate(0 57.548527281849374 18.564041058661132)"><path d="M0 0 L115.1 0 L115.1 37.13 L0 37.13" stroke="none" stroke-width="0" fill="#1e1e1e"></path><path d="M0 0 C38.53 0, 77.07 0, 115.1 0 M0 0 C34.8 0, 69.61 0, 115.1 0 M115.1 0 C115.1 8.78, 115.1 17.56, 115.1 37.13 M115.1 0 C115.1 8, 115.1 16, 115.1 37.13 M115.1 37.13 C75.96 37.13, 36.82 37.13, 0 37.13 M115.1 37.13 C69.79 37.13, 24.49 37.13, 0 37.13 M0 37.13 C0 25.42, 0 13.7, 0 0 M0 37.13 C0 25.49, 0 13.85, 0 0" stroke="#1e1e1e" stroke-width="1" fill="none"></path></g><g transform="translate(1075.7886805095704 684.4672122070735) rotate(0 50.766666412353516 12.286166856921739)"><text x="50.766666412353516" y="17.22029146666151" font-family="Virgil, Segoe UI Emoji" font-size="19.657866971074785px" fill="#ffffff" text-anchor="middle" style="white-space: pre;" direction="ltr" dominant-baseline="alphabetic">Conformité</text></g><g transform="translate(474.45161738002435 670.6189546966855) rotate(0 2.6666667461395264 12.286166856921739)"><text x="2.6666667461395264" y="17.22029146666151" font-family="Virgil, Segoe UI Emoji" font-size="19.657866971074785px" fill="#ffffff" text-anchor="middle" style="white-space: pre;" direction="ltr" dominant-baseline="alphabetic">1</text></g><g transform="translate(530.8779848554473 573.219117148784) rotate(0 6.991666793823242 12.286166856921739)"><text x="6.991666793823242" y="17.22029146666151" font-family="Virgil, Segoe UI Emoji" font-size="19.657866971074785px" fill="#ffffff" text-anchor="middle" style="white-space: pre;" direction="ltr" dominant-baseline="alphabetic">2</text></g></svg>