<svg version="1.1" xmlns="http://www.w3.org/2000/svg" viewBox="0 0 631.1610526541081 647.5077943714518" width="631.1610526541081" height="647.5077943714518">
  <!-- svg-source:excalidraw -->
  
  <defs>
  <style class="style-fonts">
    @font-face {
        font-family: 'TT Norms Pro';
        src:
          url('/fonts/tt-norms-pro/bold.woff2') format('woff2'),
          url('/fonts/tt-norms-pro/bold.woff') format('woff');
        font-weight: 500;
        font-style: normal;
        font-display: swap;
      }
    </style>
  </defs>
  <rect x="0" y="0" width="631.1610526541081" height="647.5077943714518" fill="#ffffff"></rect><g stroke-linecap="round" transform="translate(246.8643789370658 48.98024986140632) rotate(0 64.5 65.5)"><path d="M129 65.5 C129 68.13, 128.84 70.78, 128.53 73.4 C128.22 76.01, 127.75 78.62, 127.13 81.18 C126.51 83.73, 125.73 86.27, 124.81 88.73 C123.89 91.19, 122.82 93.61, 121.61 95.94 C120.41 98.27, 119.05 100.54, 117.58 102.71 C116.11 104.87, 114.5 106.96, 112.78 108.93 C111.06 110.9, 109.21 112.78, 107.27 114.53 C105.33 116.27, 103.27 117.91, 101.14 119.41 C99.01 120.9, 96.77 122.27, 94.47 123.5 C92.18 124.72, 89.8 125.81, 87.37 126.74 C84.95 127.68, 82.45 128.47, 79.94 129.1 C77.42 129.73, 74.85 130.21, 72.27 130.52 C69.7 130.84, 67.09 131, 64.5 131 C61.91 131, 59.3 130.84, 56.73 130.52 C54.15 130.21, 51.58 129.73, 49.06 129.1 C46.55 128.47, 44.05 127.68, 41.63 126.74 C39.2 125.81, 36.82 124.72, 34.53 123.5 C32.23 122.27, 29.99 120.9, 27.86 119.41 C25.73 117.91, 23.67 116.27, 21.73 114.53 C19.79 112.78, 17.94 110.9, 16.22 108.93 C14.5 106.96, 12.89 104.87, 11.42 102.71 C9.95 100.54, 8.59 98.27, 7.39 95.94 C6.18 93.61, 5.11 91.19, 4.19 88.73 C3.27 86.27, 2.49 83.73, 1.87 81.18 C1.25 78.62, 0.78 76.01, 0.47 73.4 C0.16 70.78, 0 68.13, 0 65.5 C0 62.87, 0.16 60.22, 0.47 57.6 C0.78 54.99, 1.25 52.38, 1.87 49.82 C2.49 47.27, 3.27 44.73, 4.19 42.27 C5.11 39.81, 6.18 37.39, 7.39 35.06 C8.59 32.73, 9.95 30.46, 11.42 28.29 C12.89 26.13, 14.5 24.04, 16.22 22.07 C17.94 20.1, 19.79 18.22, 21.73 16.47 C23.67 14.73, 25.73 13.09, 27.86 11.59 C29.99 10.1, 32.23 8.73, 34.53 7.5 C36.82 6.28, 39.2 5.19, 41.63 4.26 C44.05 3.32, 46.55 2.53, 49.06 1.9 C51.58 1.27, 54.15 0.79, 56.73 0.48 C59.3 0.16, 61.91 0, 64.5 0 C67.09 0, 69.7 0.16, 72.27 0.48 C74.85 0.79, 77.42 1.27, 79.94 1.9 C82.45 2.53, 84.95 3.32, 87.37 4.26 C89.8 5.19, 92.18 6.28, 94.47 7.5 C96.77 8.73, 99.01 10.1, 101.14 11.59 C103.27 13.09, 105.33 14.73, 107.27 16.47 C109.21 18.22, 111.06 20.1, 112.78 22.07 C114.5 24.04, 116.11 26.13, 117.58 28.29 C119.05 30.46, 120.41 32.73, 121.61 35.06 C122.82 37.39, 123.89 39.81, 124.81 42.27 C125.73 44.73, 126.51 47.27, 127.13 49.82 C127.75 52.38, 128.22 54.99, 128.53 57.6 C128.84 60.22, 129 62.87, 129 65.5" stroke="#1e1e1e" stroke-width="2" fill="none"></path></g><g stroke-linecap="round" transform="translate(447.8643789370658 355.9802498614063) rotate(0 64.5 65.5)"><path d="M129 65.5 C129 68.13, 128.84 70.78, 128.53 73.4 C128.22 76.01, 127.75 78.62, 127.13 81.18 C126.51 83.73, 125.73 86.27, 124.81 88.73 C123.89 91.19, 122.82 93.61, 121.61 95.94 C120.41 98.27, 119.05 100.54, 117.58 102.71 C116.11 104.87, 114.5 106.96, 112.78 108.93 C111.06 110.9, 109.21 112.78, 107.27 114.53 C105.33 116.27, 103.27 117.91, 101.14 119.41 C99.01 120.9, 96.77 122.27, 94.47 123.5 C92.18 124.72, 89.8 125.81, 87.37 126.74 C84.95 127.68, 82.45 128.47, 79.94 129.1 C77.42 129.73, 74.85 130.21, 72.27 130.52 C69.7 130.84, 67.09 131, 64.5 131 C61.91 131, 59.3 130.84, 56.73 130.52 C54.15 130.21, 51.58 129.73, 49.06 129.1 C46.55 128.47, 44.05 127.68, 41.63 126.74 C39.2 125.81, 36.82 124.72, 34.53 123.5 C32.23 122.27, 29.99 120.9, 27.86 119.41 C25.73 117.91, 23.67 116.27, 21.73 114.53 C19.79 112.78, 17.94 110.9, 16.22 108.93 C14.5 106.96, 12.89 104.87, 11.42 102.71 C9.95 100.54, 8.59 98.27, 7.39 95.94 C6.18 93.61, 5.11 91.19, 4.19 88.73 C3.27 86.27, 2.49 83.73, 1.87 81.18 C1.25 78.62, 0.78 76.01, 0.47 73.4 C0.16 70.78, 0 68.13, 0 65.5 C0 62.87, 0.16 60.22, 0.47 57.6 C0.78 54.99, 1.25 52.38, 1.87 49.82 C2.49 47.27, 3.27 44.73, 4.19 42.27 C5.11 39.81, 6.18 37.39, 7.39 35.06 C8.59 32.73, 9.95 30.46, 11.42 28.29 C12.89 26.13, 14.5 24.04, 16.22 22.07 C17.94 20.1, 19.79 18.22, 21.73 16.47 C23.67 14.73, 25.73 13.09, 27.86 11.59 C29.99 10.1, 32.23 8.73, 34.53 7.5 C36.82 6.28, 39.2 5.19, 41.63 4.26 C44.05 3.32, 46.55 2.53, 49.06 1.9 C51.58 1.27, 54.15 0.79, 56.73 0.48 C59.3 0.16, 61.91 0, 64.5 0 C67.09 0, 69.7 0.16, 72.27 0.48 C74.85 0.79, 77.42 1.27, 79.94 1.9 C82.45 2.53, 84.95 3.32, 87.37 4.26 C89.8 5.19, 92.18 6.28, 94.47 7.5 C96.77 8.73, 99.01 10.1, 101.14 11.59 C103.27 13.09, 105.33 14.73, 107.27 16.47 C109.21 18.22, 111.06 20.1, 112.78 22.07 C114.5 24.04, 116.11 26.13, 117.58 28.29 C119.05 30.46, 120.41 32.73, 121.61 35.06 C122.82 37.39, 123.89 39.81, 124.81 42.27 C125.73 44.73, 126.51 47.27, 127.13 49.82 C127.75 52.38, 128.22 54.99, 128.53 57.6 C128.84 60.22, 129 62.87, 129 65.5" stroke="#1e1e1e" stroke-width="2" fill="none"></path></g><g stroke-linecap="round" transform="translate(47.86437893706625 352.9802498614063) rotate(0 64.5 65.5)"><path d="M129 65.5 C129 68.13, 128.84 70.78, 128.53 73.4 C128.22 76.01, 127.75 78.62, 127.13 81.18 C126.51 83.73, 125.73 86.27, 124.81 88.73 C123.89 91.19, 122.82 93.61, 121.61 95.94 C120.41 98.27, 119.05 100.54, 117.58 102.71 C116.11 104.87, 114.5 106.96, 112.78 108.93 C111.06 110.9, 109.21 112.78, 107.27 114.53 C105.33 116.27, 103.27 117.91, 101.14 119.41 C99.01 120.9, 96.77 122.27, 94.47 123.5 C92.18 124.72, 89.8 125.81, 87.37 126.74 C84.95 127.68, 82.45 128.47, 79.94 129.1 C77.42 129.73, 74.85 130.21, 72.27 130.52 C69.7 130.84, 67.09 131, 64.5 131 C61.91 131, 59.3 130.84, 56.73 130.52 C54.15 130.21, 51.58 129.73, 49.06 129.1 C46.55 128.47, 44.05 127.68, 41.63 126.74 C39.2 125.81, 36.82 124.72, 34.53 123.5 C32.23 122.27, 29.99 120.9, 27.86 119.41 C25.73 117.91, 23.67 116.27, 21.73 114.53 C19.79 112.78, 17.94 110.9, 16.22 108.93 C14.5 106.96, 12.89 104.87, 11.42 102.71 C9.95 100.54, 8.59 98.27, 7.39 95.94 C6.18 93.61, 5.11 91.19, 4.19 88.73 C3.27 86.27, 2.49 83.73, 1.87 81.18 C1.25 78.62, 0.78 76.01, 0.47 73.4 C0.16 70.78, 0 68.13, 0 65.5 C0 62.87, 0.16 60.22, 0.47 57.6 C0.78 54.99, 1.25 52.38, 1.87 49.82 C2.49 47.27, 3.27 44.73, 4.19 42.27 C5.11 39.81, 6.18 37.39, 7.39 35.06 C8.59 32.73, 9.95 30.46, 11.42 28.29 C12.89 26.13, 14.5 24.04, 16.22 22.07 C17.94 20.1, 19.79 18.22, 21.73 16.47 C23.67 14.73, 25.73 13.09, 27.86 11.59 C29.99 10.1, 32.23 8.73, 34.53 7.5 C36.82 6.28, 39.2 5.19, 41.63 4.26 C44.05 3.32, 46.55 2.53, 49.06 1.9 C51.58 1.27, 54.15 0.79, 56.73 0.48 C59.3 0.16, 61.91 0, 64.5 0 C67.09 0, 69.7 0.16, 72.27 0.48 C74.85 0.79, 77.42 1.27, 79.94 1.9 C82.45 2.53, 84.95 3.32, 87.37 4.26 C89.8 5.19, 92.18 6.28, 94.47 7.5 C96.77 8.73, 99.01 10.1, 101.14 11.59 C103.27 13.09, 105.33 14.73, 107.27 16.47 C109.21 18.22, 111.06 20.1, 112.78 22.07 C114.5 24.04, 116.11 26.13, 117.58 28.29 C119.05 30.46, 120.41 32.73, 121.61 35.06 C122.82 37.39, 123.89 39.81, 124.81 42.27 C125.73 44.73, 126.51 47.27, 127.13 49.82 C127.75 52.38, 128.22 54.99, 128.53 57.6 C128.84 60.22, 129 62.87, 129 65.5" stroke="#1e1e1e" stroke-width="2" fill="none"></path></g><g transform="translate(262.7520590310605 100.98024986140632) rotate(0 49.86666488647461 12.5)"><text x="0" y="17.52" font-family="TT Norms Pro, Segoe UI Emoji" font-size="20px" fill="#1e1e1e" text-anchor="start" style="white-space: pre;" direction="ltr" dominant-baseline="alphabetic">Experience</text></g><g transform="translate(457.8643789370658 407.9802498614063) rotate(0 54.29999923706055 12.5)"><text x="0" y="17.52" font-family="TT Norms Pro, Segoe UI Emoji" font-size="20px" fill="#1e1e1e" text-anchor="start" style="white-space: pre;" direction="ltr" dominant-baseline="alphabetic">Technicians</text></g><g transform="translate(77.86437893706625 406.9802498614063) rotate(0 33.58333206176758 12.5)"><text x="0" y="17.52" font-family="TT Norms Pro, Segoe UI Emoji" font-size="20px" fill="#1e1e1e" text-anchor="start" style="white-space: pre;" direction="ltr" dominant-baseline="alphabetic">Leaders</text></g><g stroke-linecap="round"><g transform="translate(267.57338736308293 164.94657587346455) rotate(0 -59.42767879838243 99.5046464964195)"><path d="M0 0 C-19.81 33.17, -99.05 165.84, -118.86 199.01 M0 0 C-19.81 33.17, -99.05 165.84, -118.86 199.01" stroke="#1e1e1e" stroke-width="2" fill="none"></path></g></g><mask></mask><g stroke-linecap="round"><g transform="translate(357.2487218011579 161.13327845368252) rotate(0 57.94729690462532 102.78147702026666)"><path d="M0 0 C19.32 34.26, 96.58 171.3, 115.89 205.56 M0 0 C19.32 34.26, 96.58 171.3, 115.89 205.56" stroke="#1e1e1e" stroke-width="2" fill="none"></path></g></g><mask></mask><g stroke-linecap="round"><g transform="translate(175.8643789370658 433.9802498614063) rotate(0 135.88606628119555 1.8886066281196463)"><path d="M0 0 C45.3 0.63, 226.48 3.15, 271.77 3.78 M0 0 C45.3 0.63, 226.48 3.15, 271.77 3.78" stroke="#1e1e1e" stroke-width="2" fill="none"></path></g></g><mask></mask><g stroke-linecap="round" transform="translate(15.73644669496798 4.513401666850029) rotate(327.4664217983451 299.8440796320863 319.240495518876)"><path d="M253.22 4.13 C272.67 -4.45, 296.82 -1.12, 318.13 0.2 C339.43 1.51, 360.37 5.76, 381.04 12 C401.7 18.23, 423.03 26.63, 442.12 37.6 C461.2 48.57, 479.37 62.96, 495.55 77.83 C511.72 92.69, 526.4 108.68, 539.14 126.8 C551.88 144.92, 562.84 165.42, 571.99 186.55 C581.13 207.68, 589.41 231.08, 594 253.58 C598.6 276.08, 599.72 298.84, 599.54 321.56 C599.37 344.29, 597.53 367.77, 592.93 389.93 C588.34 412.09, 581.22 433.8, 571.98 454.53 C562.73 475.26, 550.68 496.07, 537.44 514.3 C524.2 532.53, 509.06 549.23, 492.53 563.9 C476.01 578.57, 457.21 591.72, 438.28 602.32 C419.36 612.93, 399.77 621.42, 378.99 627.53 C358.2 633.65, 335.24 637.89, 313.57 639.03 C291.9 640.18, 269.98 638.27, 248.95 634.41 C227.93 630.55, 207.25 624.48, 187.41 615.88 C167.58 607.27, 147.58 595.75, 129.95 582.76 C112.33 569.77, 96.47 554.69, 81.65 537.95 C66.84 521.22, 52.07 502.13, 41.05 482.34 C30.03 462.55, 22.25 440.83, 15.54 419.22 C8.82 397.6, 3 375.54, 0.76 352.64 C-1.48 329.75, -0.47 304.69, 2.08 281.83 C4.62 258.96, 9.06 237.09, 16.02 215.47 C22.97 193.85, 32.66 171.6, 43.8 152.1 C54.93 132.6, 68.08 114.84, 82.83 98.47 C97.58 82.1, 114.31 66.52, 132.3 53.87 C150.28 41.21, 168.92 31.07, 190.75 22.52 C212.58 13.97, 249.72 5.19, 263.3 2.57 C276.89 -0.06, 271.77 1.36, 272.26 6.77 M176.67 27.97 C193.15 14.19, 216.96 11.26, 237.75 6.53 C258.54 1.8, 279.87 -0.78, 301.4 -0.43 C322.92 -0.07, 345.9 3.6, 366.9 8.65 C387.9 13.7, 408.09 19.95, 427.43 29.85 C446.76 39.76, 466 53.83, 482.93 68.09 C499.86 82.34, 515.03 98.2, 529.02 115.38 C543 132.56, 556.86 151.12, 566.84 171.18 C576.83 191.24, 583.74 213.69, 588.94 235.74 C594.14 257.79, 596.88 280.37, 598.05 303.48 C599.21 326.59, 599.25 351.91, 595.93 374.4 C592.62 396.88, 586.34 417.17, 578.15 438.42 C569.95 459.66, 558.94 482.63, 546.77 501.85 C534.6 521.08, 520.84 538.18, 505.12 553.76 C489.4 569.34, 471.04 584.08, 452.44 595.33 C433.85 606.59, 413.88 614.31, 393.55 621.27 C373.22 628.24, 351.73 634.41, 330.49 637.13 C309.25 639.85, 287.58 640.31, 266.13 637.59 C244.69 634.86, 222.18 628.63, 201.81 620.79 C181.43 612.95, 162.12 602.42, 143.89 590.56 C125.66 578.69, 107.95 565.41, 92.44 549.61 C76.92 533.81, 62.82 514.68, 50.78 495.75 C38.74 476.82, 28.07 457.35, 20.2 436.04 C12.33 414.74, 6.92 390.71, 3.54 367.92 C0.17 345.13, -1.39 321.84, -0.06 299.3 C1.27 276.77, 5.65 254.71, 11.5 232.73 C17.36 210.75, 24.99 187.81, 35.08 167.43 C45.16 147.05, 57.86 127.72, 72 110.43 C86.15 93.13, 102.49 77.21, 119.93 63.66 C137.38 50.1, 166.84 33.83, 176.65 29.1 C186.47 24.37, 176.97 30.59, 178.82 35.27" stroke="#6741d9" stroke-width="2" fill="none"></path></g><g stroke-linecap="round" transform="translate(449.5433347495323 48.59668685693242) rotate(0 71.9266330721207 23.016522583078597)"><path d="M11.51 0 C38.9 -1.55, 74 3.28, 132.35 0 C141.51 -3.05, 143.98 7.26, 143.85 11.51 C147.24 19.96, 141.1 28.91, 143.85 34.52 C144.48 44.61, 143.03 45.77, 132.35 46.03 C98.7 45.37, 63.79 43.21, 11.51 46.03 C3.24 48.26, -0.1 40.9, 0 34.52 C3.09 26.33, -0.2 20.71, 0 11.51 C-0.66 3.12, 3.94 1.46, 11.51 0" stroke="none" stroke-width="0" fill="#6741d9"></path><path d="M11.51 0 C58.09 0.03, 105.98 0.3, 132.35 0 M11.51 0 C49.88 0.28, 90.13 -0.08, 132.35 0 M132.35 0 C140.26 1.13, 142.72 2.07, 143.85 11.51 M132.35 0 C138.19 -1.19, 145.96 6.04, 143.85 11.51 M143.85 11.51 C144.02 19.73, 142.67 24.82, 143.85 34.52 M143.85 11.51 C143.56 19.02, 144.65 26.52, 143.85 34.52 M143.85 34.52 C142.7 44.02, 139.06 46.97, 132.35 46.03 M143.85 34.52 C144.64 44.12, 139.95 47.06, 132.35 46.03 M132.35 46.03 C86.76 45.88, 40.04 43.39, 11.51 46.03 M132.35 46.03 C84.54 45.11, 37.21 44.21, 11.51 46.03 M11.51 46.03 C2.51 46.55, -1.76 42.21, 0 34.52 M11.51 46.03 C4.05 47.41, 1.03 42.49, 0 34.52 M0 34.52 C2.02 27.75, 1.06 24.42, 0 11.51 M0 34.52 C-0.2 26.16, -0.21 19.03, 0 11.51 M0 11.51 C0.86 3.29, 2.91 -0.28, 11.51 0 M0 11.51 C2.3 2.54, 5.26 1.55, 11.51 0" stroke="#6741d9" stroke-width="2" fill="none"></path></g><g transform="translate(476.6990799745586 59.48264051725738) rotate(0 43.24166488647461 15.074999999999989)"><text x="0" y="21.129119999999972" font-family="TT Norms Pro, Segoe UI Emoji" font-size="24.119999999999965px" fill="#ffffff" text-anchor="start" style="white-space: pre;" direction="ltr" dominant-baseline="alphabetic">Culture</text></g></svg>