<svg version="1.1" xmlns="http://www.w3.org/2000/svg" viewBox="0 0 1357.6157685007665 1199.9523432100787" width="1357.6157685007665" height="1199.9523432100787">
  <!-- svg-source:excalidraw -->
  
  <defs>
    <style class="style-fonts">
      @font-face {
        font-family: 'TT Norms Pro';
        src:
          url('/fonts/tt-norms-pro/bold.woff2') format('woff2'),
          url('/fonts/tt-norms-pro/bold.woff') format('woff');
        font-weight: 500;
        font-style: normal;
        font-display: swap;
      }
    </style>
    
  </defs>
  <g stroke-linecap="round" transform="translate(10 122.61673235049284) rotate(0 663.0310117135273 94.31651334353796)"><path d="M32 0 C429.9 3.02, 828.73 2.09, 1294.06 0 M32 0 C376.24 2.44, 720.97 2.79, 1294.06 0 M1294.06 0 C1313.45 1.36, 1327.67 9.57, 1326.06 32 M1294.06 0 C1316.66 -0.03, 1328.22 8.56, 1326.06 32 M1326.06 32 C1323.55 78.05, 1325.75 126.04, 1326.06 156.63 M1326.06 32 C1326.06 77.44, 1325.14 122.28, 1326.06 156.63 M1326.06 156.63 C1327.29 176.97, 1314.3 188.15, 1294.06 188.63 M1326.06 156.63 C1325.95 180.1, 1316.44 188.8, 1294.06 188.63 M1294.06 188.63 C877.7 186.31, 460.8 186.18, 32 188.63 M1294.06 188.63 C918.33 189.98, 542.28 189.45, 32 188.63 M32 188.63 C10.63 187, -1.35 179.95, 0 156.63 M32 188.63 C8.64 189.58, 0.77 176.33, 0 156.63 M0 156.63 C2.61 107.02, 2.22 62.29, 0 32 M0 156.63 C-0.39 111.22, 1.23 63.99, 0 32 M0 32 C-1.86 8.96, 12.04 -0.41, 32 0 M0 32 C0.68 8.69, 9.43 -1.47, 32 0" stroke="#1e1e1e" stroke-width="2" fill="none"></path></g><g stroke-linecap="round" transform="translate(14.369163382474653 557.7448969736042) rotate(0 663.0310117135273 94.31651334353796)"><path d="M32 0 C355.87 -2.85, 678.71 -1.92, 1294.06 0 M32 0 C354.23 -5.02, 676.48 -4.69, 1294.06 0 M1294.06 0 C1313.65 0.51, 1324.56 11.52, 1326.06 32 M1294.06 0 C1315.57 0.3, 1325.06 9.45, 1326.06 32 M1326.06 32 C1326.72 70.76, 1324.45 108.3, 1326.06 156.63 M1326.06 32 C1327.18 72.9, 1325.97 113.14, 1326.06 156.63 M1326.06 156.63 C1326.36 177.43, 1317.3 190.06, 1294.06 188.63 M1326.06 156.63 C1326.92 179.47, 1315.91 188.92, 1294.06 188.63 M1294.06 188.63 C996.78 190.79, 698.42 190.97, 32 188.63 M1294.06 188.63 C851.54 188.71, 409.81 188.84, 32 188.63 M32 188.63 C10.9 187.04, 1.43 178.17, 0 156.63 M32 188.63 C10.48 187.29, 2.14 176.01, 0 156.63 M0 156.63 C-1.98 124.43, 0.44 91.47, 0 32 M0 156.63 C1.42 118.9, 0.34 80.19, 0 32 M0 32 C0.33 11.51, 10.15 1.95, 32 0 M0 32 C-0.39 8.56, 9.65 0.38, 32 0" stroke="#1e1e1e" stroke-width="2" fill="none"></path></g><g stroke-linecap="round" transform="translate(21.55374507371198 1001.3193165230027) rotate(0 663.0310117135273 94.31651334353796)"><path d="M32 0 C454.78 -4.72, 878.96 -3.83, 1294.06 0 M32 0 C365.68 0.03, 699.12 -0.11, 1294.06 0 M1294.06 0 C1315.31 1.98, 1325.29 10.37, 1326.06 32 M1294.06 0 C1316.09 -1.79, 1325.95 11.67, 1326.06 32 M1326.06 32 C1324.94 64.96, 1325.52 100.49, 1326.06 156.63 M1326.06 32 C1325.71 61.33, 1326.92 90.82, 1326.06 156.63 M1326.06 156.63 C1326.26 176.29, 1315.08 187.57, 1294.06 188.63 M1326.06 156.63 C1325.26 178.71, 1314.45 188.07, 1294.06 188.63 M1294.06 188.63 C838.52 190.23, 381.58 189.87, 32 188.63 M1294.06 188.63 C874.17 186.73, 455.01 187.22, 32 188.63 M32 188.63 C11.62 189.36, 0.34 176.07, 0 156.63 M32 188.63 C8.66 188.1, 0.19 176.11, 0 156.63 M0 156.63 C1.29 128.89, -0.07 99.96, 0 32 M0 156.63 C-0.12 132.09, -0.01 105.85, 0 32 M0 32 C1.21 12.34, 11.08 -0.12, 32 0 M0 32 C-1.65 12.15, 12.45 -1.71, 32 0" stroke="#1e1e1e" stroke-width="2" fill="none"></path></g><g stroke-linecap="round" transform="translate(38.154183087623096 143.87840558554262) rotate(0 202.71011823088747 68.97774856467697)"><path d="M32 0 C151.54 3.39, 271.85 3.07, 373.42 0 C397.41 -2.83, 408.44 9.73, 405.42 32 C407.18 54.78, 404.86 77.63, 405.42 105.96 C404.43 129.22, 397.87 135.54, 373.42 137.96 C284.96 139.34, 198 139.41, 32 137.96 C13.29 138.1, -3.13 125.61, 0 105.96 C1.85 89.78, -0.4 63.5, 0 32 C-0.41 12.37, 9.12 3.38, 32 0" stroke="none" stroke-width="0" fill="#be4bdb"></path><path d="M32 0 C150.98 1.69, 270.13 1.63, 373.42 0 M32 0 C144.03 -1.81, 254.93 -2.41, 373.42 0 M373.42 0 C392.89 -0.39, 407.17 12.63, 405.42 32 M373.42 0 C396.81 1.44, 404.25 11.52, 405.42 32 M405.42 32 C405.9 57.72, 403.14 85.54, 405.42 105.96 M405.42 32 C404.61 59.19, 405.66 86.57, 405.42 105.96 M405.42 105.96 C404.09 126.33, 395.15 139.03, 373.42 137.96 M405.42 105.96 C404.23 128.32, 394.27 140.24, 373.42 137.96 M373.42 137.96 C275.55 137.9, 176.9 136.99, 32 137.96 M373.42 137.96 C253.25 139.15, 133.68 139.86, 32 137.96 M32 137.96 C8.81 138.47, 0.06 128.73, 0 105.96 M32 137.96 C10.29 138.91, 1.93 127.64, 0 105.96 M0 105.96 C0.86 91.32, -0.12 73.84, 0 32 M0 105.96 C0.52 86.79, -0.08 68.36, 0 32 M0 32 C-0.88 11.53, 8.89 -1.59, 32 0 M0 32 C-0.07 8.63, 12.45 0, 32 0" stroke="#1e1e1e" stroke-width="2" fill="none"></path></g><g stroke-linecap="round" transform="translate(42.52334647009775 579.006570208654) rotate(0 202.71011823088747 68.97774856467686)"><path d="M32 0 C130.9 1.81, 229.49 2.23, 373.42 0 C393.47 1.41, 405.85 10.74, 405.42 32 C406.3 54.24, 405.59 78.63, 405.42 105.96 C408.51 127.17, 396.69 134.92, 373.42 137.96 C305.15 135.56, 235.85 133.49, 32 137.96 C9.86 139.34, -3.54 129.04, 0 105.96 C2.03 80.75, -2.59 50.34, 0 32 C3.1 11.07, 13.47 -2.33, 32 0" stroke="none" stroke-width="0" fill="#be4bdb"></path><path d="M32 0 C162.21 -1.43, 295.21 -2.19, 373.42 0 M32 0 C154.96 0.35, 278.8 0.16, 373.42 0 M373.42 0 C395.27 -1.5, 406.27 10.82, 405.42 32 M373.42 0 C395.05 -1.01, 404.2 10.94, 405.42 32 M405.42 32 C405.61 47, 404.3 63.47, 405.42 105.96 M405.42 32 C405.97 56.6, 405.56 82.56, 405.42 105.96 M405.42 105.96 C404.88 129.2, 396.18 138.7, 373.42 137.96 M405.42 105.96 C406.92 127.8, 395.04 136.49, 373.42 137.96 M373.42 137.96 C299.94 140.62, 227.03 140.67, 32 137.96 M373.42 137.96 C272.34 137.06, 171.44 136.62, 32 137.96 M32 137.96 C9.08 139.39, 0.21 127.13, 0 105.96 M32 137.96 C9.32 140.1, -1.96 126.34, 0 105.96 M0 105.96 C-0.04 80.07, -0.74 51.71, 0 32 M0 105.96 C0.54 88.59, -0.18 72.53, 0 32 M0 32 C0.84 10.15, 12.62 -0.34, 32 0 M0 32 C-2.11 9.65, 11.05 -1.67, 32 0" stroke="#1e1e1e" stroke-width="2" fill="none"></path></g><g stroke-linecap="round" transform="translate(49.707928161335076 1022.5809897580525) rotate(0 202.71011823088747 68.97774856467709)"><path d="M32 0 C136.75 0.29, 236.19 1.31, 373.42 0 C394.9 0.33, 406.74 11.43, 405.42 32 C405.93 50.89, 409.11 70.01, 405.42 105.96 C408.05 124.94, 392.47 136.24, 373.42 137.96 C285.82 142.54, 196.6 140.67, 32 137.96 C12.31 135.9, -2.36 125.02, 0 105.96 C-0.6 83.13, 1.44 55.3, 0 32 C-0.41 13.91, 11.5 0.1, 32 0" stroke="none" stroke-width="0" fill="#be4bdb"></path><path d="M32 0 C152.72 2.16, 275.99 0.46, 373.42 0 M32 0 C160.47 -1.12, 288.61 -1.76, 373.42 0 M373.42 0 C396.73 -0.77, 405.12 11.27, 405.42 32 M373.42 0 C392.96 -0.11, 406.43 10.2, 405.42 32 M405.42 32 C402.9 53.8, 403.58 75.38, 405.42 105.96 M405.42 32 C406.29 57.11, 406.75 81.42, 405.42 105.96 M405.42 105.96 C403.74 126.98, 393.69 137.26, 373.42 137.96 M405.42 105.96 C406.17 126.34, 394.19 139.37, 373.42 137.96 M373.42 137.96 C240.66 138.84, 107.52 139.87, 32 137.96 M373.42 137.96 C295.07 137.7, 218.14 137.36, 32 137.96 M32 137.96 C11.4 138.3, -1.89 125.54, 0 105.96 M32 137.96 C10.13 138.14, -1.86 125.58, 0 105.96 M0 105.96 C1.04 83.61, 0.25 59.38, 0 32 M0 105.96 C0.7 84.56, -0.53 64.12, 0 32 M0 32 C1.67 11.08, 10.55 -1.44, 32 0 M0 32 C1.48 12.45, 8.96 1.6, 32 0" stroke="#1e1e1e" stroke-width="2" fill="none"></path></g><g stroke-linecap="round" transform="translate(470.46692940197227 143.87840558554262) rotate(0 202.71011823088747 68.97774856467697)"><path d="M32 0 C158.98 -0.36, 288.48 -0.49, 373.42 0 C398.1 2.96, 408.36 12.59, 405.42 32 C407.86 48.35, 405.14 65.81, 405.42 105.96 C407.66 124.79, 397.01 138.26, 373.42 137.96 C287.89 139.57, 204.45 137, 32 137.96 C8.38 135.71, -3.13 126.62, 0 105.96 C4.02 89.14, 3.89 67.8, 0 32 C1.6 7.21, 10.71 0.2, 32 0" stroke="none" stroke-width="0" fill="#be4bdb"></path><path d="M32 0 C133.32 -1.04, 235.73 -2.56, 373.42 0 M32 0 C114.77 2.39, 196.67 2.46, 373.42 0 M373.42 0 C394.23 -0.24, 406.11 12.12, 405.42 32 M373.42 0 C395.58 0.95, 404.77 12.6, 405.42 32 M405.42 32 C404.48 51.26, 406.02 72.19, 405.42 105.96 M405.42 32 C406.63 51.08, 405.96 67.84, 405.42 105.96 M405.42 105.96 C404.49 126.58, 394.12 136.93, 373.42 137.96 M405.42 105.96 C406.33 129.46, 394.23 135.83, 373.42 137.96 M373.42 137.96 C276.13 137.24, 176.65 137.59, 32 137.96 M373.42 137.96 C279.59 137.07, 184.62 135.89, 32 137.96 M32 137.96 C9.76 136.51, -1.63 127.13, 0 105.96 M32 137.96 C10.79 139.2, -0.11 128.07, 0 105.96 M0 105.96 C0.18 80.04, -1.26 56.26, 0 32 M0 105.96 C0.34 76.78, 0.12 48.74, 0 32 M0 32 C-1.77 10.99, 10.79 -1.53, 32 0 M0 32 C0.61 10.44, 10.11 -1.24, 32 0" stroke="#1e1e1e" stroke-width="2" fill="none"></path></g><g stroke-linecap="round" transform="translate(474.8360927844469 579.006570208654) rotate(0 202.71011823088747 68.97774856467686)"><path d="M32 0 C132.23 -0.75, 233.39 -1.89, 373.42 0 C395.18 0.08, 406.03 10.99, 405.42 32 C405.76 58.33, 408.79 85.01, 405.42 105.96 C407.36 124.25, 391.24 136.14, 373.42 137.96 C300.12 138.6, 224.86 140.59, 32 137.96 C7.12 139.71, 2.62 130.56, 0 105.96 C-2.57 83.91, 1.9 63.21, 0 32 C2.8 8.34, 12.78 -0.89, 32 0" stroke="none" stroke-width="0" fill="#be4bdb"></path><path d="M32 0 C158.73 -0.87, 285.66 0.99, 373.42 0 M32 0 C123.43 0.77, 214.58 0.85, 373.42 0 M373.42 0 C395.6 0.15, 405.68 9.79, 405.42 32 M373.42 0 C393.54 0.27, 403.33 11.52, 405.42 32 M405.42 32 C404 61.34, 406.2 90.41, 405.42 105.96 M405.42 32 C405.47 58.87, 405.34 86.39, 405.42 105.96 M405.42 105.96 C406.85 128.04, 396.06 138.4, 373.42 137.96 M405.42 105.96 C405.7 125.82, 392.79 139.01, 373.42 137.96 M373.42 137.96 C240.23 139.68, 106.94 139.03, 32 137.96 M373.42 137.96 C292.41 139.77, 210.42 140.17, 32 137.96 M32 137.96 C10.88 137.79, -1.17 129.15, 0 105.96 M32 137.96 C8.71 137.01, 1.55 127.61, 0 105.96 M0 105.96 C-0.66 88.09, -1.48 69.26, 0 32 M0 105.96 C-0.65 80.18, 0.24 53.82, 0 32 M0 32 C1.95 10.33, 8.83 -0.88, 32 0 M0 32 C0.38 8.99, 10.45 -1.54, 32 0" stroke="#1e1e1e" stroke-width="2" fill="none"></path></g><g stroke-linecap="round" transform="translate(482.02067447568425 1022.5809897580525) rotate(0 202.71011823088747 68.97774856467709)"><path d="M32 0 C130.49 -4.68, 230.76 -3.57, 373.42 0 C395.09 1.32, 406.18 8.48, 405.42 32 C407.26 59.55, 408.69 83.08, 405.42 105.96 C403.07 125.01, 393.03 136.36, 373.42 137.96 C306.24 135.33, 234.95 138.59, 32 137.96 C8.61 135.6, -2.27 129.01, 0 105.96 C1.96 80.8, -0.14 50.43, 0 32 C3.25 11.5, 10.77 3.24, 32 0" stroke="none" stroke-width="0" fill="#be4bdb"></path><path d="M32 0 C163.21 2.24, 291.5 2.84, 373.42 0 M32 0 C135.22 -0.46, 237.2 0.34, 373.42 0 M373.42 0 C393.98 -0.3, 406.02 9.11, 405.42 32 M373.42 0 C394.65 1.01, 404.95 10.72, 405.42 32 M405.42 32 C404.43 46.48, 403.65 63.99, 405.42 105.96 M405.42 32 C405.29 60.59, 404.95 86.81, 405.42 105.96 M405.42 105.96 C405.11 126.22, 394.05 138.61, 373.42 137.96 M405.42 105.96 C404.47 126.72, 396.16 139.98, 373.42 137.96 M373.42 137.96 C258.69 136.77, 145.58 136.63, 32 137.96 M373.42 137.96 C282.04 136.08, 189.65 136.11, 32 137.96 M32 137.96 C11.01 136.06, -1.75 126.82, 0 105.96 M32 137.96 C10.86 136.1, -1.71 127.32, 0 105.96 M0 105.96 C-0.53 89.84, -2.47 74.27, 0 32 M0 105.96 C0.03 85.51, 0.81 67.46, 0 32 M0 32 C0.41 10.55, 9.23 1.29, 32 0 M0 32 C1.79 8.96, 12.27 0.01, 32 0" stroke="#1e1e1e" stroke-width="2" fill="none"></path></g><g stroke-linecap="round" transform="translate(905.5950940250832 143.87840558554262) rotate(0 202.71011823088747 68.97774856467697)"><path d="M32 0 C110.59 -1.22, 191.15 -1.53, 373.42 0 C391.62 0.64, 404.33 14.15, 405.42 32 C402.57 57.2, 405.01 81.55, 405.42 105.96 C404.81 127.09, 392.94 135.46, 373.42 137.96 C300.05 137.14, 222.28 138.2, 32 137.96 C8.78 140.4, 0.12 124.67, 0 105.96 C1.44 91.84, -3.53 73.92, 0 32 C0.48 8.08, 10.47 0.33, 32 0" stroke="none" stroke-width="0" fill="#be4bdb"></path><path d="M32 0 C122.28 1.05, 215.55 1.49, 373.42 0 M32 0 C144.78 0.82, 257.28 0.27, 373.42 0 M373.42 0 C394.88 -1.53, 405.95 10.47, 405.42 32 M373.42 0 C394.2 -1.24, 407.11 9.6, 405.42 32 M405.42 32 C406.49 57.36, 407.12 82.93, 405.42 105.96 M405.42 32 C405.89 61.19, 406.47 88.3, 405.42 105.96 M405.42 105.96 C405.21 127.32, 396 136.57, 373.42 137.96 M405.42 105.96 C406.86 127.48, 393.52 140.11, 373.42 137.96 M373.42 137.96 C263.1 137.61, 152.77 137.82, 32 137.96 M373.42 137.96 C300.03 137.13, 228.42 137.1, 32 137.96 M32 137.96 C12.11 137.22, 0.89 125.37, 0 105.96 M32 137.96 C10.7 138.08, -0.31 125.48, 0 105.96 M0 105.96 C-1.8 87.29, 1.97 69.72, 0 32 M0 105.96 C0.8 85.99, 0.47 64.38, 0 32 M0 32 C0.28 11.91, 12.46 1.54, 32 0 M0 32 C1.12 10.31, 12.44 0.66, 32 0" stroke="#1e1e1e" stroke-width="2" fill="none"></path></g><g stroke-linecap="round" transform="translate(909.9642574075579 579.006570208654) rotate(0 202.71011823088747 68.97774856467686)"><path d="M32 0 C132.34 0.67, 229.47 1.81, 373.42 0 C394.83 0.61, 405.74 12.8, 405.42 32 C404.75 58.83, 404.86 81.43, 405.42 105.96 C402.38 123.78, 392.94 134.96, 373.42 137.96 C257.54 138.63, 144.71 136.81, 32 137.96 C12.42 140.58, 3.27 126.99, 0 105.96 C-1.34 80.22, -0.47 51.09, 0 32 C-2.33 12.78, 9.78 1.08, 32 0" stroke="none" stroke-width="0" fill="#be4bdb"></path><path d="M32 0 C101.83 0.3, 174.12 -0.95, 373.42 0 M32 0 C117.09 -0.61, 202.85 -0.5, 373.42 0 M373.42 0 C394.9 0.26, 404.54 9.61, 405.42 32 M373.42 0 C395.02 -2.09, 406.27 12.73, 405.42 32 M405.42 32 C405.77 54.68, 406.02 76.95, 405.42 105.96 M405.42 32 C405.12 55.84, 405.93 80.93, 405.42 105.96 M405.42 105.96 C406.17 128.59, 395.2 138.2, 373.42 137.96 M405.42 105.96 C403.95 125.32, 395.81 140.03, 373.42 137.96 M373.42 137.96 C278.72 137.95, 182.7 137.18, 32 137.96 M373.42 137.96 C270.17 138.18, 167.23 138.78, 32 137.96 M32 137.96 C10.5 136.78, 1.86 125.59, 0 105.96 M32 137.96 C9.72 139.51, 0.33 125.97, 0 105.96 M0 105.96 C-0.38 82.06, -1.25 62.1, 0 32 M0 105.96 C0.59 82.34, 0.16 58.86, 0 32 M0 32 C-0.34 8.83, 9.78 0.33, 32 0 M0 32 C-1.67 10.45, 9.13 -0.09, 32 0" stroke="#1e1e1e" stroke-width="2" fill="none"></path></g><g stroke-linecap="round" transform="translate(917.1488390987952 1022.5809897580525) rotate(0 202.71011823088747 68.97774856467709)"><path d="M32 0 C124.67 1.55, 219.48 1.51, 373.42 0 C396.08 0.76, 403.23 11.66, 405.42 32 C408.8 60.39, 408.1 81.18, 405.42 105.96 C403.14 125.57, 393.16 134.48, 373.42 137.96 C249.25 142.16, 130.51 140.42, 32 137.96 C8.31 135.68, 1.73 129.9, 0 105.96 C2.27 79.32, -0.54 54.31, 0 32 C0.83 10.77, 13.9 -0.59, 32 0" stroke="none" stroke-width="0" fill="#be4bdb"></path><path d="M32 0 C120.76 -2.56, 209.7 -2.07, 373.42 0 M32 0 C160.3 -2.09, 289.55 -2.32, 373.42 0 M373.42 0 C394.45 0.6, 403.86 10.57, 405.42 32 M373.42 0 C395.76 -0.47, 405.48 8.64, 405.42 32 M405.42 32 C403.54 48.59, 405.4 69.39, 405.42 105.96 M405.42 32 C406.41 48.58, 404.81 64.8, 405.42 105.96 M405.42 105.96 C404.35 126.59, 395.4 137.13, 373.42 137.96 M405.42 105.96 C404.86 128.7, 396.78 138.74, 373.42 137.96 M373.42 137.96 C247.9 137.37, 123.06 136.54, 32 137.96 M373.42 137.96 C284.95 140.53, 196.3 140.33, 32 137.96 M32 137.96 C8.77 136.21, -0.46 127.45, 0 105.96 M32 137.96 C8.81 136.25, 0.03 125.27, 0 105.96 M0 105.96 C-0.55 76.94, -0.41 51.22, 0 32 M0 105.96 C-1.12 86.46, 0.5 65.95, 0 32 M0 32 C-0.12 9.23, 11.96 1.55, 32 0 M0 32 C-1.71 12.27, 10.68 -0.21, 32 0" stroke="#1e1e1e" stroke-width="2" fill="none"></path></g><g stroke-linecap="round" transform="translate(409.7893998442505 10) rotate(0 261.83390271489657 50.677529557721755)"><path d="M25.34 0 C128.22 1.95, 229.02 1.4, 498.33 0 C515.02 -1.03, 521.55 8.3, 523.67 25.34 C523.45 36.34, 525.71 56.04, 523.67 76.02 C522.36 95.69, 517.53 100.48, 498.33 101.36 C333.36 102.93, 168.27 105.4, 25.34 101.36 C8.14 98.12, -2.14 91.66, 0 76.02 C3.08 60.01, -2.78 50.49, 0 25.34 C-0.02 12, 7.81 -2.54, 25.34 0" stroke="none" stroke-width="0" fill="#9c36b5"></path><path d="M25.34 0 C158.66 0.34, 292.37 1.17, 498.33 0 M25.34 0 C192.99 1.33, 361.05 1.58, 498.33 0 M498.33 0 C513.77 -1.97, 523.9 7.42, 523.67 25.34 M498.33 0 C516.24 0.5, 521.51 7.01, 523.67 25.34 M523.67 25.34 C523.48 42.62, 524.39 55.69, 523.67 76.02 M523.67 25.34 C523.97 39.6, 523.13 52.04, 523.67 76.02 M523.67 76.02 C523.83 92.34, 515.88 101.38, 498.33 101.36 M523.67 76.02 C523.97 91.68, 513.2 99.65, 498.33 101.36 M498.33 101.36 C361.87 100.18, 226.65 99.89, 25.34 101.36 M498.33 101.36 C313.19 101.04, 127.12 100.66, 25.34 101.36 M25.34 101.36 C9.01 102.81, -1.88 93.88, 0 76.02 M25.34 101.36 C6.59 99.46, -0.75 95.12, 0 76.02 M0 76.02 C1.25 65.43, -0.69 55.62, 0 25.34 M0 76.02 C-0.17 60.35, 0.07 43.52, 0 25.34 M0 25.34 C-1.53 6.65, 10.34 1.74, 25.34 0 M0 25.34 C0.92 10.5, 7.23 -1.7, 25.34 0" stroke="#1e1e1e" stroke-width="2" fill="none"></path></g><g stroke-linecap="round" transform="translate(414.15856322672516 445.1281646231114) rotate(0 261.83390271489657 50.677529557721755)"><path d="M25.34 0 C199.39 -2.66, 374.77 -3.25, 498.33 0 C515.83 0.32, 525.8 9.21, 523.67 25.34 C526.77 38.75, 525.62 49.36, 523.67 76.02 C520.16 91.1, 512.23 102.66, 498.33 101.36 C336.24 100.28, 173.3 100.44, 25.34 101.36 C11.07 104.63, -0.3 96.14, 0 76.02 C3.45 57.89, 3.15 36.62, 0 25.34 C2.11 7.56, 9.52 -1.97, 25.34 0" stroke="none" stroke-width="0" fill="#9c36b5"></path><path d="M25.34 0 C173.55 1.79, 320.38 0.5, 498.33 0 M25.34 0 C139.17 1.51, 252.96 1.87, 498.33 0 M498.33 0 C515.48 -0.88, 522.61 8.68, 523.67 25.34 M498.33 0 C513.13 0.85, 525.73 8.35, 523.67 25.34 M523.67 25.34 C524.13 40.1, 524.54 53.85, 523.67 76.02 M523.67 25.34 C523.33 38.44, 524.31 50, 523.67 76.02 M523.67 76.02 C524.97 93.36, 515.47 100.08, 498.33 101.36 M523.67 76.02 C521.7 93.97, 517.3 100.88, 498.33 101.36 M498.33 101.36 C334.42 102.43, 170.03 102.44, 25.34 101.36 M498.33 101.36 C319.89 101.92, 142.2 101.56, 25.34 101.36 M25.34 101.36 C7.27 103.22, -1.7 92.09, 0 76.02 M25.34 101.36 C10 101.68, -1.31 92.99, 0 76.02 M0 76.02 C-1.3 56.79, 1.17 39.62, 0 25.34 M0 76.02 C0.66 63.45, 1.21 51.24, 0 25.34 M0 25.34 C-1.83 7.56, 8.78 -1.46, 25.34 0 M0 25.34 C-0.22 6.91, 8.36 -0.28, 25.34 0" stroke="#1e1e1e" stroke-width="2" fill="none"></path></g><g stroke-linecap="round" transform="translate(421.3431449179625 888.7025841725099) rotate(0 261.83390271489657 50.677529557721755)"><path d="M25.34 0 C209.85 1.67, 394.15 2.2, 498.33 0 C515.98 -2.19, 524.66 10.19, 523.67 25.34 C526.6 43.37, 521.62 53.86, 523.67 76.02 C521.95 91.32, 511.74 103.42, 498.33 101.36 C362.05 98.66, 224.36 96.88, 25.34 101.36 C6.18 103.08, 2.61 95.47, 0 76.02 C0.07 59.89, 2.51 45.41, 0 25.34 C0.1 11.68, 7.86 1.93, 25.34 0" stroke="none" stroke-width="0" fill="#9c36b5"></path><path d="M25.34 0 C128.84 0.03, 232.99 0.03, 498.33 0 M25.34 0 C173.92 0.89, 322.36 0.39, 498.33 0 M498.33 0 C515.82 -1.56, 523.57 9.32, 523.67 25.34 M498.33 0 C514.75 0.05, 521.64 7.12, 523.67 25.34 M523.67 25.34 C522.18 36.47, 525.05 44.71, 523.67 76.02 M523.67 25.34 C523.99 41.26, 523.74 58.33, 523.67 76.02 M523.67 76.02 C522.97 93.56, 514.4 100.86, 498.33 101.36 M523.67 76.02 C525.08 94.94, 516.01 102.86, 498.33 101.36 M498.33 101.36 C364.4 99.42, 229.63 99.7, 25.34 101.36 M498.33 101.36 C400.1 102.18, 301.52 101.6, 25.34 101.36 M25.34 101.36 C6.7 100.89, 0.16 91.29, 0 76.02 M25.34 101.36 C6.74 101.39, -2.01 94.41, 0 76.02 M0 76.02 C-1.98 59.57, -0.67 43.07, 0 25.34 M0 76.02 C0.69 59.36, 0.29 40.98, 0 25.34 M0 25.34 C-1.44 9.73, 10 -1.48, 25.34 0 M0 25.34 C1.6 8.46, 8.23 -0.59, 25.34 0" stroke="#1e1e1e" stroke-width="2" fill="none"></path></g><g transform="translate(516.1255410212557 21.468397978533858) rotate(0 150.8625030517578 39.8396917479439)"><text x="0" y="55.83931195391821" font-family="TT Norms Pro, Segoe UI Emoji" font-size="63.74350679671029px" fill="#ffffff" text-anchor="start" style="white-space: pre;" direction="ltr" dominant-baseline="alphabetic">Organisme</text></g><g transform="translate(549.4610806863075 462.3898378581607) rotate(0 117.48750305175781 39.8396917479439)"><text x="0" y="55.83931195391821" font-family="TT Norms Pro, Segoe UI Emoji" font-size="63.74350679671029px" fill="#ffffff" text-anchor="start" style="white-space: pre;" direction="ltr" dominant-baseline="alphabetic">Métiers</text></g><g transform="translate(476.00510142704707 902.909386036637) rotate(0 214.1750030517578 39.839691747944016)"><text x="0" y="55.83931195391821" font-family="TT Norms Pro, Segoe UI Emoji" font-size="63.74350679671029px" fill="#ffffff" text-anchor="start" style="white-space: pre;" direction="ltr" dominant-baseline="alphabetic">Diagnostiques</text></g><g transform="translate(93.2008760278195 178.03258867316526) rotate(0 150.3874969482422 39.8396917479439)"><text x="0" y="55.83931195391821" font-family="TT Norms Pro, Segoe UI Emoji" font-size="63.74350679671029px" fill="#ffffff" text-anchor="start" style="white-space: pre;" direction="ltr" dominant-baseline="alphabetic">Stratégie</text></g><g transform="translate(97.57003941029416 613.1607532962767) rotate(0 140.1125030517578 39.839691747944016)"><text x="0" y="55.83931195391821" font-family="TT Norms Pro, Segoe UI Emoji" font-size="63.74350679671029px" fill="#ffffff" text-anchor="start" style="white-space: pre;" direction="ltr" dominant-baseline="alphabetic">Maturité</text></g><g transform="translate(104.75462110153148 1056.7351728456752) rotate(0 162.96249389648438 39.839691747944016)"><text x="0" y="55.83931195391821" font-family="TT Norms Pro, Segoe UI Emoji" font-size="63.74350679671029px" fill="#ffffff" text-anchor="start" style="white-space: pre;" direction="ltr" dominant-baseline="alphabetic">Sensibiliser</text></g><g transform="translate(522.698204033406 176.7709154381164) rotate(0 155.91250610351562 39.8396917479439)"><text x="0" y="55.83931195391821" font-family="TT Norms Pro, Segoe UI Emoji" font-size="63.74350679671029px" fill="#ffffff" text-anchor="start" style="white-space: pre;" direction="ltr" dominant-baseline="alphabetic">Processus</text></g><g transform="translate(527.0673674158807 611.8990800612278) rotate(0 148.3625030517578 39.839691747944016)"><text x="0" y="55.83931195391821" font-family="TT Norms Pro, Segoe UI Emoji" font-size="63.74350679671029px" fill="#ffffff" text-anchor="start" style="white-space: pre;" direction="ltr" dominant-baseline="alphabetic">Méthodes</text></g><g transform="translate(587.7448969736024 1055.4734996106263) rotate(0 100.9749984741211 39.839691747944016)"><text x="0" y="55.83931195391821" font-family="TT Norms Pro, Segoe UI Emoji" font-size="63.74350679671029px" fill="#ffffff" text-anchor="start" style="white-space: pre;" direction="ltr" dominant-baseline="alphabetic">Former</text></g><g transform="translate(937.8263686565178 172.6938238943044) rotate(0 173.9875030517578 39.8396917479439)"><text x="0" y="55.83931195391821" font-family="TT Norms Pro, Segoe UI Emoji" font-size="63.74350679671029px" fill="#ffffff" text-anchor="start" style="white-space: pre;" direction="ltr" dominant-baseline="alphabetic">Réalisation</text></g><g transform="translate(942.1955320389925 607.8219885174158) rotate(0 173.9875030517578 39.839691747944016)"><text x="0" y="55.83931195391821" font-family="TT Norms Pro, Segoe UI Emoji" font-size="63.74350679671029px" fill="#ffffff" text-anchor="start" style="white-space: pre;" direction="ltr" dominant-baseline="alphabetic">Réalisation</text></g><g transform="translate(1000.0576432879516 1054.2118263755765) rotate(0 126.32499694824219 39.839691747944016)"><text x="0" y="55.83931195391821" font-family="TT Norms Pro, Segoe UI Emoji" font-size="63.74350679671029px" fill="#ffffff" text-anchor="start" style="white-space: pre;" direction="ltr" dominant-baseline="alphabetic">Réaliser</text></g></svg>