<svg version="1.1" xmlns="http://www.w3.org/2000/svg" viewBox="0 0 571.7356237446566 512.8800244899301" width="571.7356237446566" height="512.8800244899301">
  <!-- svg-source:excalidraw -->
  
  <defs>
  <style class="style-fonts">
    @font-face {
        font-family: 'TT Norms Pro';
        src:
          url('/fonts/tt-norms-pro/bold.woff2') format('woff2'),
          url('/fonts/tt-norms-pro/bold.woff') format('woff');
        font-weight: 500;
        font-style: normal;
        font-display: swap;
      }
  </style>
  </defs>
  <rect x="0" y="0" width="571.7356237446566" height="512.8800244899301" fill="#ffffff"></rect><g stroke-linecap="round" transform="translate(209 40.11058132532372) rotate(0 64.5 65.5)"><path d="M129 65.5 C129 68.13, 128.84 70.78, 128.53 73.4 C128.22 76.01, 127.75 78.62, 127.13 81.18 C126.51 83.73, 125.73 86.27, 124.81 88.73 C123.89 91.19, 122.82 93.61, 121.61 95.94 C120.41 98.27, 119.05 100.54, 117.58 102.71 C116.11 104.87, 114.5 106.96, 112.78 108.93 C111.06 110.9, 109.21 112.78, 107.27 114.53 C105.33 116.27, 103.27 117.91, 101.14 119.41 C99.01 120.9, 96.77 122.27, 94.47 123.5 C92.18 124.72, 89.8 125.81, 87.37 126.74 C84.95 127.68, 82.45 128.47, 79.94 129.1 C77.42 129.73, 74.85 130.21, 72.27 130.52 C69.7 130.84, 67.09 131, 64.5 131 C61.91 131, 59.3 130.84, 56.73 130.52 C54.15 130.21, 51.58 129.73, 49.06 129.1 C46.55 128.47, 44.05 127.68, 41.63 126.74 C39.2 125.81, 36.82 124.72, 34.53 123.5 C32.23 122.27, 29.99 120.9, 27.86 119.41 C25.73 117.91, 23.67 116.27, 21.73 114.53 C19.79 112.78, 17.94 110.9, 16.22 108.93 C14.5 106.96, 12.89 104.87, 11.42 102.71 C9.95 100.54, 8.59 98.27, 7.39 95.94 C6.18 93.61, 5.11 91.19, 4.19 88.73 C3.27 86.27, 2.49 83.73, 1.87 81.18 C1.25 78.62, 0.78 76.01, 0.47 73.4 C0.16 70.78, 0 68.13, 0 65.5 C0 62.87, 0.16 60.22, 0.47 57.6 C0.78 54.99, 1.25 52.38, 1.87 49.82 C2.49 47.27, 3.27 44.73, 4.19 42.27 C5.11 39.81, 6.18 37.39, 7.39 35.06 C8.59 32.73, 9.95 30.46, 11.42 28.29 C12.89 26.13, 14.5 24.04, 16.22 22.07 C17.94 20.1, 19.79 18.22, 21.73 16.47 C23.67 14.73, 25.73 13.09, 27.86 11.59 C29.99 10.1, 32.23 8.73, 34.53 7.5 C36.82 6.28, 39.2 5.19, 41.63 4.26 C44.05 3.32, 46.55 2.53, 49.06 1.9 C51.58 1.27, 54.15 0.79, 56.73 0.48 C59.3 0.16, 61.91 0, 64.5 0 C67.09 0, 69.7 0.16, 72.27 0.48 C74.85 0.79, 77.42 1.27, 79.94 1.9 C82.45 2.53, 84.95 3.32, 87.37 4.26 C89.8 5.19, 92.18 6.28, 94.47 7.5 C96.77 8.73, 99.01 10.1, 101.14 11.59 C103.27 13.09, 105.33 14.73, 107.27 16.47 C109.21 18.22, 111.06 20.1, 112.78 22.07 C114.5 24.04, 116.11 26.13, 117.58 28.29 C119.05 30.46, 120.41 32.73, 121.61 35.06 C122.82 37.39, 123.89 39.81, 124.81 42.27 C125.73 44.73, 126.51 47.27, 127.13 49.82 C127.75 52.38, 128.22 54.99, 128.53 57.6 C128.84 60.22, 129 62.87, 129 65.5" stroke="#1e1e1e" stroke-width="2" fill="none"></path></g><g stroke-linecap="round" transform="translate(410 347.1105813253237) rotate(0 64.5 65.5)"><path d="M129 65.5 C129 68.13, 128.84 70.78, 128.53 73.4 C128.22 76.01, 127.75 78.62, 127.13 81.18 C126.51 83.73, 125.73 86.27, 124.81 88.73 C123.89 91.19, 122.82 93.61, 121.61 95.94 C120.41 98.27, 119.05 100.54, 117.58 102.71 C116.11 104.87, 114.5 106.96, 112.78 108.93 C111.06 110.9, 109.21 112.78, 107.27 114.53 C105.33 116.27, 103.27 117.91, 101.14 119.41 C99.01 120.9, 96.77 122.27, 94.47 123.5 C92.18 124.72, 89.8 125.81, 87.37 126.74 C84.95 127.68, 82.45 128.47, 79.94 129.1 C77.42 129.73, 74.85 130.21, 72.27 130.52 C69.7 130.84, 67.09 131, 64.5 131 C61.91 131, 59.3 130.84, 56.73 130.52 C54.15 130.21, 51.58 129.73, 49.06 129.1 C46.55 128.47, 44.05 127.68, 41.63 126.74 C39.2 125.81, 36.82 124.72, 34.53 123.5 C32.23 122.27, 29.99 120.9, 27.86 119.41 C25.73 117.91, 23.67 116.27, 21.73 114.53 C19.79 112.78, 17.94 110.9, 16.22 108.93 C14.5 106.96, 12.89 104.87, 11.42 102.71 C9.95 100.54, 8.59 98.27, 7.39 95.94 C6.18 93.61, 5.11 91.19, 4.19 88.73 C3.27 86.27, 2.49 83.73, 1.87 81.18 C1.25 78.62, 0.78 76.01, 0.47 73.4 C0.16 70.78, 0 68.13, 0 65.5 C0 62.87, 0.16 60.22, 0.47 57.6 C0.78 54.99, 1.25 52.38, 1.87 49.82 C2.49 47.27, 3.27 44.73, 4.19 42.27 C5.11 39.81, 6.18 37.39, 7.39 35.06 C8.59 32.73, 9.95 30.46, 11.42 28.29 C12.89 26.13, 14.5 24.04, 16.22 22.07 C17.94 20.1, 19.79 18.22, 21.73 16.47 C23.67 14.73, 25.73 13.09, 27.86 11.59 C29.99 10.1, 32.23 8.73, 34.53 7.5 C36.82 6.28, 39.2 5.19, 41.63 4.26 C44.05 3.32, 46.55 2.53, 49.06 1.9 C51.58 1.27, 54.15 0.79, 56.73 0.48 C59.3 0.16, 61.91 0, 64.5 0 C67.09 0, 69.7 0.16, 72.27 0.48 C74.85 0.79, 77.42 1.27, 79.94 1.9 C82.45 2.53, 84.95 3.32, 87.37 4.26 C89.8 5.19, 92.18 6.28, 94.47 7.5 C96.77 8.73, 99.01 10.1, 101.14 11.59 C103.27 13.09, 105.33 14.73, 107.27 16.47 C109.21 18.22, 111.06 20.1, 112.78 22.07 C114.5 24.04, 116.11 26.13, 117.58 28.29 C119.05 30.46, 120.41 32.73, 121.61 35.06 C122.82 37.39, 123.89 39.81, 124.81 42.27 C125.73 44.73, 126.51 47.27, 127.13 49.82 C127.75 52.38, 128.22 54.99, 128.53 57.6 C128.84 60.22, 129 62.87, 129 65.5" stroke="#1e1e1e" stroke-width="2" fill="none"></path></g><g stroke-linecap="round" transform="translate(10.000000000000227 344.1105813253237) rotate(0 64.49999999999989 65.5)"><path d="M129 65.5 C129 68.13, 128.84 70.78, 128.53 73.4 C128.22 76.01, 127.75 78.62, 127.13 81.18 C126.51 83.73, 125.73 86.27, 124.81 88.73 C123.89 91.19, 122.82 93.61, 121.61 95.94 C120.41 98.27, 119.05 100.54, 117.58 102.71 C116.11 104.87, 114.5 106.96, 112.78 108.93 C111.06 110.9, 109.21 112.78, 107.27 114.53 C105.33 116.27, 103.27 117.91, 101.14 119.41 C99.01 120.9, 96.77 122.27, 94.47 123.5 C92.18 124.72, 89.8 125.81, 87.37 126.74 C84.95 127.68, 82.45 128.47, 79.94 129.1 C77.42 129.73, 74.85 130.21, 72.27 130.52 C69.7 130.84, 67.09 131, 64.5 131 C61.91 131, 59.3 130.84, 56.73 130.52 C54.15 130.21, 51.58 129.73, 49.06 129.1 C46.55 128.47, 44.05 127.68, 41.63 126.74 C39.2 125.81, 36.82 124.72, 34.53 123.5 C32.23 122.27, 29.99 120.9, 27.86 119.41 C25.73 117.91, 23.67 116.27, 21.73 114.53 C19.79 112.78, 17.94 110.9, 16.22 108.93 C14.5 106.96, 12.89 104.87, 11.42 102.71 C9.95 100.54, 8.59 98.27, 7.39 95.94 C6.18 93.61, 5.11 91.19, 4.19 88.73 C3.27 86.27, 2.49 83.73, 1.87 81.18 C1.25 78.62, 0.78 76.01, 0.47 73.4 C0.16 70.78, 0 68.13, 0 65.5 C0 62.87, 0.16 60.22, 0.47 57.6 C0.78 54.99, 1.25 52.38, 1.87 49.82 C2.49 47.27, 3.27 44.73, 4.19 42.27 C5.11 39.81, 6.18 37.39, 7.39 35.06 C8.59 32.73, 9.95 30.46, 11.42 28.29 C12.89 26.13, 14.5 24.04, 16.22 22.07 C17.94 20.1, 19.79 18.22, 21.73 16.47 C23.67 14.73, 25.73 13.09, 27.86 11.59 C29.99 10.1, 32.23 8.73, 34.53 7.5 C36.82 6.28, 39.2 5.19, 41.63 4.26 C44.05 3.32, 46.55 2.53, 49.06 1.9 C51.58 1.27, 54.15 0.79, 56.73 0.48 C59.3 0.16, 61.91 0, 64.5 0 C67.09 0, 69.7 0.16, 72.27 0.48 C74.85 0.79, 77.42 1.27, 79.94 1.9 C82.45 2.53, 84.95 3.32, 87.37 4.26 C89.8 5.19, 92.18 6.28, 94.47 7.5 C96.77 8.73, 99.01 10.1, 101.14 11.59 C103.27 13.09, 105.33 14.73, 107.27 16.47 C109.21 18.22, 111.06 20.1, 112.78 22.07 C114.5 24.04, 116.11 26.13, 117.58 28.29 C119.05 30.46, 120.41 32.73, 121.61 35.06 C122.82 37.39, 123.89 39.81, 124.81 42.27 C125.73 44.73, 126.51 47.27, 127.13 49.82 C127.75 52.38, 128.22 54.99, 128.53 57.6 C128.84 60.22, 129 62.87, 129 65.5" stroke="#1e1e1e" stroke-width="2" fill="none"></path></g><g transform="translate(226.20720008811986 93.11058132532372) rotate(0 49.86666488647461 12.5)"><text x="0" y="17.52" font-family="TT Norms Pro, Segoe UI Emoji" font-size="20px" fill="#1e1e1e" text-anchor="start" style="white-space: pre;" direction="ltr" dominant-baseline="alphabetic">Experience</text></g><g transform="translate(420 399.1105813253237) rotate(0 54.29999923706055 12.5)"><text x="0" y="17.52" font-family="TT Norms Pro, Segoe UI Emoji" font-size="20px" fill="#1e1e1e" text-anchor="start" style="white-space: pre;" direction="ltr" dominant-baseline="alphabetic">Technicians</text></g><g transform="translate(40.00000000000023 398.1105813253237) rotate(0 33.583332061767464 12.5)"><text x="0" y="17.52" font-family="TT Norms Pro, Segoe UI Emoji" font-size="20px" fill="#1e1e1e" text-anchor="start" style="white-space: pre;" direction="ltr" dominant-baseline="alphabetic">Leaders</text></g><g stroke-linecap="round"><g transform="translate(229.70900842601714 156.07690733738195) rotate(0 -59.4276787983822 99.5046464964195)"><path d="M0 0 C-19.81 33.17, -99.05 165.84, -118.86 199.01 M0 0 C-19.81 33.17, -99.05 165.84, -118.86 199.01" stroke="#1e1e1e" stroke-width="2" fill="none"></path></g></g><mask></mask><g stroke-linecap="round"><g transform="translate(319.3843428640921 152.26360991759992) rotate(0 57.947296904625546 102.78147702026666)"><path d="M0 0 C19.32 34.26, 96.58 171.3, 115.89 205.56 M0 0 C19.32 34.26, 96.58 171.3, 115.89 205.56" stroke="#1e1e1e" stroke-width="2" fill="none"></path></g></g><mask></mask><g stroke-linecap="round"><g transform="translate(138 425.1105813253237) rotate(0 135.88606628119578 1.8886066281196463)"><path d="M0 0 C45.3 0.63, 226.48 3.15, 271.77 3.78 M0 0 C45.3 0.63, 226.48 3.15, 271.77 3.78" stroke="#1e1e1e" stroke-width="2" fill="none"></path></g></g><mask></mask><g stroke-linecap="round" transform="translate(251.68136787565982 -25.06453240556874) rotate(327.4664217983451 123.44310893486659 281.5045446505338)"><path d="M73.73 23.98 C82.47 10.37, 94.99 6.53, 105.7 2.65 C116.4 -1.22, 127.51 -1.93, 137.94 0.73 C148.38 3.39, 158.53 9.7, 168.31 18.62 C178.08 27.55, 188.11 39.93, 196.6 54.29 C205.1 68.65, 212.71 85.84, 219.29 104.78 C225.87 123.72, 231.88 145.71, 236.09 167.93 C240.3 190.15, 242.79 214.1, 244.57 238.09 C246.36 262.09, 247.92 287.57, 246.78 311.91 C245.64 336.26, 241.87 361.55, 237.73 384.16 C233.59 406.78, 228.25 428.17, 221.93 447.6 C215.62 467.04, 208.12 485.41, 199.86 500.79 C191.59 516.16, 181.82 529.94, 172.35 539.87 C162.89 549.8, 153.32 556.87, 143.05 560.36 C132.78 563.85, 121.63 563.47, 110.74 560.79 C99.85 558.12, 87.81 553.08, 77.71 544.32 C67.6 535.56, 58.67 522.72, 50.1 508.22 C41.53 493.72, 32.77 476.14, 26.29 457.32 C19.81 438.5, 15.47 417.53, 11.22 395.33 C6.98 373.12, 2.62 348.18, 0.81 324.1 C-0.99 300.01, -1 274.97, 0.38 250.83 C1.76 226.69, 5.08 201.93, 9.1 179.26 C13.11 156.59, 18.18 134.4, 24.49 114.81 C30.8 95.22, 38.26 77.18, 46.96 61.74 C55.67 46.29, 71.31 28.47, 76.7 22.13 C82.09 15.79, 78.67 19.43, 79.29 23.67 M97.37 5.65 C107 -3.71, 120.17 -1.76, 130.84 -0.2 C141.52 1.36, 151.45 7.39, 161.43 15.01 C171.41 22.63, 181.67 32.36, 190.73 45.51 C199.78 58.67, 208.48 75.83, 215.75 93.95 C223.01 112.07, 229.54 132.96, 234.32 154.23 C239.1 175.49, 242.39 197.84, 244.43 221.52 C246.47 245.2, 247.31 271.99, 246.58 296.29 C245.85 320.6, 243.11 344.42, 240.05 367.37 C236.99 390.33, 233.94 413.25, 228.21 434.03 C222.49 454.81, 213.97 475.76, 205.72 492.08 C197.46 508.39, 188.16 521, 178.68 531.92 C169.2 542.83, 159.34 552.29, 148.85 557.57 C138.36 562.84, 126.42 565.18, 115.73 563.58 C105.03 561.97, 94.46 555.39, 84.67 547.92 C74.89 540.45, 65.77 531.55, 57.01 518.75 C48.25 505.95, 39.53 489.48, 32.13 471.1 C24.73 452.73, 17.4 430.27, 12.6 408.49 C7.8 386.72, 5.14 363.87, 3.3 340.44 C1.47 317.02, 1.23 292.03, 1.61 267.94 C1.99 243.85, 2.65 219.31, 5.57 195.9 C8.49 172.5, 13.49 147.89, 19.14 127.54 C24.8 107.19, 31.3 90.08, 39.5 73.79 C47.69 57.5, 58.37 41.2, 68.31 29.78 C78.25 18.37, 94.32 8.16, 99.12 5.29 C103.91 2.43, 96.73 7.88, 97.07 12.6" stroke="#6741d9" stroke-width="2" fill="none"></path></g><g stroke-linecap="round" transform="translate(417.88235760041516 153.86961121910093) rotate(0 71.9266330721207 23.016522583078597)"><path d="M11.51 0 C52.01 -4.57, 97.49 1.32, 132.35 0 C140.99 2.86, 141.77 1.76, 143.85 11.51 C146.62 18.22, 147.15 25.34, 143.85 34.52 C142.18 39.01, 143.49 48.27, 132.35 46.03 C100.67 47, 76.73 44.62, 11.51 46.03 C1.46 47.21, 2.79 38.75, 0 34.52 C-0.59 30.18, -2.9 19.38, 0 11.51 C1.49 7.11, 5.07 3.51, 11.51 0" stroke="none" stroke-width="0" fill="#6741d9"></path><path d="M11.51 0 C56.02 -0.71, 105.01 0.54, 132.35 0 M11.51 0 C52.16 -0.3, 90.99 0.03, 132.35 0 M132.35 0 C140.08 -0.85, 142.8 2.19, 143.85 11.51 M132.35 0 C139.07 -1.26, 141.78 1.61, 143.85 11.51 M143.85 11.51 C144.26 17.98, 142.38 26.86, 143.85 34.52 M143.85 11.51 C144.7 17.84, 144.61 22.52, 143.85 34.52 M143.85 34.52 C142.18 43.38, 139.6 45.88, 132.35 46.03 M143.85 34.52 C142.07 42, 141.94 47.87, 132.35 46.03 M132.35 46.03 C104.04 46.87, 74.6 46.57, 11.51 46.03 M132.35 46.03 C95.77 46.73, 58.05 45.15, 11.51 46.03 M11.51 46.03 C2.9 46.35, -0.84 42.26, 0 34.52 M11.51 46.03 C4.11 45.44, -0.79 43.68, 0 34.52 M0 34.52 C0.12 28.69, 0.8 23.64, 0 11.51 M0 34.52 C-1.02 26.14, -0.01 17.42, 0 11.51 M0 11.51 C-1.42 5.48, 2.85 -0.46, 11.51 0 M0 11.51 C2.17 2.57, 3.25 -0.44, 11.51 0" stroke="#6741d9" stroke-width="2" fill="none"></path></g><g transform="translate(431.39061889195455 162.27420416424644) rotate(0 56.24166488647461 15.074999999999989)"><text x="0" y="21.129119999999972" font-family="TT Norms Pro, Segoe UI Emoji" font-size="24.119999999999965px" fill="#ffffff" text-anchor="start" style="white-space: pre;" direction="ltr" dominant-baseline="alphabetic">Formation</text></g></svg>