<svg version="1.1" xmlns="http://www.w3.org/2000/svg" viewBox="0 0 1964.9819998860694 668.4994021357297"
  width="1964.9819998860694" height="668.4994021357297">
  <!-- svg-source:excalidraw -->

  <defs>
    <style class="style-fonts">
      @font-face {
        font-family: 'TT Norms Pro';
        src:
          url('/fonts/tt-norms-pro/bold.woff2') format('woff2'),
          url('/fonts/tt-norms-pro/bold.woff') format('woff');
        font-weight: 500;
        font-style: normal;
        font-display: swap;
      }
    </style>

  </defs>
  <g stroke-linecap="round" transform="translate(10 10) rotate(0 462.7130869292773 324.24970106786486)">
    <path
      d="M32 0 C341.83 1.98, 650.82 1.97, 893.43 0 M32 0 C278.57 -2.15, 524.9 -2.41, 893.43 0 M893.43 0 C913.48 0.95, 925.68 10.44, 925.43 32 M893.43 0 C915.73 -1.38, 927.22 8.71, 925.43 32 M925.43 32 C926 233.94, 926.42 435.47, 925.43 616.5 M925.43 32 C923.99 254.87, 923.75 478.37, 925.43 616.5 M925.43 616.5 C925.47 639.09, 915.11 647.33, 893.43 648.5 M925.43 616.5 C926.21 637.22, 913.8 646.43, 893.43 648.5 M893.43 648.5 C583.3 646.81, 273.07 647.36, 32 648.5 M893.43 648.5 C641.81 651.22, 390.44 650.7, 32 648.5 M32 648.5 C9.91 647.13, -1.26 638.77, 0 616.5 M32 648.5 C11.42 649.65, -2.15 639.78, 0 616.5 M0 616.5 C-1.09 458.93, -0.23 300.6, 0 32 M0 616.5 C0.96 416.33, 1.4 215.08, 0 32 M0 32 C-0.3 12.17, 9.86 1.23, 32 0 M0 32 C0.3 9.44, 9.5 0.46, 32 0"
      stroke="#9c36b5" stroke-width="2" fill="none"></path>
  </g>
  <g stroke-linecap="round" transform="translate(1029.5558260275147 10) rotate(0 462.7130869292773 324.24970106786486)">
    <path
      d="M32 0 C335.77 -2.09, 638.6 -1.91, 893.43 0 M32 0 C266.07 -0.61, 500.37 -0.61, 893.43 0 M893.43 0 C913.58 0.5, 925.33 9.09, 925.43 32 M893.43 0 C915.23 0.12, 923.22 9.76, 925.43 32 M925.43 32 C924.34 251.09, 925.15 469.55, 925.43 616.5 M925.43 32 C927.5 223.03, 927.64 414.16, 925.43 616.5 M925.43 616.5 C925.6 637.06, 915.14 646.8, 893.43 648.5 M925.43 616.5 C925.84 638.45, 915.77 646.49, 893.43 648.5 M893.43 648.5 C604.91 648.36, 315.67 648.36, 32 648.5 M893.43 648.5 C699.85 646.88, 506.1 646.85, 32 648.5 M32 648.5 C8.7 647.05, 1.52 635.91, 0 616.5 M32 648.5 C10.33 649.45, 1.68 639.73, 0 616.5 M0 616.5 C0.67 475.36, 1.13 334.22, 0 32 M0 616.5 C-1.42 405.09, -1.37 194.17, 0 32 M0 32 C-0.09 9.75, 10.42 -0.16, 32 0 M0 32 C1.77 12.73, 12.1 0.37, 32 0"
      stroke="#9c36b5" stroke-width="2" fill="none"></path>
  </g>
  <g transform="translate(88.10645380505684 434.83493476981175) rotate(0 381.6933945685273 90.85534238727973)"><text
      x="0" y="127.34284789001127" font-family="TT Norms Pro, Segoe UI Emoji" font-size="145.36854781964757px"
      fill="#9c36b5" text-anchor="start" style="white-space: pre;" direction="ltr"
      dominant-baseline="alphabetic">ImMatériel</text></g>
  <g transform="translate(1188.2865298278248 434.8349347698113) rotate(0 296.0375061035156 90.85534238727973)"><text
      x="296.0375061035156" y="127.34284789001127" font-family="TT Norms Pro, Segoe UI Emoji"
      font-size="145.36854781964757px" fill="#9c36b5" text-anchor="middle" style="white-space: pre;" direction="ltr"
      dominant-baseline="alphabetic">Matériel</text></g>
</svg>