<svg version="1.1" xmlns="http://www.w3.org/2000/svg" viewBox="0 0 1964.9819998860694 668.4994021357297" width="1964.9819998860694" height="668.4994021357297">
  <!-- svg-source:excalidraw -->
  
  <defs>
    <style class="style-fonts">
      @font-face {
        font-family: 'TT Norms Pro';
        src:
          url('/fonts/tt-norms-pro/bold.woff2') format('woff2'),
          url('/fonts/tt-norms-pro/bold.woff') format('woff');
        font-weight: 500;
        font-style: normal;
        font-display: swap;
      }
    </style>
    
  </defs>
  <g stroke-linecap="round" transform="translate(10 10) rotate(0 462.7130869292773 324.24970106786486)"><path d="M32 0 C306.51 -3.7, 579.68 -3.97, 893.43 0 C917.41 -1.01, 926.08 11.59, 925.43 32 C929.21 170.02, 928.58 309.68, 925.43 616.5 C922.59 638.57, 914.95 645.05, 893.43 648.5 C668.49 646.11, 445.06 647.57, 32 648.5 C12.21 649.46, 3.58 639.91, 0 616.5 C-0.02 478.14, -1.69 339.8, 0 32 C-3.07 11.32, 11.64 1.58, 32 0" stroke="none" stroke-width="0" fill="#9c36b5"></path><path d="M32 0 C341.83 1.98, 650.82 1.97, 893.43 0 M32 0 C278.57 -2.15, 524.9 -2.41, 893.43 0 M893.43 0 C913.48 0.95, 925.68 10.44, 925.43 32 M893.43 0 C915.73 -1.38, 927.22 8.71, 925.43 32 M925.43 32 C926 233.94, 926.42 435.47, 925.43 616.5 M925.43 32 C923.99 254.87, 923.75 478.37, 925.43 616.5 M925.43 616.5 C925.47 639.09, 915.11 647.33, 893.43 648.5 M925.43 616.5 C926.21 637.22, 913.8 646.43, 893.43 648.5 M893.43 648.5 C583.3 646.81, 273.07 647.36, 32 648.5 M893.43 648.5 C641.81 651.22, 390.44 650.7, 32 648.5 M32 648.5 C9.91 647.13, -1.26 638.77, 0 616.5 M32 648.5 C11.42 649.65, -2.15 639.78, 0 616.5 M0 616.5 C-1.09 458.93, -0.23 300.6, 0 32 M0 616.5 C0.96 416.33, 1.4 215.08, 0 32 M0 32 C-0.3 12.17, 9.86 1.23, 32 0 M0 32 C0.3 9.44, 9.5 0.46, 32 0" stroke="#9c36b5" stroke-width="2" fill="none"></path></g><g stroke-linecap="round" transform="translate(1029.5558260275147 10) rotate(0 462.7130869292773 324.24970106786486)"><path d="M32 0 C345.36 -6.7, 659.85 -6.23, 893.43 0 C916.75 -0.98, 923.14 14.05, 925.43 32 C925.67 226.78, 927.7 422.28, 925.43 616.5 C927.75 640.37, 912.17 646.23, 893.43 648.5 C593.99 653.85, 296.2 653.61, 32 648.5 C13.93 645.09, 1.28 640.44, 0 616.5 C1.64 490.22, 1.98 363.49, 0 32 C-1.86 13.43, 8.59 -0.47, 32 0" stroke="none" stroke-width="0" fill="#9c36b5"></path><path d="M32 0 C335.77 -2.09, 638.6 -1.91, 893.43 0 M32 0 C266.07 -0.61, 500.37 -0.61, 893.43 0 M893.43 0 C913.58 0.5, 925.33 9.09, 925.43 32 M893.43 0 C915.23 0.12, 923.22 9.76, 925.43 32 M925.43 32 C924.34 251.09, 925.15 469.55, 925.43 616.5 M925.43 32 C927.5 223.03, 927.64 414.16, 925.43 616.5 M925.43 616.5 C925.6 637.06, 915.14 646.8, 893.43 648.5 M925.43 616.5 C925.84 638.45, 915.77 646.49, 893.43 648.5 M893.43 648.5 C604.91 648.36, 315.67 648.36, 32 648.5 M893.43 648.5 C699.85 646.88, 506.1 646.85, 32 648.5 M32 648.5 C8.7 647.05, 1.52 635.91, 0 616.5 M32 648.5 C10.33 649.45, 1.68 639.73, 0 616.5 M0 616.5 C0.67 475.36, 1.13 334.22, 0 32 M0 616.5 C-1.42 405.09, -1.37 194.17, 0 32 M0 32 C-0.09 9.75, 10.42 -0.16, 32 0 M0 32 C1.77 12.73, 12.1 0.37, 32 0" stroke="#9c36b5" stroke-width="2" fill="none"></path></g><g transform="translate(88.10645380505684 434.83493476981175) rotate(0 381.6933945685273 90.85534238727973)"><text x="0" y="127.34284789001127" font-family="TT Norms Pro, Segoe UI Emoji" font-size="145.36854781964757px" fill="#ffffff" text-anchor="start" style="white-space: pre;" direction="ltr" dominant-baseline="alphabetic">ImMatériel</text></g><g transform="translate(1188.2865298278248 434.8349347698113) rotate(0 296.0375061035156 90.85534238727973)"><text x="296.0375061035156" y="127.34284789001127" font-family="TT Norms Pro, Segoe UI Emoji" font-size="145.36854781964757px" fill="#ffffff" text-anchor="middle" style="white-space: pre;" direction="ltr" dominant-baseline="alphabetic">Matériel</text></g><g stroke-linecap="round" transform="translate(21.503812504630332 19.78936813417704) rotate(0 448.69147823445155 49.07563043189316)"><path d="M24.54 0 C254.29 1.62, 482.64 2.53, 872.85 0 C891.43 0.21, 898.22 7.43, 897.38 24.54 C895.56 35.71, 896.72 52.46, 897.38 73.61 C900.39 88.2, 892.28 101.25, 872.85 98.15 C601.9 101.19, 330.55 99.77, 24.54 98.15 C10.28 101.17, 0 91.96, 0 73.61 C2.81 56.42, 0.97 34.32, 0 24.54 C1.14 7.78, 9.62 1.26, 24.54 0" stroke="none" stroke-width="0" fill="#ffffff"></path><path d="M24.54 0 C238.57 2.05, 453.58 2.62, 872.85 0 M24.54 0 C277.91 0.68, 531.92 1.29, 872.85 0 M872.85 0 C891.06 -1.81, 896.68 8.93, 897.38 24.54 M872.85 0 C890.44 1.38, 899.55 7.72, 897.38 24.54 M897.38 24.54 C897.26 43.81, 899.29 64.37, 897.38 73.61 M897.38 24.54 C898.06 38.65, 897.62 51.26, 897.38 73.61 M897.38 73.61 C898.91 89.95, 890.87 97.09, 872.85 98.15 M897.38 73.61 C897.17 89.67, 890.47 100.27, 872.85 98.15 M872.85 98.15 C700.65 95.05, 529.63 95.29, 24.54 98.15 M872.85 98.15 C633.78 100.07, 395.18 99.51, 24.54 98.15 M24.54 98.15 C8.17 98.99, -1.36 90.69, 0 73.61 M24.54 98.15 C9.94 99.42, -2.09 92.21, 0 73.61 M0 73.61 C0.07 56.18, -1.02 38.72, 0 24.54 M0 73.61 C-0.07 61.21, -1.24 50.54, 0 24.54 M0 24.54 C1.94 7.42, 9.87 -1.12, 24.54 0 M0 24.54 C-0.24 6, 5.97 0.45, 24.54 0" stroke="#ffffff" stroke-width="2" fill="none"></path></g><g stroke-linecap="round" transform="translate(31.503812504630332 29.78936813417704) rotate(0 448.69147823445155 49.07563043189316)"><path d="M24.54 0 C254.58 -4.94, 486.71 -3.58, 872.85 0 C890.55 -1.4, 898.99 8.24, 897.38 24.54 C895.65 35.22, 895.24 52.53, 897.38 73.61 C898.28 93.1, 888.93 94.98, 872.85 98.15 C580.45 95.42, 291.11 95.56, 24.54 98.15 C5.25 101.51, -1.3 86.47, 0 73.61 C-3.87 66.49, -3.64 52.83, 0 24.54 C-0.1 9.75, 5.32 -2.92, 24.54 0" stroke="none" stroke-width="0" fill="#ffffff"></path><path d="M24.54 0 C340.24 1.88, 655.89 1.63, 872.85 0 M24.54 0 C305.86 0.43, 588.19 0.51, 872.85 0 M872.85 0 C887.67 -0.1, 896.23 7.16, 897.38 24.54 M872.85 0 C887.66 1.02, 896.55 6.84, 897.38 24.54 M897.38 24.54 C899.03 41.91, 899.08 58.31, 897.38 73.61 M897.38 24.54 C897.55 41.44, 896.63 58.82, 897.38 73.61 M897.38 73.61 C897.33 90.08, 890.81 98.89, 872.85 98.15 M897.38 73.61 C896.44 89.07, 890.49 98.5, 872.85 98.15 M872.85 98.15 C615.83 95.36, 359.52 95.06, 24.54 98.15 M872.85 98.15 C558.26 95.28, 244.35 95.83, 24.54 98.15 M24.54 98.15 C6.99 100, 0.7 90.43, 0 73.61 M24.54 98.15 C8.47 99.15, 0.07 91.51, 0 73.61 M0 73.61 C2.28 64.69, -0.35 54.58, 0 24.54 M0 73.61 C1.07 58.52, 0.94 42.92, 0 24.54 M0 24.54 C-0.91 9.35, 8.83 1.1, 24.54 0 M0 24.54 C-1.61 7.04, 6.72 -1.57, 24.54 0" stroke="#ffffff" stroke-width="2" fill="none"></path></g><g stroke-linecap="round" transform="translate(1047.5542363584373 25.767759439350357) rotate(0 448.69147823445155 49.07563043189316)"><path d="M24.54 0 C237.37 -2.59, 452.39 -4.2, 872.85 0 C887.63 -0.1, 894.78 6.87, 897.38 24.54 C898.54 45.98, 901.51 63.23, 897.38 73.61 C894.4 92.25, 891.98 98.86, 872.85 98.15 C652.45 97.15, 433.14 96.08, 24.54 98.15 C8.22 96.39, -3.05 90.14, 0 73.61 C3.03 59.42, 1.34 48.71, 0 24.54 C-2.31 7.68, 7.63 2.67, 24.54 0" stroke="none" stroke-width="0" fill="#ffffff"></path><path d="M24.54 0 C197.1 -1.11, 368.34 -0.38, 872.85 0 M24.54 0 C204.06 0.6, 383.41 0.08, 872.85 0 M872.85 0 C890.79 1.12, 898.11 8.58, 897.38 24.54 M872.85 0 C887.05 -1.79, 898.54 9.32, 897.38 24.54 M897.38 24.54 C898.27 41.79, 895.69 57.28, 897.38 73.61 M897.38 24.54 C898.46 42.92, 897.51 63.07, 897.38 73.61 M897.38 73.61 C898.43 90.97, 888.12 99.98, 872.85 98.15 M897.38 73.61 C896.29 91.24, 889.22 99.39, 872.85 98.15 M872.85 98.15 C688.19 97.61, 503.64 98.27, 24.54 98.15 M872.85 98.15 C551.41 100.23, 229.89 100.17, 24.54 98.15 M24.54 98.15 C9.28 96.78, -0.54 90.24, 0 73.61 M24.54 98.15 C6.22 97.15, 1.62 88.85, 0 73.61 M0 73.61 C1.49 63.29, -1.64 52.85, 0 24.54 M0 73.61 C-0.32 62.65, 0.93 53.7, 0 24.54 M0 24.54 C1.26 7.4, 6.7 -0.62, 24.54 0 M0 24.54 C-0.04 8.52, 6.56 -1.78, 24.54 0" stroke="#ffffff" stroke-width="2" fill="none"></path></g><g transform="translate(340.4801502015953 40.82178117641706) rotate(0 113.94083075580693 40.62061751628812)"><text x="113.94083075580699" y="56.93385751082931" font-family="TT Norms Pro, Segoe UI Emoji" font-size="64.99298802606087px" fill="#1e1e1e" text-anchor="middle" style="white-space: pre;" direction="ltr" dominant-baseline="alphabetic">Actions</text></g><g transform="translate(1356.5305740554022 36.80017248159038) rotate(0 113.94083075580693 40.62061751628812)"><text x="113.94083075580699" y="56.93385751082931" font-family="TT Norms Pro, Segoe UI Emoji" font-size="64.99298802606087px" fill="#1e1e1e" text-anchor="middle" style="white-space: pre;" direction="ltr" dominant-baseline="alphabetic">Actions</text></g></svg>