<svg version="1.1" xmlns="http://www.w3.org/2000/svg" viewBox="0 0 1357.6157685007665 1199.9523432100784" width="1357.6157685007665" height="1199.9523432100784">
  <!-- svg-source:excalidraw -->
  
  <defs>
    <style class="style-fonts">
      @font-face {
        font-family: 'TT Norms Pro';
        src:
          url('/fonts/tt-norms-pro/bold.woff2') format('woff2'),
          url('/fonts/tt-norms-pro/bold.woff') format('woff');
        font-weight: 500;
        font-style: normal;
        font-display: swap;
      }
    </style>
    
  </defs>
  <g stroke-linecap="round" transform="translate(10 122.61673235049284) rotate(0 663.0310117135273 94.31651334353796)"><path d="M32 0 C323.36 -4.54, 612.8 -4.49, 1294.06 0 M32 0 C420.8 3.94, 809.94 3.61, 1294.06 0 M1294.06 0 C1315.61 -1.97, 1324.75 12.3, 1326.06 32 M1294.06 0 C1317.36 2.09, 1325.82 10.44, 1326.06 32 M1326.06 32 C1324.73 59.87, 1325.11 90.32, 1326.06 156.63 M1326.06 32 C1325.63 79.56, 1327.13 125.44, 1326.06 156.63 M1326.06 156.63 C1327.56 176.73, 1316.57 187.15, 1294.06 188.63 M1326.06 156.63 C1327.32 176.18, 1317 187.46, 1294.06 188.63 M1294.06 188.63 C840.58 188.92, 387.29 188.9, 32 188.63 M1294.06 188.63 C995.97 192.74, 697.78 192.36, 32 188.63 M32 188.63 C9.12 189.31, -1.26 178.69, 0 156.63 M32 188.63 C11.34 187.71, 1.96 176.58, 0 156.63 M0 156.63 C-2.68 115.6, -2.02 72.85, 0 32 M0 156.63 C0.35 124.29, 1.18 92.78, 0 32 M0 32 C-0.3 11.34, 11.12 0.81, 32 0 M0 32 C-1.1 10.61, 11.43 0.16, 32 0" stroke="#1e1e1e" stroke-width="2" fill="none"></path></g><g stroke-linecap="round" transform="translate(14.369163382474653 557.7448969736042) rotate(0 663.0310117135273 94.31651334353785)"><path d="M32 0 C440.05 -4.68, 848.64 -3.98, 1294.06 0 M32 0 C526.37 0.53, 1020.17 0.27, 1294.06 0 M1294.06 0 C1313.43 -1.31, 1327.7 12.38, 1326.06 32 M1294.06 0 C1317.49 -0.24, 1325.83 9.04, 1326.06 32 M1326.06 32 C1324.32 69.51, 1326.19 110.67, 1326.06 156.63 M1326.06 32 C1326.87 73.64, 1325.98 114.59, 1326.06 156.63 M1326.06 156.63 C1324.83 179.15, 1313.92 189.73, 1294.06 188.63 M1326.06 156.63 C1324.28 179.58, 1314.22 190, 1294.06 188.63 M1294.06 188.63 C845.36 188.87, 396.23 188.16, 32 188.63 M1294.06 188.63 C844.13 191.2, 393.72 190.62, 32 188.63 M32 188.63 C11.34 187.37, 0.73 178.55, 0 156.63 M32 188.63 C9.75 190.6, -1.39 178.64, 0 156.63 M0 156.63 C0.06 106.11, -1.67 56.24, 0 32 M0 156.63 C-0.26 127.93, -0.12 98.39, 0 32 M0 32 C0.68 11.12, 11.48 -0.96, 32 0 M0 32 C-0.06 11.43, 10.82 -1, 32 0" stroke="#1e1e1e" stroke-width="2" fill="none"></path></g><g stroke-linecap="round" transform="translate(21.55374507371198 1001.3193165230025) rotate(0 663.0310117135273 94.31651334353796)"><path d="M32 0 C511.36 2.63, 992.06 3.8, 1294.06 0 M32 0 C318.75 -3.26, 604.96 -3.58, 1294.06 0 M1294.06 0 C1314.08 1.63, 1327.77 12.49, 1326.06 32 M1294.06 0 C1315.15 -0.23, 1324.44 10.89, 1326.06 32 M1326.06 32 C1324.09 60.18, 1326.66 86.59, 1326.06 156.63 M1326.06 32 C1325.79 69.59, 1325.83 106.8, 1326.06 156.63 M1326.06 156.63 C1327.24 176.49, 1316.49 187.08, 1294.06 188.63 M1326.06 156.63 C1327.67 176.79, 1316.76 189.92, 1294.06 188.63 M1294.06 188.63 C918.68 191.6, 542.38 191.66, 32 188.63 M1294.06 188.63 C815.22 189.44, 335.54 189.87, 32 188.63 M32 188.63 C9.4 189.36, 0.58 177.17, 0 156.63 M32 188.63 C12.63 187.24, 0.67 180.24, 0 156.63 M0 156.63 C0.11 118.11, -0.02 81.69, 0 32 M0 156.63 C0.94 123.01, 0.45 90.84, 0 32 M0 32 C0.46 11.48, 9.71 -0.05, 32 0 M0 32 C0.76 10.82, 9.66 0.42, 32 0" stroke="#1e1e1e" stroke-width="2" fill="none"></path></g><g stroke-linecap="round" transform="translate(38.154183087623096 143.87840558554262) rotate(0 202.71011823088747 68.97774856467697)"><path d="M32 0 C101.07 -1.76, 171.67 -4.06, 373.42 0 C396.23 -2.71, 404.98 10.74, 405.42 32 C403.37 60.93, 406.64 86.04, 405.42 105.96 C402.5 127.56, 396.39 138.81, 373.42 137.96 C263.75 135.87, 155.34 136.37, 32 137.96 C13.28 134.9, 0.81 130.2, 0 105.96 C2.71 84.47, -2.79 56.67, 0 32 C-0.79 8.49, 13.31 -3.07, 32 0" stroke="none" stroke-width="0" fill="#be4bdb"></path><path d="M32 0 C161.05 1.9, 292.77 0.83, 373.42 0 M32 0 C132.73 -1.59, 233.06 -2.1, 373.42 0 M373.42 0 C396.39 1.71, 407.24 10.46, 405.42 32 M373.42 0 C394.53 -1.63, 405.64 8.75, 405.42 32 M405.42 32 C406.33 50.31, 405.73 65.66, 405.42 105.96 M405.42 32 C405.88 49.09, 405.38 65.28, 405.42 105.96 M405.42 105.96 C403.94 128.39, 393.2 139.36, 373.42 137.96 M405.42 105.96 C404.24 128.65, 396.04 137.9, 373.42 137.96 M373.42 137.96 C271.42 137.69, 168.87 139.59, 32 137.96 M373.42 137.96 C254.95 138.96, 137.68 139.05, 32 137.96 M32 137.96 C11.39 138.54, -0.8 129, 0 105.96 M32 137.96 C9.28 138.63, 2.28 127.18, 0 105.96 M0 105.96 C-1.72 88.17, -1.34 71.54, 0 32 M0 105.96 C-0.05 87.17, 0.85 68.92, 0 32 M0 32 C0.81 9.71, 10.62 0.66, 32 0 M0 32 C0.16 9.66, 11.09 -2.01, 32 0" stroke="#1e1e1e" stroke-width="2" fill="none"></path></g><g stroke-linecap="round" transform="translate(42.52334647009775 579.006570208654) rotate(0 202.71011823088747 68.97774856467697)"><path d="M32 0 C123.09 1, 211.44 4.11, 373.42 0 C392.05 -0.44, 405.5 12.68, 405.42 32 C407.43 56.88, 406.22 77.05, 405.42 105.96 C405.69 128.93, 395.61 138.63, 373.42 137.96 C240.01 135.96, 105.77 138.19, 32 137.96 C7.61 138.77, 2.92 128.44, 0 105.96 C3.08 78.54, -0.17 54.83, 0 32 C-2.17 13.31, 7.59 1.06, 32 0" stroke="none" stroke-width="0" fill="#be4bdb"></path><path d="M32 0 C113.8 2.45, 194.42 1.17, 373.42 0 M32 0 C156.03 -0.22, 279.49 0.98, 373.42 0 M373.42 0 C396.46 1.82, 405.21 10.47, 405.42 32 M373.42 0 C393.13 0.22, 403.5 8.99, 405.42 32 M405.42 32 C406.53 52.13, 405.08 69.56, 405.42 105.96 M405.42 32 C406.7 59.32, 406.54 87.12, 405.42 105.96 M405.42 105.96 C406.52 125.74, 396.15 136.93, 373.42 137.96 M405.42 105.96 C406.78 128.57, 394.7 137.97, 373.42 137.96 M373.42 137.96 C252.74 139.82, 134.82 139.67, 32 137.96 M373.42 137.96 C263.05 136.52, 153.28 136.53, 32 137.96 M32 137.96 C11.25 137.15, 1.71 126.08, 0 105.96 M32 137.96 C11.34 140.23, -0.11 125.63, 0 105.96 M0 105.96 C-0.63 82.43, -0.4 60.63, 0 32 M0 105.96 C-0.4 89.2, -0.02 72.18, 0 32 M0 32 C-0.96 10.62, 11.33 0.14, 32 0 M0 32 C-1 11.09, 8.66 -2.12, 32 0" stroke="#1e1e1e" stroke-width="2" fill="none"></path></g><g stroke-linecap="round" transform="translate(49.707928161335076 1022.5809897580523) rotate(0 202.71011823088747 68.97774856467686)"><path d="M32 0 C150.69 -2.61, 274.63 -2.54, 373.42 0 C394.31 0.08, 407.44 11.54, 405.42 32 C405.44 52.3, 401.62 70.1, 405.42 105.96 C407.06 128.15, 395.43 141.36, 373.42 137.96 C299.2 142.09, 227.7 138.21, 32 137.96 C11.48 140.87, 1.15 128.74, 0 105.96 C-3.45 83.72, -1.99 59.69, 0 32 C2.64 7.59, 11.73 2.45, 32 0" stroke="none" stroke-width="0" fill="#be4bdb"></path><path d="M32 0 C108.59 -1.15, 182.69 0.65, 373.42 0 M32 0 C158.76 -0.67, 287.37 0.33, 373.42 0 M373.42 0 C396.57 -0.21, 405.22 9.25, 405.42 32 M373.42 0 C394.97 -1.92, 403.75 9.85, 405.42 32 M405.42 32 C406.42 50.29, 404.27 70.04, 405.42 105.96 M405.42 32 C404.72 60.06, 404.59 87.49, 405.42 105.96 M405.42 105.96 C403.87 128.69, 393.73 139.14, 373.42 137.96 M405.42 105.96 C406.7 127.23, 394.77 139.13, 373.42 137.96 M373.42 137.96 C262.99 137.57, 151.67 136.8, 32 137.96 M373.42 137.96 C248.37 135.78, 123.12 136.39, 32 137.96 M32 137.96 C9.87 139.66, -1.21 127.87, 0 105.96 M32 137.96 C12.94 137.85, -1.66 127.29, 0 105.96 M0 105.96 C-0.7 85.98, -0.32 66.02, 0 32 M0 105.96 C0.75 81.47, 0.82 56.05, 0 32 M0 32 C-0.05 11.33, 10.8 -0.87, 32 0 M0 32 C0.42 8.66, 8.54 -0.79, 32 0" stroke="#1e1e1e" stroke-width="2" fill="none"></path></g><g stroke-linecap="round" transform="translate(482.02067447568425 1022.5809897580523) rotate(0 202.71011823088747 68.97774856467686)"><path d="M32 0 C130.79 -3.35, 226.84 -0.56, 373.42 0 C395.65 1.39, 402.5 10.94, 405.42 32 C409.14 54.52, 404.41 85.12, 405.42 105.96 C404.68 130.07, 397.37 134.9, 373.42 137.96 C264.27 139.21, 155.34 141.29, 32 137.96 C8.42 137.76, -0.79 125.12, 0 105.96 C3.59 77.46, 0.23 52.18, 0 32 C0.24 8.22, 10.87 0.58, 32 0" stroke="none" stroke-width="0" fill="#be4bdb"></path><path d="M32 0 C158.1 -1.11, 287.91 0.9, 373.42 0 M32 0 C165 0.29, 298.39 -0.26, 373.42 0 M373.42 0 C394.05 -1.07, 406.59 12.17, 405.42 32 M373.42 0 C395.41 0.06, 403.6 12.45, 405.42 32 M405.42 32 C404.1 60.65, 403.86 88.04, 405.42 105.96 M405.42 32 C406.53 49.01, 405.91 64.9, 405.42 105.96 M405.42 105.96 C406.44 127.8, 395.73 136.68, 373.42 137.96 M405.42 105.96 C406.72 129.12, 395.8 138.46, 373.42 137.96 M373.42 137.96 C248.6 135.36, 123.36 136.59, 32 137.96 M373.42 137.96 C284.87 137.24, 195.89 136.11, 32 137.96 M32 137.96 C10.67 137.17, -1.72 126.37, 0 105.96 M32 137.96 C9.13 137.16, -1.11 125.7, 0 105.96 M0 105.96 C1.09 81.7, 1.22 55.57, 0 32 M0 105.96 C-0.68 84.14, -1.12 61.04, 0 32 M0 32 C-0.69 11.74, 9.13 0.37, 32 0 M0 32 C-2.05 8.87, 11.61 -1.73, 32 0" stroke="#1e1e1e" stroke-width="2" fill="none"></path></g><g stroke-linecap="round" transform="translate(492.821398736467 579.006570208654) rotate(0 411.2815475664329 67.22504747782352)"><path d="M32 0 C301.11 3.46, 572.47 2.97, 790.56 0 C808.98 0.27, 824.2 11.52, 822.56 32 C822.44 56.47, 823.03 79.68, 822.56 102.45 C825.18 120.72, 812.71 137.37, 790.56 134.45 C540.1 135.57, 286.14 134.27, 32 134.45 C9.88 132.28, 2.64 120.71, 0 102.45 C-1.77 80.68, -0.63 53.57, 0 32 C0.2 11.25, 12.65 3.34, 32 0" stroke="none" stroke-width="0" fill="#be4bdb"></path><path d="M32 0 C268.18 2.67, 503.78 1.91, 790.56 0 M32 0 C251.72 -0.58, 471.96 -0.5, 790.56 0 M790.56 0 C813.06 1.51, 823.13 10.72, 822.56 32 M790.56 0 C810.08 1.79, 824.21 10.4, 822.56 32 M822.56 32 C820.65 59.51, 820.58 86.23, 822.56 102.45 M822.56 32 C822.96 49.54, 823.49 67.32, 822.56 102.45 M822.56 102.45 C823.54 122.51, 813.03 136.04, 790.56 134.45 M822.56 102.45 C823.61 124.28, 813.44 132.76, 790.56 134.45 M790.56 134.45 C622.08 132.77, 452.7 133.22, 32 134.45 M790.56 134.45 C608.76 137.17, 426.99 137.3, 32 134.45 M32 134.45 C8.94 133.53, -1.34 123.09, 0 102.45 M32 134.45 C9.56 132.86, 0.79 122.51, 0 102.45 M0 102.45 C0.57 81.42, -0.29 62.97, 0 32 M0 102.45 C-0.57 79.91, -0.04 59.76, 0 32 M0 32 C-1.53 11.03, 8.88 -1.56, 32 0 M0 32 C0.95 8.94, 10.38 0.05, 32 0" stroke="#1e1e1e" stroke-width="2" fill="none"></path></g><g stroke-linecap="round" transform="translate(488.79979004164034 144.32589632161648) rotate(0 411.2815475664329 67.22504747782352)"><path d="M32 0 C287.9 2.05, 542.54 2.88, 790.56 0 C813.03 0.89, 820.88 12.41, 822.56 32 C820.44 51.23, 821.15 74.51, 822.56 102.45 C821.48 122.13, 813.92 134.81, 790.56 134.45 C548.35 136.33, 307.56 136.51, 32 134.45 C7.4 132.94, -0.39 126.19, 0 102.45 C-1.63 87.35, -2.44 69.2, 0 32 C-2.25 8.52, 10.98 -0.65, 32 0" stroke="none" stroke-width="0" fill="#be4bdb"></path><path d="M32 0 C237.62 -0.86, 444.32 -1.23, 790.56 0 M32 0 C308.24 2.87, 584.02 2.66, 790.56 0 M790.56 0 C811.94 -1.55, 821.81 9.26, 822.56 32 M790.56 0 C814.03 -1.89, 824.24 9.25, 822.56 32 M822.56 32 C823.79 51.14, 822.45 69.14, 822.56 102.45 M822.56 32 C822.55 56.91, 823.67 80.46, 822.56 102.45 M822.56 102.45 C822.98 121.83, 813.09 135.58, 790.56 134.45 M822.56 102.45 C823.05 122.57, 812.36 135, 790.56 134.45 M790.56 134.45 C544.63 132.2, 296.78 131.74, 32 134.45 M790.56 134.45 C634.83 133.77, 479.07 133.67, 32 134.45 M32 134.45 C9.72 132.91, -1.97 122.55, 0 102.45 M32 134.45 C12.58 132.15, 0.03 122.67, 0 102.45 M0 102.45 C1.75 82.73, -0.38 64.2, 0 32 M0 102.45 C0.95 79.89, 0.09 58.71, 0 32 M0 32 C1.68 9.86, 11.3 -0.69, 32 0 M0 32 C1.47 9.41, 8.98 -1.51, 32 0" stroke="#1e1e1e" stroke-width="2" fill="none"></path></g><g stroke-linecap="round" transform="translate(917.1488390987952 1022.5809897580523) rotate(0 202.71011823088747 68.97774856467686)"><path d="M32 0 C144.45 3.29, 254.38 0.75, 373.42 0 C395.03 1.64, 406.28 11.34, 405.42 32 C406.32 60.45, 407.08 92.99, 405.42 105.96 C402.36 128.1, 397.67 139.1, 373.42 137.96 C259.27 140.14, 140.92 141.11, 32 137.96 C8.49 140.6, -3.07 128.35, 0 105.96 C1.77 78.96, -2.12 51.7, 0 32 C0.58 12.65, 14.01 -1.74, 32 0" stroke="none" stroke-width="0" fill="#be4bdb"></path><path d="M32 0 C101.95 -0.65, 169.49 -1.99, 373.42 0 M32 0 C109.8 1.65, 188.22 2.28, 373.42 0 M373.42 0 C396.26 0.57, 405.47 9.09, 405.42 32 M373.42 0 C396.54 1.64, 405.15 12.39, 405.42 32 M405.42 32 C406.95 48.08, 407.26 66.23, 405.42 105.96 M405.42 32 C405.84 59.08, 406.09 85.64, 405.42 105.96 M405.42 105.96 C404.15 128.42, 396.35 138.87, 373.42 137.96 M405.42 105.96 C405.92 128.83, 393.07 136.17, 373.42 137.96 M373.42 137.96 C259.87 138.25, 146.67 137.98, 32 137.96 M373.42 137.96 C260.54 137.85, 148.36 137.28, 32 137.96 M32 137.96 C9.75 136.62, -0.69 126.33, 0 105.96 M32 137.96 C9.08 138.74, -1.28 126.94, 0 105.96 M0 105.96 C-1.13 81.22, 0.49 56.72, 0 32 M0 105.96 C-1.06 86.65, 0.4 67.27, 0 32 M0 32 C0.37 8.88, 9.11 0.82, 32 0 M0 32 C-1.73 10.38, 10.72 1.29, 32 0" stroke="#1e1e1e" stroke-width="2" fill="none"></path></g><g stroke-linecap="round" transform="translate(409.7893998442505 10) rotate(0 261.8339027148968 50.67752955772187)"><path d="M25.34 0 C146.68 -2.12, 265.93 -2.61, 498.33 0 C516.86 0.86, 524.34 11.85, 523.67 25.34 C522.6 39.06, 525.95 44.17, 523.67 76.02 C524.48 95.82, 516.37 102.81, 498.33 101.36 C356.35 104.48, 216.01 103.6, 25.34 101.36 C11.09 98.28, 1.06 95.36, 0 76.02 C0.47 59.61, 0.43 48.69, 0 25.34 C1.98 11.79, 6.71 2.71, 25.34 0" stroke="none" stroke-width="0" fill="#9c36b5"></path><path d="M25.34 0 C137.04 -1.89, 247.02 -2.43, 498.33 0 M25.34 0 C171.59 1.29, 318.42 1.87, 498.33 0 M498.33 0 C515.79 0.05, 522.09 10, 523.67 25.34 M498.33 0 C516.87 -0.27, 525.39 7.03, 523.67 25.34 M523.67 25.34 C521.74 44.93, 522.27 62.91, 523.67 76.02 M523.67 25.34 C524.17 43.63, 524.15 60.77, 523.67 76.02 M523.67 76.02 C524.8 94.5, 516.13 101.79, 498.33 101.36 M523.67 76.02 C525.21 91.22, 513.44 102.13, 498.33 101.36 M498.33 101.36 C385.94 102.73, 273.73 102.23, 25.34 101.36 M498.33 101.36 C309.58 99.66, 120.45 99.63, 25.34 101.36 M25.34 101.36 C7.11 100.66, -0.96 91.53, 0 76.02 M25.34 101.36 C9.23 100.08, -0.35 93.69, 0 76.02 M0 76.02 C-0.26 60.31, -0.07 42.42, 0 25.34 M0 76.02 C0.1 60.42, -0.32 43.93, 0 25.34 M0 25.34 C-1.78 6.89, 9.27 -1.5, 25.34 0 M0 25.34 C-0.28 8.5, 9.73 0.56, 25.34 0" stroke="#1e1e1e" stroke-width="2" fill="none"></path></g><g stroke-linecap="round" transform="translate(414.15856322672516 445.1281646231114) rotate(0 261.8339027148968 50.67752955772187)"><path d="M25.34 0 C136.68 -2.24, 246.9 -0.21, 498.33 0 C516.08 0.67, 527.08 5.42, 523.67 25.34 C526.96 41.29, 521.12 52.83, 523.67 76.02 C526.58 94.06, 516.67 101.29, 498.33 101.36 C313.75 98.64, 128.37 100.16, 25.34 101.36 C5.37 102.42, 2.45 92.02, 0 76.02 C-2.81 62.29, 0.22 50.15, 0 25.34 C3.34 6.71, 11.15 -0.8, 25.34 0" stroke="none" stroke-width="0" fill="#9c36b5"></path><path d="M25.34 0 C205.8 -2, 385.82 -1.83, 498.33 0 M25.34 0 C127.61 1.01, 230.69 0.87, 498.33 0 M498.33 0 C515.27 -1.58, 525.22 9.88, 523.67 25.34 M498.33 0 C514.95 1.72, 522.25 9.8, 523.67 25.34 M523.67 25.34 C525.35 35.77, 525.13 49.37, 523.67 76.02 M523.67 25.34 C523.93 40.91, 523.03 56.07, 523.67 76.02 M523.67 76.02 C525.26 93.82, 515.66 102.69, 498.33 101.36 M523.67 76.02 C521.98 91.13, 516 99.9, 498.33 101.36 M498.33 101.36 C339.97 99.97, 180.35 101.39, 25.34 101.36 M498.33 101.36 C358.5 100.97, 218.81 101.06, 25.34 101.36 M25.34 101.36 C7.75 100.39, -1.38 93.59, 0 76.02 M25.34 101.36 C7.17 101.01, 0.78 93.44, 0 76.02 M0 76.02 C0.91 58.9, -0.63 41.87, 0 25.34 M0 76.02 C1.01 64.47, 0.65 53.57, 0 25.34 M0 25.34 C-1.56 9.27, 6.94 -0.25, 25.34 0 M0 25.34 C0.05 9.73, 9.01 -1.02, 25.34 0" stroke="#1e1e1e" stroke-width="2" fill="none"></path></g><g stroke-linecap="round" transform="translate(421.3431449179625 888.7025841725101) rotate(0 261.8339027148968 50.677529557721755)"><path d="M25.34 0 C200.06 -1.34, 378.11 -1.08, 498.33 0 C515.89 3.41, 520.64 7.12, 523.67 25.34 C526.1 40.33, 524.29 64.35, 523.67 76.02 C524.82 94.36, 515.15 104.6, 498.33 101.36 C315.93 100.18, 135.4 99.78, 25.34 101.36 C9.51 103.81, -0.89 92, 0 76.02 C0.14 59.36, 1.92 44.89, 0 25.34 C-1.74 11.15, 7.65 -1.15, 25.34 0" stroke="none" stroke-width="0" fill="#9c36b5"></path><path d="M25.34 0 C207.6 -0.41, 390.13 -0.52, 498.33 0 M25.34 0 C133.07 1.46, 240.4 1.13, 498.33 0 M498.33 0 C513.64 1.55, 525.1 8.21, 523.67 25.34 M498.33 0 C516.95 -1.42, 525.02 6.75, 523.67 25.34 M523.67 25.34 C522.25 44.51, 524.39 61.26, 523.67 76.02 M523.67 25.34 C524.42 39.94, 524.49 56.61, 523.67 76.02 M523.67 76.02 C524.58 93.34, 516.56 99.89, 498.33 101.36 M523.67 76.02 C521.89 93.68, 513.77 102.19, 498.33 101.36 M498.33 101.36 C342.07 103.41, 187.77 103.11, 25.34 101.36 M498.33 101.36 C390.12 100.32, 282.38 100.37, 25.34 101.36 M25.34 101.36 C7.48 99.98, 0.68 91.8, 0 76.02 M25.34 101.36 C8.1 102.13, 0.53 93.84, 0 76.02 M0 76.02 C0.15 62.37, 0.38 48.73, 0 25.34 M0 76.02 C-0.59 65.67, -0.72 54.19, 0 25.34 M0 25.34 C0.82 6.94, 8.2 0.04, 25.34 0 M0 25.34 C1.29 9.01, 7.43 -1.52, 25.34 0" stroke="#1e1e1e" stroke-width="2" fill="none"></path></g><g transform="translate(516.1255410212561 21.468397978533858) rotate(0 150.8625030517578 39.8396917479439)"><text x="0" y="55.83931195391821" font-family="TT Norms Pro, Segoe UI Emoji" font-size="63.74350679671029px" fill="#ffffff" text-anchor="start" style="white-space: pre;" direction="ltr" dominant-baseline="alphabetic">Organisme</text></g><g transform="translate(549.4610806863075 462.3898378581607) rotate(0 117.48750305175781 39.8396917479439)"><text x="0" y="55.83931195391821" font-family="TT Norms Pro, Segoe UI Emoji" font-size="63.74350679671029px" fill="#ffffff" text-anchor="start" style="white-space: pre;" direction="ltr" dominant-baseline="alphabetic">Métiers</text></g><g transform="translate(476.0051014270466 902.9093860366368) rotate(0 214.1750030517578 39.839691747944016)"><text x="0" y="55.83931195391821" font-family="TT Norms Pro, Segoe UI Emoji" font-size="63.74350679671029px" fill="#ffffff" text-anchor="start" style="white-space: pre;" direction="ltr" dominant-baseline="alphabetic">Diagnostiques</text></g><g transform="translate(93.2008760278195 178.03258867316526) rotate(0 150.3874969482422 39.8396917479439)"><text x="0" y="55.83931195391821" font-family="TT Norms Pro, Segoe UI Emoji" font-size="63.74350679671029px" fill="#ffffff" text-anchor="start" style="white-space: pre;" direction="ltr" dominant-baseline="alphabetic">Stratégie</text></g><g transform="translate(97.57003941029416 613.1607532962767) rotate(0 140.1125030517578 39.8396917479439)"><text x="0" y="55.83931195391821" font-family="TT Norms Pro, Segoe UI Emoji" font-size="63.74350679671029px" fill="#ffffff" text-anchor="start" style="white-space: pre;" direction="ltr" dominant-baseline="alphabetic">Maturité</text></g><g transform="translate(104.75462110153148 1056.7351728456754) rotate(0 162.96249389648438 39.839691747944016)"><text x="0" y="55.83931195391821" font-family="TT Norms Pro, Segoe UI Emoji" font-size="63.74350679671029px" fill="#ffffff" text-anchor="start" style="white-space: pre;" direction="ltr" dominant-baseline="alphabetic">Sensibiliser</text></g><g transform="translate(587.7448969736024 1055.4734996106265) rotate(0 100.9749984741211 39.839691747944016)"><text x="0" y="55.83931195391821" font-family="TT Norms Pro, Segoe UI Emoji" font-size="63.74350679671029px" fill="#ffffff" text-anchor="start" style="white-space: pre;" direction="ltr" dominant-baseline="alphabetic">Former</text></g><g transform="translate(777.4416298747801 611.3273906911222) rotate(0 109.82499694824219 39.8396917479439)"><text x="0" y="55.83931195391821" font-family="TT Norms Pro, Segoe UI Emoji" font-size="63.74350679671029px" fill="#ffffff" text-anchor="start" style="white-space: pre;" direction="ltr" dominant-baseline="alphabetic">Offre 1</text></g><g transform="translate(773.4200211799534 176.6467168040847) rotate(0 123.88749694824219 39.8396917479439)"><text x="0" y="55.83931195391821" font-family="TT Norms Pro, Segoe UI Emoji" font-size="63.74350679671029px" fill="#ffffff" text-anchor="start" style="white-space: pre;" direction="ltr" dominant-baseline="alphabetic">Offre 2</text></g><g transform="translate(1000.0576432879516 1054.2118263755767) rotate(0 126.32499694824219 39.839691747944016)"><text x="0" y="55.83931195391821" font-family="TT Norms Pro, Segoe UI Emoji" font-size="63.74350679671029px" fill="#ffffff" text-anchor="start" style="white-space: pre;" direction="ltr" dominant-baseline="alphabetic">Réaliser</text></g></svg>