<svg version="1.1" xmlns="http://www.w3.org/2000/svg" viewBox="0 0 648.6578059152168 517.8198242872185" width="648.6578059152168" height="517.8198242872185">
  <!-- svg-source:excalidraw -->
  
  <defs>
  <style class="style-fonts">
    @font-face {
        font-family: 'TT Norms Pro';
        src:
          url('/fonts/tt-norms-pro/bold.woff2') format('woff2'),
          url('/fonts/tt-norms-pro/bold.woff') format('woff');
        font-weight: 500;
        font-style: normal;
        font-display: swap;
      }
  </style>
  </defs>
  <rect x="0" y="0" width="648.6578059152168" height="517.8198242872185" fill="transparent"></rect><g stroke-linecap="round" transform="translate(209 10) rotate(0 64.5 65.5)"><path d="M129 65.5 C129 68.13, 128.84 70.78, 128.53 73.4 C128.22 76.01, 127.75 78.62, 127.13 81.18 C126.51 83.73, 125.73 86.27, 124.81 88.73 C123.89 91.19, 122.82 93.61, 121.61 95.94 C120.41 98.27, 119.05 100.54, 117.58 102.71 C116.11 104.87, 114.5 106.96, 112.78 108.93 C111.06 110.9, 109.21 112.78, 107.27 114.53 C105.33 116.27, 103.27 117.91, 101.14 119.41 C99.01 120.9, 96.77 122.27, 94.47 123.5 C92.18 124.72, 89.8 125.81, 87.37 126.74 C84.95 127.68, 82.45 128.47, 79.94 129.1 C77.42 129.73, 74.85 130.21, 72.27 130.52 C69.7 130.84, 67.09 131, 64.5 131 C61.91 131, 59.3 130.84, 56.73 130.52 C54.15 130.21, 51.58 129.73, 49.06 129.1 C46.55 128.47, 44.05 127.68, 41.63 126.74 C39.2 125.81, 36.82 124.72, 34.53 123.5 C32.23 122.27, 29.99 120.9, 27.86 119.41 C25.73 117.91, 23.67 116.27, 21.73 114.53 C19.79 112.78, 17.94 110.9, 16.22 108.93 C14.5 106.96, 12.89 104.87, 11.42 102.71 C9.95 100.54, 8.59 98.27, 7.39 95.94 C6.18 93.61, 5.11 91.19, 4.19 88.73 C3.27 86.27, 2.49 83.73, 1.87 81.18 C1.25 78.62, 0.78 76.01, 0.47 73.4 C0.16 70.78, 0 68.13, 0 65.5 C0 62.87, 0.16 60.22, 0.47 57.6 C0.78 54.99, 1.25 52.38, 1.87 49.82 C2.49 47.27, 3.27 44.73, 4.19 42.27 C5.11 39.81, 6.18 37.39, 7.39 35.06 C8.59 32.73, 9.95 30.46, 11.42 28.29 C12.89 26.13, 14.5 24.04, 16.22 22.07 C17.94 20.1, 19.79 18.22, 21.73 16.47 C23.67 14.73, 25.73 13.09, 27.86 11.59 C29.99 10.1, 32.23 8.73, 34.53 7.5 C36.82 6.28, 39.2 5.19, 41.63 4.26 C44.05 3.32, 46.55 2.53, 49.06 1.9 C51.58 1.27, 54.15 0.79, 56.73 0.48 C59.3 0.16, 61.91 0, 64.5 0 C67.09 0, 69.7 0.16, 72.27 0.48 C74.85 0.79, 77.42 1.27, 79.94 1.9 C82.45 2.53, 84.95 3.32, 87.37 4.26 C89.8 5.19, 92.18 6.28, 94.47 7.5 C96.77 8.73, 99.01 10.1, 101.14 11.59 C103.27 13.09, 105.33 14.73, 107.27 16.47 C109.21 18.22, 111.06 20.1, 112.78 22.07 C114.5 24.04, 116.11 26.13, 117.58 28.29 C119.05 30.46, 120.41 32.73, 121.61 35.06 C122.82 37.39, 123.89 39.81, 124.81 42.27 C125.73 44.73, 126.51 47.27, 127.13 49.82 C127.75 52.38, 128.22 54.99, 128.53 57.6 C128.84 60.22, 129 62.87, 129 65.5" stroke="#1e1e1e" stroke-width="2" fill="none"></path></g><g stroke-linecap="round" transform="translate(410 317) rotate(0 64.5 65.5)"><path d="M129 65.5 C129 68.13, 128.84 70.78, 128.53 73.4 C128.22 76.01, 127.75 78.62, 127.13 81.18 C126.51 83.73, 125.73 86.27, 124.81 88.73 C123.89 91.19, 122.82 93.61, 121.61 95.94 C120.41 98.27, 119.05 100.54, 117.58 102.71 C116.11 104.87, 114.5 106.96, 112.78 108.93 C111.06 110.9, 109.21 112.78, 107.27 114.53 C105.33 116.27, 103.27 117.91, 101.14 119.41 C99.01 120.9, 96.77 122.27, 94.47 123.5 C92.18 124.72, 89.8 125.81, 87.37 126.74 C84.95 127.68, 82.45 128.47, 79.94 129.1 C77.42 129.73, 74.85 130.21, 72.27 130.52 C69.7 130.84, 67.09 131, 64.5 131 C61.91 131, 59.3 130.84, 56.73 130.52 C54.15 130.21, 51.58 129.73, 49.06 129.1 C46.55 128.47, 44.05 127.68, 41.63 126.74 C39.2 125.81, 36.82 124.72, 34.53 123.5 C32.23 122.27, 29.99 120.9, 27.86 119.41 C25.73 117.91, 23.67 116.27, 21.73 114.53 C19.79 112.78, 17.94 110.9, 16.22 108.93 C14.5 106.96, 12.89 104.87, 11.42 102.71 C9.95 100.54, 8.59 98.27, 7.39 95.94 C6.18 93.61, 5.11 91.19, 4.19 88.73 C3.27 86.27, 2.49 83.73, 1.87 81.18 C1.25 78.62, 0.78 76.01, 0.47 73.4 C0.16 70.78, 0 68.13, 0 65.5 C0 62.87, 0.16 60.22, 0.47 57.6 C0.78 54.99, 1.25 52.38, 1.87 49.82 C2.49 47.27, 3.27 44.73, 4.19 42.27 C5.11 39.81, 6.18 37.39, 7.39 35.06 C8.59 32.73, 9.95 30.46, 11.42 28.29 C12.89 26.13, 14.5 24.04, 16.22 22.07 C17.94 20.1, 19.79 18.22, 21.73 16.47 C23.67 14.73, 25.73 13.09, 27.86 11.59 C29.99 10.1, 32.23 8.73, 34.53 7.5 C36.82 6.28, 39.2 5.19, 41.63 4.26 C44.05 3.32, 46.55 2.53, 49.06 1.9 C51.58 1.27, 54.15 0.79, 56.73 0.48 C59.3 0.16, 61.91 0, 64.5 0 C67.09 0, 69.7 0.16, 72.27 0.48 C74.85 0.79, 77.42 1.27, 79.94 1.9 C82.45 2.53, 84.95 3.32, 87.37 4.26 C89.8 5.19, 92.18 6.28, 94.47 7.5 C96.77 8.73, 99.01 10.1, 101.14 11.59 C103.27 13.09, 105.33 14.73, 107.27 16.47 C109.21 18.22, 111.06 20.1, 112.78 22.07 C114.5 24.04, 116.11 26.13, 117.58 28.29 C119.05 30.46, 120.41 32.73, 121.61 35.06 C122.82 37.39, 123.89 39.81, 124.81 42.27 C125.73 44.73, 126.51 47.27, 127.13 49.82 C127.75 52.38, 128.22 54.99, 128.53 57.6 C128.84 60.22, 129 62.87, 129 65.5" stroke="#1e1e1e" stroke-width="2" fill="none"></path></g><g stroke-linecap="round" transform="translate(10 314) rotate(0 64.5 65.5)"><path d="M129 65.5 C129 68.13, 128.84 70.78, 128.53 73.4 C128.22 76.01, 127.75 78.62, 127.13 81.18 C126.51 83.73, 125.73 86.27, 124.81 88.73 C123.89 91.19, 122.82 93.61, 121.61 95.94 C120.41 98.27, 119.05 100.54, 117.58 102.71 C116.11 104.87, 114.5 106.96, 112.78 108.93 C111.06 110.9, 109.21 112.78, 107.27 114.53 C105.33 116.27, 103.27 117.91, 101.14 119.41 C99.01 120.9, 96.77 122.27, 94.47 123.5 C92.18 124.72, 89.8 125.81, 87.37 126.74 C84.95 127.68, 82.45 128.47, 79.94 129.1 C77.42 129.73, 74.85 130.21, 72.27 130.52 C69.7 130.84, 67.09 131, 64.5 131 C61.91 131, 59.3 130.84, 56.73 130.52 C54.15 130.21, 51.58 129.73, 49.06 129.1 C46.55 128.47, 44.05 127.68, 41.63 126.74 C39.2 125.81, 36.82 124.72, 34.53 123.5 C32.23 122.27, 29.99 120.9, 27.86 119.41 C25.73 117.91, 23.67 116.27, 21.73 114.53 C19.79 112.78, 17.94 110.9, 16.22 108.93 C14.5 106.96, 12.89 104.87, 11.42 102.71 C9.95 100.54, 8.59 98.27, 7.39 95.94 C6.18 93.61, 5.11 91.19, 4.19 88.73 C3.27 86.27, 2.49 83.73, 1.87 81.18 C1.25 78.62, 0.78 76.01, 0.47 73.4 C0.16 70.78, 0 68.13, 0 65.5 C0 62.87, 0.16 60.22, 0.47 57.6 C0.78 54.99, 1.25 52.38, 1.87 49.82 C2.49 47.27, 3.27 44.73, 4.19 42.27 C5.11 39.81, 6.18 37.39, 7.39 35.06 C8.59 32.73, 9.95 30.46, 11.42 28.29 C12.89 26.13, 14.5 24.04, 16.22 22.07 C17.94 20.1, 19.79 18.22, 21.73 16.47 C23.67 14.73, 25.73 13.09, 27.86 11.59 C29.99 10.1, 32.23 8.73, 34.53 7.5 C36.82 6.28, 39.2 5.19, 41.63 4.26 C44.05 3.32, 46.55 2.53, 49.06 1.9 C51.58 1.27, 54.15 0.79, 56.73 0.48 C59.3 0.16, 61.91 0, 64.5 0 C67.09 0, 69.7 0.16, 72.27 0.48 C74.85 0.79, 77.42 1.27, 79.94 1.9 C82.45 2.53, 84.95 3.32, 87.37 4.26 C89.8 5.19, 92.18 6.28, 94.47 7.5 C96.77 8.73, 99.01 10.1, 101.14 11.59 C103.27 13.09, 105.33 14.73, 107.27 16.47 C109.21 18.22, 111.06 20.1, 112.78 22.07 C114.5 24.04, 116.11 26.13, 117.58 28.29 C119.05 30.46, 120.41 32.73, 121.61 35.06 C122.82 37.39, 123.89 39.81, 124.81 42.27 C125.73 44.73, 126.51 47.27, 127.13 49.82 C127.75 52.38, 128.22 54.99, 128.53 57.6 C128.84 60.22, 129 62.87, 129 65.5" stroke="#1e1e1e" stroke-width="2" fill="none"></path></g><g transform="translate(226.20720008811986 64) rotate(0 49.86666488647461 12.5)"><text x="0" y="17.52" font-family="TT Norms Pro, Segoe UI Emoji" font-size="20px" fill="#1e1e1e" text-anchor="start" style="white-space: pre;" direction="ltr" dominant-baseline="alphabetic">Experience</text></g><g transform="translate(420 369) rotate(0 54.29999923706055 12.5)"><text x="0" y="17.52" font-family="TT Norms Pro, Segoe UI Emoji" font-size="20px" fill="#1e1e1e" text-anchor="start" style="white-space: pre;" direction="ltr" dominant-baseline="alphabetic">Technicians</text></g><g transform="translate(40 368) rotate(0 33.58333206176758 12.5)"><text x="0" y="17.52" font-family="TT Norms Pro, Segoe UI Emoji" font-size="20px" fill="#1e1e1e" text-anchor="start" style="white-space: pre;" direction="ltr" dominant-baseline="alphabetic">Leaders</text></g><g stroke-linecap="round"><g transform="translate(229.7090084260169 125.96632601205823) rotate(0 -59.42767879838232 99.5046464964195)"><path d="M0 0 C-19.81 33.17, -99.05 165.84, -118.86 199.01 M0 0 C-19.81 33.17, -99.05 165.84, -118.86 199.01" stroke="#1e1e1e" stroke-width="2" fill="none"></path></g></g><mask></mask><g stroke-linecap="round"><g transform="translate(319.3843428640919 122.1530285922762) rotate(0 57.94729690462543 102.78147702026666)"><path d="M0 0 C19.32 34.26, 96.58 171.3, 115.89 205.56 M0 0 C19.32 34.26, 96.58 171.3, 115.89 205.56" stroke="#1e1e1e" stroke-width="2" fill="none"></path></g></g><mask></mask><g stroke-linecap="round"><g transform="translate(138 395) rotate(0 135.88606628119567 1.8886066281196463)"><path d="M0 0 C45.3 0.63, 226.48 3.15, 271.77 3.78 M0 0 C45.3 0.63, 226.48 3.15, 271.77 3.78" stroke="#1e1e1e" stroke-width="2" fill="none"></path></g></g><mask></mask><g stroke-linecap="round" transform="translate(370.22345685622577 264.19714623316065) rotate(0 109.15659018161841 121.81133902702891)"><path d="M127.09 1.12 C139.14 1.53, 152.49 9.35, 163.41 16.22 C174.32 23.09, 184.66 31.86, 192.57 42.33 C200.48 52.8, 206.42 66.07, 210.85 79.02 C215.28 91.97, 218.99 106.32, 219.13 120.04 C219.27 133.76, 216.08 148.14, 211.7 161.32 C207.32 174.51, 200.59 188.33, 192.87 199.13 C185.15 209.93, 176.09 219.07, 165.37 226.12 C154.65 233.16, 141.03 238.68, 128.57 241.41 C116.1 244.13, 102.64 244.56, 90.58 242.47 C78.52 240.37, 66.82 235.64, 56.22 228.83 C45.62 222.03, 35.19 212.29, 26.98 201.62 C18.78 190.96, 11.65 178.03, 7 164.82 C2.36 151.62, -0.56 136.33, -0.86 122.4 C-1.17 108.48, 0.98 94.32, 5.16 81.29 C9.34 68.27, 16.18 55.01, 24.21 44.26 C32.23 33.52, 42.65 23.84, 53.32 16.83 C63.99 9.83, 74.93 4.37, 88.23 2.23 C101.54 0.08, 124.41 3.09, 133.15 3.97 C141.89 4.85, 141.09 5.82, 140.69 7.51 M72.38 7.7 C83.02 1.25, 98.3 -0.72, 110.73 -0.55 C123.16 -0.37, 135.36 3.64, 146.97 8.76 C158.58 13.89, 170.66 21.5, 180.38 30.23 C190.1 38.96, 199.22 49.08, 205.29 61.15 C211.36 73.21, 214.95 89.02, 216.8 102.62 C218.65 116.21, 218.79 129.51, 216.38 142.73 C213.96 155.95, 208.72 169.65, 202.3 181.92 C195.89 194.18, 187.52 207.29, 177.91 216.32 C168.3 225.35, 155.97 231.37, 144.65 236.09 C133.32 240.81, 122.22 244.71, 109.96 244.65 C97.7 244.58, 83.12 240.62, 71.08 235.7 C59.04 230.77, 46.93 223.8, 37.71 215.11 C28.49 206.41, 22.03 195.58, 15.76 183.54 C9.49 171.51, 2.64 156.89, 0.08 142.89 C-2.48 128.89, -2.31 113.1, 0.4 99.56 C3.12 86.02, 9.81 73.72, 16.38 61.63 C22.95 49.54, 30.53 36.01, 39.83 27 C49.14 17.99, 66.77 10.58, 72.23 7.55 C77.69 4.52, 72.05 7, 72.6 8.82" stroke="#6741d9" stroke-width="2" fill="none"></path></g><g stroke-linecap="round" transform="translate(494.80453977097545 245.3457049375665) rotate(0 71.9266330721207 23.016522583078626)"><path d="M11.51 0 C41.75 -4.24, 80.67 2.88, 132.35 0 C137.39 1.35, 143.83 6.29, 143.85 11.51 C144.82 17.12, 144.91 23.12, 143.85 34.52 C142.68 39.07, 141.51 47.03, 132.35 46.03 C107.89 44.5, 83.92 43.86, 11.51 46.03 C1.12 46.31, -0.48 38.66, 0 34.52 C-3.16 29.95, -0.84 21.25, 0 11.51 C3.59 7.35, 0.41 -1.52, 11.51 0" stroke="none" stroke-width="0" fill="#6741d9"></path><path d="M11.51 0 C50.18 -0.8, 87.51 -2.31, 132.35 0 M11.51 0 C44.33 -0.49, 78.34 0.69, 132.35 0 M132.35 0 C139.89 -0.52, 142.8 3.52, 143.85 11.51 M132.35 0 C139.22 0.63, 141.69 2.83, 143.85 11.51 M143.85 11.51 C143.85 19.58, 143.37 28.21, 143.85 34.52 M143.85 11.51 C143.89 20.75, 144.58 27.65, 143.85 34.52 M143.85 34.52 C144.64 43.14, 139.19 46.12, 132.35 46.03 M143.85 34.52 C142.73 40.42, 142.07 47.54, 132.35 46.03 M132.35 46.03 C92.32 46.52, 50.93 43.24, 11.51 46.03 M132.35 46.03 C96.9 46.33, 62.33 45.67, 11.51 46.03 M11.51 46.03 C4.22 47.49, -1.49 42.88, 0 34.52 M11.51 46.03 C1.97 45.01, -1.47 43.57, 0 34.52 M0 34.52 C-1.22 24.8, 0.3 17.96, 0 11.51 M0 34.52 C-0.49 27.02, -0.11 21.55, 0 11.51 M0 11.51 C1.58 5.78, 3.76 -1.12, 11.51 0 M0 11.51 C-0.72 5.41, 4.92 0.13, 11.51 0" stroke="#6741d9" stroke-width="2" fill="none"></path></g><g transform="translate(506.31280106251484 253.75029788271195) rotate(0 60.16666793823242 15.074999999999989)"><text x="0" y="21.129119999999972" font-family="TT Norms Pro, Segoe UI Emoji" font-size="24.119999999999965px" fill="#ffffff" text-anchor="start" style="white-space: pre;" direction="ltr" dominant-baseline="alphabetic">Compliance</text></g></svg>