<svg version="1.1" xmlns="http://www.w3.org/2000/svg" viewBox="0 0 549.0000000000001 507.35131225988675"
  width="549.0000000000001" height="507.35131225988675">
  <!-- svg-source:excalidraw -->

  <defs>
    <style class="style-fonts">
      @font-face {
        font-family: 'TT Norms Pro';
        src:
          url('/fonts/tt-norms-pro/bold.woff2') format('woff2'),
          url('/fonts/tt-norms-pro/bold.woff') format('woff');
        font-weight: 500;
        font-style: normal;
        font-display: swap;
      }
    </style>

  </defs>
  <rect x="0" y="0" width="549.0000000000001" height="507.35131225988675" fill="transparent"></rect>
  <g stroke-linecap="round" transform="translate(209 10) rotate(0 64.5 65.5)">
    <path
      d="M129 65.5 C129 68.13, 128.84 70.78, 128.53 73.4 C128.22 76.01, 127.75 78.62, 127.13 81.18 C126.51 83.73, 125.73 86.27, 124.81 88.73 C123.89 91.19, 122.82 93.61, 121.61 95.94 C120.41 98.27, 119.05 100.54, 117.58 102.71 C116.11 104.87, 114.5 106.96, 112.78 108.93 C111.06 110.9, 109.21 112.78, 107.27 114.53 C105.33 116.27, 103.27 117.91, 101.14 119.41 C99.01 120.9, 96.77 122.27, 94.47 123.5 C92.18 124.72, 89.8 125.81, 87.37 126.74 C84.95 127.68, 82.45 128.47, 79.94 129.1 C77.42 129.73, 74.85 130.21, 72.27 130.52 C69.7 130.84, 67.09 131, 64.5 131 C61.91 131, 59.3 130.84, 56.73 130.52 C54.15 130.21, 51.58 129.73, 49.06 129.1 C46.55 128.47, 44.05 127.68, 41.63 126.74 C39.2 125.81, 36.82 124.72, 34.53 123.5 C32.23 122.27, 29.99 120.9, 27.86 119.41 C25.73 117.91, 23.67 116.27, 21.73 114.53 C19.79 112.78, 17.94 110.9, 16.22 108.93 C14.5 106.96, 12.89 104.87, 11.42 102.71 C9.95 100.54, 8.59 98.27, 7.39 95.94 C6.18 93.61, 5.11 91.19, 4.19 88.73 C3.27 86.27, 2.49 83.73, 1.87 81.18 C1.25 78.62, 0.78 76.01, 0.47 73.4 C0.16 70.78, 0 68.13, 0 65.5 C0 62.87, 0.16 60.22, 0.47 57.6 C0.78 54.99, 1.25 52.38, 1.87 49.82 C2.49 47.27, 3.27 44.73, 4.19 42.27 C5.11 39.81, 6.18 37.39, 7.39 35.06 C8.59 32.73, 9.95 30.46, 11.42 28.29 C12.89 26.13, 14.5 24.04, 16.22 22.07 C17.94 20.1, 19.79 18.22, 21.73 16.47 C23.67 14.73, 25.73 13.09, 27.86 11.59 C29.99 10.1, 32.23 8.73, 34.53 7.5 C36.82 6.28, 39.2 5.19, 41.63 4.26 C44.05 3.32, 46.55 2.53, 49.06 1.9 C51.58 1.27, 54.15 0.79, 56.73 0.48 C59.3 0.16, 61.91 0, 64.5 0 C67.09 0, 69.7 0.16, 72.27 0.48 C74.85 0.79, 77.42 1.27, 79.94 1.9 C82.45 2.53, 84.95 3.32, 87.37 4.26 C89.8 5.19, 92.18 6.28, 94.47 7.5 C96.77 8.73, 99.01 10.1, 101.14 11.59 C103.27 13.09, 105.33 14.73, 107.27 16.47 C109.21 18.22, 111.06 20.1, 112.78 22.07 C114.5 24.04, 116.11 26.13, 117.58 28.29 C119.05 30.46, 120.41 32.73, 121.61 35.06 C122.82 37.39, 123.89 39.81, 124.81 42.27 C125.73 44.73, 126.51 47.27, 127.13 49.82 C127.75 52.38, 128.22 54.99, 128.53 57.6 C128.84 60.22, 129 62.87, 129 65.5"
      stroke="#1e1e1e" stroke-width="2" fill="none"></path>
  </g>
  <g stroke-linecap="round" transform="translate(410 317) rotate(0 64.50000000000006 65.5)">
    <path
      d="M129 65.5 C129 68.13, 128.84 70.78, 128.53 73.4 C128.22 76.01, 127.75 78.62, 127.13 81.18 C126.51 83.73, 125.73 86.27, 124.81 88.73 C123.89 91.19, 122.82 93.61, 121.61 95.94 C120.41 98.27, 119.05 100.54, 117.58 102.71 C116.11 104.87, 114.5 106.96, 112.78 108.93 C111.06 110.9, 109.21 112.78, 107.27 114.53 C105.33 116.27, 103.27 117.91, 101.14 119.41 C99.01 120.9, 96.77 122.27, 94.47 123.5 C92.18 124.72, 89.8 125.81, 87.37 126.74 C84.95 127.68, 82.45 128.47, 79.94 129.1 C77.42 129.73, 74.85 130.21, 72.27 130.52 C69.7 130.84, 67.09 131, 64.5 131 C61.91 131, 59.3 130.84, 56.73 130.52 C54.15 130.21, 51.58 129.73, 49.06 129.1 C46.55 128.47, 44.05 127.68, 41.63 126.74 C39.2 125.81, 36.82 124.72, 34.53 123.5 C32.23 122.27, 29.99 120.9, 27.86 119.41 C25.73 117.91, 23.67 116.27, 21.73 114.53 C19.79 112.78, 17.94 110.9, 16.22 108.93 C14.5 106.96, 12.89 104.87, 11.42 102.71 C9.95 100.54, 8.59 98.27, 7.39 95.94 C6.18 93.61, 5.11 91.19, 4.19 88.73 C3.27 86.27, 2.49 83.73, 1.87 81.18 C1.25 78.62, 0.78 76.01, 0.47 73.4 C0.16 70.78, 0 68.13, 0 65.5 C0 62.87, 0.16 60.22, 0.47 57.6 C0.78 54.99, 1.25 52.38, 1.87 49.82 C2.49 47.27, 3.27 44.73, 4.19 42.27 C5.11 39.81, 6.18 37.39, 7.39 35.06 C8.59 32.73, 9.95 30.46, 11.42 28.29 C12.89 26.13, 14.5 24.04, 16.22 22.07 C17.94 20.1, 19.79 18.22, 21.73 16.47 C23.67 14.73, 25.73 13.09, 27.86 11.59 C29.99 10.1, 32.23 8.73, 34.53 7.5 C36.82 6.28, 39.2 5.19, 41.63 4.26 C44.05 3.32, 46.55 2.53, 49.06 1.9 C51.58 1.27, 54.15 0.79, 56.73 0.48 C59.3 0.16, 61.91 0, 64.5 0 C67.09 0, 69.7 0.16, 72.27 0.48 C74.85 0.79, 77.42 1.27, 79.94 1.9 C82.45 2.53, 84.95 3.32, 87.37 4.26 C89.8 5.19, 92.18 6.28, 94.47 7.5 C96.77 8.73, 99.01 10.1, 101.14 11.59 C103.27 13.09, 105.33 14.73, 107.27 16.47 C109.21 18.22, 111.06 20.1, 112.78 22.07 C114.5 24.04, 116.11 26.13, 117.58 28.29 C119.05 30.46, 120.41 32.73, 121.61 35.06 C122.82 37.39, 123.89 39.81, 124.81 42.27 C125.73 44.73, 126.51 47.27, 127.13 49.82 C127.75 52.38, 128.22 54.99, 128.53 57.6 C128.84 60.22, 129 62.87, 129 65.5"
      stroke="#1e1e1e" stroke-width="2" fill="none"></path>
  </g>
  <g stroke-linecap="round" transform="translate(10 314) rotate(0 64.5 65.5)">
    <path
      d="M129 65.5 C129 68.13, 128.84 70.78, 128.53 73.4 C128.22 76.01, 127.75 78.62, 127.13 81.18 C126.51 83.73, 125.73 86.27, 124.81 88.73 C123.89 91.19, 122.82 93.61, 121.61 95.94 C120.41 98.27, 119.05 100.54, 117.58 102.71 C116.11 104.87, 114.5 106.96, 112.78 108.93 C111.06 110.9, 109.21 112.78, 107.27 114.53 C105.33 116.27, 103.27 117.91, 101.14 119.41 C99.01 120.9, 96.77 122.27, 94.47 123.5 C92.18 124.72, 89.8 125.81, 87.37 126.74 C84.95 127.68, 82.45 128.47, 79.94 129.1 C77.42 129.73, 74.85 130.21, 72.27 130.52 C69.7 130.84, 67.09 131, 64.5 131 C61.91 131, 59.3 130.84, 56.73 130.52 C54.15 130.21, 51.58 129.73, 49.06 129.1 C46.55 128.47, 44.05 127.68, 41.63 126.74 C39.2 125.81, 36.82 124.72, 34.53 123.5 C32.23 122.27, 29.99 120.9, 27.86 119.41 C25.73 117.91, 23.67 116.27, 21.73 114.53 C19.79 112.78, 17.94 110.9, 16.22 108.93 C14.5 106.96, 12.89 104.87, 11.42 102.71 C9.95 100.54, 8.59 98.27, 7.39 95.94 C6.18 93.61, 5.11 91.19, 4.19 88.73 C3.27 86.27, 2.49 83.73, 1.87 81.18 C1.25 78.62, 0.78 76.01, 0.47 73.4 C0.16 70.78, 0 68.13, 0 65.5 C0 62.87, 0.16 60.22, 0.47 57.6 C0.78 54.99, 1.25 52.38, 1.87 49.82 C2.49 47.27, 3.27 44.73, 4.19 42.27 C5.11 39.81, 6.18 37.39, 7.39 35.06 C8.59 32.73, 9.95 30.46, 11.42 28.29 C12.89 26.13, 14.5 24.04, 16.22 22.07 C17.94 20.1, 19.79 18.22, 21.73 16.47 C23.67 14.73, 25.73 13.09, 27.86 11.59 C29.99 10.1, 32.23 8.73, 34.53 7.5 C36.82 6.28, 39.2 5.19, 41.63 4.26 C44.05 3.32, 46.55 2.53, 49.06 1.9 C51.58 1.27, 54.15 0.79, 56.73 0.48 C59.3 0.16, 61.91 0, 64.5 0 C67.09 0, 69.7 0.16, 72.27 0.48 C74.85 0.79, 77.42 1.27, 79.94 1.9 C82.45 2.53, 84.95 3.32, 87.37 4.26 C89.8 5.19, 92.18 6.28, 94.47 7.5 C96.77 8.73, 99.01 10.1, 101.14 11.59 C103.27 13.09, 105.33 14.73, 107.27 16.47 C109.21 18.22, 111.06 20.1, 112.78 22.07 C114.5 24.04, 116.11 26.13, 117.58 28.29 C119.05 30.46, 120.41 32.73, 121.61 35.06 C122.82 37.39, 123.89 39.81, 124.81 42.27 C125.73 44.73, 126.51 47.27, 127.13 49.82 C127.75 52.38, 128.22 54.99, 128.53 57.6 C128.84 60.22, 129 62.87, 129 65.5"
      stroke="#1e1e1e" stroke-width="2" fill="none"></path>
  </g>
  <g transform="translate(223.56816009986926 62.68048000587464) rotate(0 49.86666488647461 12.5)"><text x="0" y="17.52"
      font-family="TT Norms Pro, Segoe UI Emoji" font-size="20px" fill="#1e1e1e" text-anchor="start" style="white-space: pre;"
      direction="ltr" dominant-baseline="alphabetic">Experience</text></g>
  <g transform="translate(420 369) rotate(0 54.299999237060604 12.5)"><text x="0" y="17.52"
      font-family="TT Norms Pro, Segoe UI Emoji" font-size="20px" fill="#1e1e1e" text-anchor="start" style="white-space: pre;"
      direction="ltr" dominant-baseline="alphabetic">Technicians</text></g>
  <g transform="translate(40 368) rotate(0 33.58333206176758 12.5)"><text x="0" y="17.52"
      font-family="TT Norms Pro, Segoe UI Emoji" font-size="20px" fill="#1e1e1e" text-anchor="start" style="white-space: pre;"
      direction="ltr" dominant-baseline="alphabetic">Leaders</text></g>
  <g stroke-linecap="round">
    <g transform="translate(229.7090084260169 125.96632601205829) rotate(0 -59.42767879838232 99.50464649641947)">
      <path d="M0 0 C-19.81 33.17, -99.05 165.84, -118.86 199.01 M0 0 C-19.81 33.17, -99.05 165.84, -118.86 199.01"
        stroke="#1e1e1e" stroke-width="2" fill="none"></path>
    </g>
  </g>
  <mask></mask>
  <g stroke-linecap="round">
    <g transform="translate(319.3843428640919 122.15302859227631) rotate(0 57.94729690462543 102.78147702026672)">
      <path d="M0 0 C19.32 34.26, 96.58 171.3, 115.89 205.56 M0 0 C19.32 34.26, 96.58 171.3, 115.89 205.56"
        stroke="#1e1e1e" stroke-width="2" fill="none"></path>
    </g>
  </g>
  <mask></mask>
  <g stroke-linecap="round">
    <g transform="translate(138 395) rotate(0 135.88606628119567 1.8886066281196463)">
      <path d="M0 0 C45.3 0.63, 226.48 3.15, 271.77 3.78 M0 0 C45.3 0.63, 226.48 3.15, 271.77 3.78" stroke="#1e1e1e"
        stroke-width="2" fill="none"></path>
    </g>
  </g>
  <mask></mask>
</svg>